<?xml version="1.0" encoding="UTF-8" standalone="no"?>
<svg width="25px" height="34px" viewBox="0 0 25 34" version="1.1" xmlns="http://www.w3.org/2000/svg" xmlns:xlink="http://www.w3.org/1999/xlink" xmlns:sketch="http://www.bohemiancoding.com/sketch/ns">
    <!-- Generator: Sketch 3.2.2 (9983) - http://www.bohemiancoding.com/sketch -->
    <title>ic_delete_grey</title>
    <desc>Created with Sketch.</desc>
    <defs></defs>
    <g id="Posts" stroke="none" stroke-width="1" fill="none" fill-rule="evenodd" sketch:type="MSPage">
        <g id="Posts---Drafts" sketch:type="MSArtboardGroup" transform="translate(-471.000000, -566.000000)" fill="#929292">
            <g id="draft---thumbnail" sketch:type="MSLayerGroup" transform="translate(0.000000, 257.000000)">
                <g id="ic_delete_grey" transform="translate(471.000000, 309.000000)" sketch:type="MSShapeGroup">
                    <path d="M24.7854651,4.26586667 L18.3802326,4.26586667 L18.3802326,2.29613333 C18.3802326,1.20813333 17.4726744,0.323566667 16.3575581,0.323566667 L8.94011628,0.323566667 C7.825,0.323566667 6.91686047,1.20813333 6.91686047,2.29613333 L6.91686047,4.26586667 L0.511046512,4.26586667 L0.511046512,5.58053333 L2.02034884,5.58053333 L4.52209302,31.7713 C4.62209302,32.8213333 5.5872093,33.6758667 6.66686047,33.6758667 L18.7988372,33.6758667 C19.8796512,33.6758667 20.8430233,32.8213333 20.9436047,31.7713 L23.4465116,5.58053333 L24.7854651,5.58053333 L24.7854651,4.26586667 L24.7854651,4.26586667 Z M8.26453488,2.29613333 C8.26453488,1.9329 8.56918605,1.63766667 8.94011628,1.63766667 L16.3575581,1.63766667 C16.7302326,1.63766667 17.030814,1.9329 17.030814,2.29613333 L17.030814,4.26586667 L8.26453488,4.26586667 L8.26453488,2.29613333 L8.26453488,2.29613333 Z M19.6005814,31.6489 C19.5651163,32.0285667 19.1895349,32.3617667 18.7988372,32.3617667 L6.66686047,32.3617667 C6.275,32.3617667 5.90174419,32.0285667 5.86511628,31.6489 L3.37616279,5.5811 L22.0912791,5.5811 L19.6005814,31.6489 L19.6005814,31.6489 Z" id="Shape"></path>
                    <rect id="Rectangle-path" x="12.1424419" y="8.3742" width="1.35" height="21.0295667"></rect>
                    <path d="M8.80189625,8.35314403 L9.47982817,29.3829572 L8.1271715,29.4241063 L7.44923958,8.39429309 L8.80189625,8.35314403 L8.80189625,8.35314403 Z" id="Rectangle-path"></path>
                    <path d="M16.9186516,8.35245898 L18.2707252,8.39332749 L17.5971251,29.4231407 L16.2450515,29.3822722 L16.9186516,8.35245898 L16.9186516,8.35245898 Z" id="Rectangle-path"></path>
                </g>
            </g>
        </g>
    </g>
</svg>