<?xml version="1.0" encoding="UTF-8" standalone="no"?>
<svg width="30px" height="41px" viewBox="0 0 30 41" version="1.1" xmlns="http://www.w3.org/2000/svg" xmlns:xlink="http://www.w3.org/1999/xlink" xmlns:sketch="http://www.bohemiancoding.com/sketch/ns">
    <!-- Generator: Sketch 3.2.2 (9983) - http://www.bohemiancoding.com/sketch -->
    <title>ic_delete</title>
    <desc>Created with Sketch.</desc>
    <defs></defs>
    <g id="Feeds" stroke="none" stroke-width="1" fill="none" fill-rule="evenodd" sketch:type="MSPage">
        <g id="Feeds---Unfollow" sketch:type="MSArtboardGroup" transform="translate(-664.000000, -399.000000)" fill="#FFFFFF">
            <g id="Group" sketch:type="MSLayerGroup" transform="translate(459.000000, 399.000000)">
                <g id="ic_delete" transform="translate(205.000000, 0.000000)" sketch:type="MSShapeGroup">
                    <path d="M29.7425581,5.11904 L22.0562791,5.11904 L22.0562791,2.75536 C22.0562791,1.44976 20.9672093,0.38828 19.6290698,0.38828 L10.7281395,0.38828 C9.39,0.38828 8.30023256,1.44976 8.30023256,2.75536 L8.30023256,5.11904 L0.613255814,5.11904 L0.613255814,6.69664 L2.4244186,6.69664 L5.42651163,38.12556 C5.54651163,39.3856 6.70465116,40.41104 8.00023256,40.41104 L22.5586047,40.41104 C23.8555814,40.41104 25.0116279,39.3856 25.1323256,38.12556 L28.135814,6.69664 L29.7425581,6.69664 L29.7425581,5.11904 L29.7425581,5.11904 Z M9.91744186,2.75536 C9.91744186,2.31948 10.2830233,1.9652 10.7281395,1.9652 L19.6290698,1.9652 C20.0762791,1.9652 20.4369767,2.31948 20.4369767,2.75536 L20.4369767,5.11904 L9.91744186,5.11904 L9.91744186,2.75536 L9.91744186,2.75536 Z M23.5206977,37.97868 C23.4781395,38.43428 23.0274419,38.83412 22.5586047,38.83412 L8.00023256,38.83412 C7.53,38.83412 7.08209302,38.43428 7.03813953,37.97868 L4.05139535,6.69732 L26.5095349,6.69732 L23.5206977,37.97868 L23.5206977,37.97868 Z" id="Shape"></path>
                    <rect id="Rectangle-path" x="14.5709302" y="10.04904" width="1.62" height="25.23548"></rect>
                    <path d="M10.5622755,10.0237728 L11.3757938,35.2595486 L9.7526058,35.3089275 L8.9390875,10.0731517 L10.5622755,10.0237728 L10.5622755,10.0237728 Z" id="Rectangle-path"></path>
                    <path d="M20.3023819,10.0229508 L21.9248702,10.071993 L21.1165501,35.3077688 L19.4940618,35.2587266 L20.3023819,10.0229508 L20.3023819,10.0229508 Z" id="Rectangle-path"></path>
                </g>
            </g>
        </g>
    </g>
</svg>