<?xml version="1.0" encoding="UTF-8" standalone="no"?>
<svg width="31px" height="43px" viewBox="0 0 31 43" version="1.1" xmlns="http://www.w3.org/2000/svg" xmlns:xlink="http://www.w3.org/1999/xlink" xmlns:sketch="http://www.bohemiancoding.com/sketch/ns">
    <!-- Generator: Sketch 3.3.3 (12072) - http://www.bohemiancoding.com/sketch -->
    <title>ic_iosshare</title>
    <desc>Created with Sketch.</desc>
    <defs></defs>
    <g id="Story" stroke="none" stroke-width="1" fill="none" fill-rule="evenodd" sketch:type="MSPage">
        <g sketch:type="MSArtboardGroup" transform="translate(-657.000000, -1270.000000)" id="ic_iosshare" fill="#929292">
            <path d="M671.684211,1273.24291 L671.684211,1297.58746 L673.316605,1297.58746 L673.316605,1273.03217 L678.624132,1278.31044 C678.768526,1278.45889 679.005921,1278.45564 679.155211,1278.30152 L679.829868,1277.65987 C679.979158,1277.50655 679.982421,1277.26076 679.837211,1277.11151 L673.691421,1271.0004 C673.679916,1270.91714 673.642712,1270.83623 673.580105,1270.77127 L672.965,1270.11908 C672.814079,1269.96333 672.574237,1269.96009 672.429026,1270.11097 L665.586184,1276.99956 C665.440158,1277.15044 665.445053,1277.39866 665.595158,1277.5536 L666.210263,1278.2058 C666.360368,1278.36154 666.600211,1278.36479 666.746237,1278.21391 L671.684211,1273.24291 Z M658.631579,1283.7973 L658.631579,1311.37763 L686.368421,1311.37763 L686.368421,1283.7973 L676.578947,1283.7973 L676.578947,1282.17493 L688,1282.17493 L688,1313 L657,1313 L657,1282.17493 L668.421053,1282.17493 L668.421053,1283.7973 L658.631579,1283.7973 Z" sketch:type="MSShapeGroup"></path>
        </g>
    </g>
</svg>