<?xml version="1.0" encoding="utf-8"?>
<!-- Generator: Adobe Illustrator 15.0.0, SVG Export Plug-In  -->
<!DOCTYPE svg PUBLIC "-//W3C//DTD SVG 1.1//EN" "http://www.w3.org/Graphics/SVG/1.1/DTD/svg11.dtd" [
	<!ENTITY ns_flows "http://ns.adobe.com/Flows/1.0/">
]>
<svg version="1.1"
	 xmlns="http://www.w3.org/2000/svg" xmlns:xlink="http://www.w3.org/1999/xlink" xmlns:a="http://ns.adobe.com/AdobeSVGViewerExtensions/3.0/"
	 x="0px" y="0px" width="64px" height="64px" viewBox="-2.678 -0.044 64 64"
	 overflow="visible" enable-background="new -2.678 -0.044 64 64" xml:space="preserve">
<defs>
</defs>
<path fill="#CECECC" d="M20.527,13.635c0-2.5-2.027-4.523-4.521-4.523c-2.502,0-4.527,2.023-4.527,4.523
	c0,2.498,2.025,4.523,4.527,4.523C18.5,18.158,20.527,16.133,20.527,13.635z"/>
<path fill="#92938D" d="M16.006,18.209c-2.525,0-4.578-2.053-4.578-4.574s2.053-4.572,4.578-4.572c2.52,0,4.57,2.051,4.57,4.572
	S18.525,18.209,16.006,18.209z M16.006,9.162c-2.469,0-4.479,2.006-4.479,4.473s2.01,4.475,4.479,4.475
	c2.465,0,4.471-2.008,4.471-4.475S18.471,9.162,16.006,9.162z"/>
<polygon fill="#CECECC" points="47.289,33.295 34.424,13.779 26.924,24.432 22.85,20.232 11.355,33.295 "/>
<path fill="#92938D" d="M47.381,33.346H11.244l0.074-0.084L22.848,20.16l0.039,0.037l4.031,4.156l7.506-10.662l0.041,0.061
	L47.381,33.346z M11.465,33.246h35.73L34.422,13.869L26.93,24.51l-0.043-0.043l-4.035-4.16L11.465,33.246z"/>
<polygon fill="#CECECC" points="0.049,0.049 0.049,42.213 18.236,42.213 18.236,37.408 4.852,37.408 4.852,4.854 53.789,4.854 
	53.789,37.408 40.244,37.408 40.244,42.213 58.594,42.213 58.594,0.049 "/>
<path fill="#92938D" d="M58.645,42.264H40.195v-4.904h13.543V4.904H4.902v32.455h13.385v4.904H0V0h58.645V42.264z M40.295,42.164
	h18.25V0.1H0.1v42.064h18.088v-4.705H4.803V4.805h49.035v32.654H40.295V42.164z"/>
<polygon fill="#CECECC" points="33.814,37.393 24.832,37.393 24.832,51.229 19.309,51.229 29.322,63.832 39.336,51.229 
	33.814,51.229 "/>
<path fill="#92938D" d="M29.322,63.912l-0.039-0.049L19.205,51.18h5.576V37.344h9.082V51.18h5.576l-0.064,0.08L29.322,63.912z
	 M19.412,51.279l9.91,12.473l9.91-12.473h-5.469V37.443h-8.883v13.836H19.412z"/>
</svg>
