<?xml version="1.0" encoding="UTF-8" standalone="no"?>
<svg width="46px" height="47px" viewBox="0 0 46 47" version="1.1" xmlns="http://www.w3.org/2000/svg" xmlns:xlink="http://www.w3.org/1999/xlink" xmlns:sketch="http://www.bohemiancoding.com/sketch/ns">
    <!-- Generator: Sketch 3.2.2 (9983) - http://www.bohemiancoding.com/sketch -->
    <title>ic_new_post</title>
    <desc>Created with Sketch.</desc>
    <defs></defs>
    <g id="Posts" stroke="none" stroke-width="1" fill="none" fill-rule="evenodd" sketch:type="MSPage">
        <g id="Posts---Drafts" sketch:type="MSArtboardGroup" transform="translate(-677.000000, -59.000000)" fill="#929292">
            <g id="ic_new_post" sketch:type="MSLayerGroup" transform="translate(677.000000, 59.000000)">
                <path d="M28.887,11.001 L2.001,11.001 L2.001,45.001 L36.001,45.001 L36.001,18.213 L38.001,16.213 L38.001,47 L0.001,47 L0.001,9 L30.887,9 L28.887,11.001 L28.887,11.001 Z" id="Shape" sketch:type="MSShapeGroup"></path>
                <path d="M38.574,4.115 L16.249,26.501 L15.526,31.466 L20.491,30.744 L42.816,8.357 L38.574,4.115 L38.574,4.115 Z M19.799,28.577 L18.385,27.162 L39.991,5.555 L41.406,6.97 L19.799,28.577 L19.799,28.577 Z" id="Shape" sketch:type="MSShapeGroup"></path>
                <path d="M43.929,7.307 L46.004,5.169 C46.004,5.169 45.739,3.28 44.671,2.211 C43.618,1.159 41.761,0.927 41.761,0.927 L39.687,3.064 L43.929,7.307 L43.929,7.307 Z" id="Shape" sketch:type="MSShapeGroup"></path>
            </g>
        </g>
    </g>
</svg>