<?xml version="1.0" encoding="utf-8"?>
<!-- Generator: Adobe Illustrator 15.0.0, SVG Export Plug-In  -->
<!DOCTYPE svg PUBLIC "-//W3C//DTD SVG 1.1//EN" "http://www.w3.org/Graphics/SVG/1.1/DTD/svg11.dtd" [
	<!ENTITY ns_flows "http://ns.adobe.com/Flows/1.0/">
]>
<svg version="1.1"
	 xmlns="http://www.w3.org/2000/svg" xmlns:xlink="http://www.w3.org/1999/xlink" xmlns:a="http://ns.adobe.com/AdobeSVGViewerExtensions/3.0/"
	 x="0px" y="0px" width="48px" height="48px" viewBox="-1.525 -10.041 48 48"
	 overflow="visible" enable-background="new -1.525 -10.041 48 48" xml:space="preserve">
<defs>
</defs>
<polygon fill="#848778" points="10.546,17.389 6.539,17.389 6.539,13.383 4.006,13.383 4.006,17.389 0,17.389 0,19.921 
	4.006,19.921 4.006,23.928 6.539,23.928 6.539,19.921 10.546,19.921 "/>
<path fill="#848778" d="M23.437,8.683L20.842,8.68l0.36-2.174l2.526,0.419L23.437,8.683z M23.997,5.31l-2.526-0.42l0.36-2.173
	l2.525,0.419L23.997,5.31z M25.89,8.683l0.932-5.179l11.678,2.051l-2.436,13.499l-1.982-0.33v2.351l8.575,1.422l3.021-18.209
	L19.842,0l-1.44,8.683h2.44 M40.874,19.788l-2.526-0.418l0.36-2.173l2.526,0.42L40.874,19.788z M41.505,15.981l-2.525-0.419
	l0.359-2.172l2.526,0.419L41.505,15.981z M42.131,12.211l-2.526-0.419l0.36-2.173l2.525,0.418L42.131,12.211z M40.232,8.001
	l0.36-2.172l2.526,0.42L42.76,8.421L40.232,8.001z"/>
<polygon fill="#848778" points="34.27,28.688 7.464,28.688 7.464,24.476 10.204,24.476 10.204,25.949 31.53,25.949 31.53,11.361 
	10.204,11.361 10.204,12.834 7.464,12.834 7.464,8.621 34.27,8.621 "/>
<polygon fill="#848778" points="24.087,15.728 20.843,20.338 19.079,18.521 14.103,24.175 29.658,24.175 "/>
<circle fill="#848778" cx="15.006" cy="15.728" r="1.957"/>
</svg>
