<?xml version="1.0" encoding="utf-8"?>
<!-- Generator: Adobe Illustrator 15.0.0, SVG Export Plug-In  -->
<!DOCTYPE svg PUBLIC "-//W3C//DTD SVG 1.1//EN" "http://www.w3.org/Graphics/SVG/1.1/DTD/svg11.dtd" [
	<!ENTITY ns_flows "http://ns.adobe.com/Flows/1.0/">
]>
<svg version="1.1"
	 xmlns="http://www.w3.org/2000/svg" xmlns:xlink="http://www.w3.org/1999/xlink" xmlns:a="http://ns.adobe.com/AdobeSVGViewerExtensions/3.0/"
	 x="0px" y="0px" width="164px" height="164px" viewBox="2.619 0.854 164 164"
	 overflow="visible" enable-background="new 2.619 0.854 164 164" xml:space="preserve">
<defs>
</defs>
<rect fill="#EFEFEF" width="170.561" height="168.559"/>
<polygon fill="#CECECC" points="49.569,91.534 38.146,91.534 38.146,80.113 30.923,80.113 30.923,91.534 19.501,91.534 
	19.501,98.754 30.923,98.754 30.923,110.179 38.146,110.179 38.146,98.754 49.569,98.754 "/>
<path fill="#92938D" d="M38.195,110.229h-7.322V98.804H19.451v-7.319h11.422V80.063h7.322v11.421h11.424v7.319H38.195V110.229z
	 M30.973,110.129h7.123V98.704H49.52v-7.12H38.096V80.163h-7.123v11.421H19.551v7.12h11.422V110.129z"/>
<path fill="#CECECC" d="M86.323,66.712l-7.397-0.009l1.027-6.198l7.203,1.195L86.323,66.712z M87.922,57.095l-7.203-1.197
	l1.027-6.195l7.2,1.194L87.922,57.095z M93.318,66.712l2.656-14.766l33.295,5.847l-6.944,38.488l-5.652-0.94v6.702l24.45,4.054
	l8.614-51.918L76.074,41.956l-4.107,24.756h6.959 M136.041,98.376l-7.203-1.192l1.027-6.195l7.203,1.197L136.041,98.376z
	 M137.84,87.522l-7.2-1.195l1.024-6.192l7.203,1.195L137.84,87.522z M139.625,76.771l-7.203-1.194l1.027-6.195l7.2,1.191
	L139.625,76.771z M134.212,64.769l1.027-6.192l7.203,1.197l-1.024,6.192L134.212,64.769z"/>
<path fill="#92938D" d="M141.164,106.154l-0.049-0.008l-24.492-4.062v-6.803l0.058,0.009l5.604,0.933l6.926-38.39l-33.196-5.83
	l-2.647,14.717l-0.098-0.018l2.665-14.814l0.049,0.009l33.345,5.854l-0.01,0.05l-6.953,38.537l-0.048-0.008l-5.595-0.932v6.602
	l24.359,4.038l8.598-51.819L76.115,42.014l-4.09,24.648h6.856l1.03-6.215l0.049,0.008l7.253,1.204l-0.008,0.049l-0.841,5.054h-0.042
	l-7.397-0.009v0.009h-7.018l0.009-0.058l4.116-24.806l0.049,0.008l73.713,12.231l-0.008,0.049L141.164,106.154z M78.984,66.653
	l7.297,0.009l0.817-4.921l-7.104-1.179L78.984,66.653z M136.082,98.434l-0.049-0.008l-7.253-1.201l0.008-0.049l1.036-6.245
	l0.049,0.008l7.253,1.206l-0.008,0.049L136.082,98.434z M128.896,97.143L136,98.318l1.011-6.092l-7.104-1.181L128.896,97.143z
	 M137.881,87.58l-0.049-0.008l-7.25-1.204l0.008-0.049l1.033-6.242l0.049,0.008l7.253,1.204l-0.008,0.049L137.881,87.58z
	 M130.697,86.286l7.102,1.179l1.011-6.094l-7.104-1.179L130.697,86.286z M139.666,76.829l-0.049-0.008l-7.253-1.203l0.008-0.049
	l1.036-6.245l0.049,0.008l7.25,1.2l-0.008,0.049L139.666,76.829z M132.479,75.536l7.104,1.178l1.008-6.1l-7.102-1.175
	L132.479,75.536z M141.459,66.023l-0.049-0.008l-7.256-1.206l0.008-0.049l1.036-6.242l0.049,0.008l7.253,1.206l-0.008,0.049
	L141.459,66.023z M134.27,64.728l7.107,1.181l1.008-6.094l-7.104-1.181L134.27,64.728z M87.963,57.152l-0.049-0.008l-7.253-1.206
	l0.008-0.049l1.036-6.245l0.049,0.008l7.25,1.203l-0.008,0.049L87.963,57.152z M80.776,55.856l7.104,1.181l1.008-6.1l-7.102-1.178
	L80.776,55.856z"/>
<rect x="86.323" y="66.662" fill="#92938D" width="6.995" height="0.1"/>
<polygon fill="#CECECC" points="117.211,123.752 40.782,123.752 40.782,111.74 48.596,111.74 48.596,115.942 109.4,115.942 
	109.4,74.35 48.596,74.35 48.596,78.548 40.782,78.548 40.782,66.536 117.211,66.536 "/>
<path fill="#92938D" d="M117.261,123.802H40.732V111.69h7.913v4.202h60.705V74.399H48.646v4.198h-7.913V66.486h76.528V123.802z
	 M40.832,123.702h76.329V66.586H40.832v11.912h7.714V74.3h60.904v41.692H48.546v-4.202h-7.714V123.702z"/>
<polygon fill="#CECECC" points="88.178,86.798 78.928,99.943 73.899,94.762 59.711,110.883 104.062,110.883 "/>
<path fill="#92938D" d="M104.155,110.933H59.601l0.073-0.083l14.224-16.161l0.038,0.038l4.986,5.139l9.257-13.156l0.041,0.062
	L104.155,110.933z M59.821,110.833h44.148L88.177,86.887l-9.243,13.135l-0.042-0.043l-4.99-5.144L59.821,110.833z"/>
<circle fill="#CECECC" cx="62.286" cy="86.798" r="5.58"/>
<path fill="#92938D" d="M62.286,92.428c-3.104,0-5.63-2.525-5.63-5.63c0-3.105,2.525-5.632,5.63-5.632
	c3.104,0,5.629,2.526,5.629,5.632C67.915,89.902,65.39,92.428,62.286,92.428z M62.286,81.266c-3.049,0-5.53,2.481-5.53,5.532
	c0,3.049,2.481,5.53,5.53,5.53s5.529-2.481,5.529-5.53C67.815,83.747,65.335,81.266,62.286,81.266z"/>
</svg>
