<?xml version="1.0" encoding="UTF-8" standalone="no"?>
<svg width="40px" height="33px" viewBox="0 0 40 33" version="1.1" xmlns="http://www.w3.org/2000/svg" xmlns:xlink="http://www.w3.org/1999/xlink" xmlns:sketch="http://www.bohemiancoding.com/sketch/ns">
    <!-- Generator: Sketch 3.2.2 (9983) - http://www.bohemiancoding.com/sketch -->
    <title>ic_tab_news</title>
    <desc>Created with Sketch.</desc>
    <defs></defs>
    <g id="Feeds" stroke="none" stroke-width="1" fill="none" fill-rule="evenodd" sketch:type="MSPage">
        <g sketch:type="MSArtboardGroup" transform="translate(-55.000000, -1272.000000)" id="Group" fill="#CECECC">
            <g sketch:type="MSLayerGroup" transform="translate(0.000000, 1242.000000)">
                <g id="ic_tab_news" transform="translate(55.000000, 30.000000)" sketch:type="MSShapeGroup">
                    <g id="Group">
                        <path d="M10.3225,0.100269231 L10.3225,10.3848462 L0.16,10.3848462 L0.16,26.6716154 C0.18875,30.0388846 2.84,32.7816923 6.13625,32.8959231 L6.13625,32.901 L33.6475,32.901 C37.06,32.901 39.83875,30.0820385 39.83875,26.6145 L39.83875,0.100269231 L10.3225,0.100269231 L10.3225,0.100269231 Z M10.3225,15.7435385 L4.85125,15.7435385 L4.85125,17.9951538 L10.32,17.9951538 L10.32,20.1845769 L4.85125,20.1845769 L4.85125,22.4374615 L10.32,22.4374615 L10.32,26.6145 C10.3225,28.8407308 8.53875,30.6506538 6.34875,30.6506538 C4.1575,30.6506538 2.37875,28.8407308 2.37875,26.6145 L2.37875,12.6339231 L10.3225,12.6339231 L10.3225,15.7435385 L10.3225,15.7435385 Z M37.6225,26.6145 C37.6225,28.8407308 35.83875,30.6506538 33.6475,30.6506538 L11.095,30.6506538 C11.995,29.5578462 12.54,28.1515385 12.54,26.6145 L12.54,2.35315385 L37.62125,2.35315385 L37.62125,26.6145 L37.6225,26.6145 Z" id="Shape"></path>
                        <rect id="Rectangle-path" x="27.94" y="6.59238462" width="7.4975" height="2.25161538"></rect>
                        <rect id="Rectangle-path" x="27.94" y="11.1006923" width="7.4975" height="2.25161538"></rect>
                        <rect id="Rectangle-path" x="27.94" y="15.543" width="7.4975" height="2.25034615"></rect>
                        <rect id="Rectangle-path" x="14.52375" y="20.1503077" width="20.91375" height="2.25161538"></rect>
                        <rect id="Rectangle-path" x="15.3625" y="7.43388462" width="9.4075" height="9.43673077"></rect>
                    </g>
                </g>
            </g>
        </g>
    </g>
</svg>