<?xml version="1.0" encoding="UTF-8" standalone="no"?>
<svg width="120px" height="120px" viewBox="0 0 120 120" version="1.1" xmlns="http://www.w3.org/2000/svg" xmlns:xlink="http://www.w3.org/1999/xlink" xmlns:sketch="http://www.bohemiancoding.com/sketch/ns">
    <!-- Generator: Sketch 3.3.2 (12043) - http://www.bohemiancoding.com/sketch -->
    <title>paik_launcher</title>
    <desc>Created with Sketch.</desc>
    <defs></defs>
    <g id="-Launcher" stroke="none" stroke-width="1" fill="none" fill-rule="evenodd" sketch:type="MSPage">
        <g id="paik_launcher" sketch:type="MSArtboardGroup">
            <path d="M51,14 L52.2520325,39.5500726 L73,50 L51,14 Z" id="Shape" fill="#4CAF50" sketch:type="MSShapeGroup"></path>
            <path d="M94,84.0380302 L79.8203245,60.3417845 L75.1371289,53.9963308 L52.6317723,48.8683569 L26.9522498,47.1628474 L27.8368534,53.2354949 L68.5026018,80.7303754 L67.4879094,82.2291565 L26.1456994,54.2949781 L25.0789715,47.0594832 L9,46 L27.1083563,65.1740614 C28.8515458,84.425646 44.2800735,99 64.1056015,99 C71.6247322,99 78.9357208,96.7776694 85.0498929,92.668942 C88.3801653,90.3690882 91.2941537,87.6040956 93.687787,84.4773281 C93.791858,84.3222818 93.895929,84.1930765 94,84.0380302 Z" id="Shape" fill="#4CAF50" sketch:type="MSShapeGroup"></path>
            <path d="M100.802303,50.9457519 L100.802303,48.76785 C100.439539,43.5305146 96.915547,38.9413642 91.0076775,38.9413642 C85.3848369,38.9413642 81.6535509,43.3490227 81.2389635,47.9122457 L81.2389635,56.2349422 L24,28 L27.6794626,53.3570004 L68.1535509,80.9178301 L67.609405,81.6956522 L84.4261036,93 L84.6852207,92.8444356 C94.1429942,86.4662944 100.439539,75.8879138 100.802303,63.3390507 L100.828215,55.1200638 L105,53.1755086 L100.802303,50.9457519 L100.802303,50.9457519 Z" id="Shape" fill="#8BC34A" sketch:type="MSShapeGroup"></path>
        </g>
    </g>
</svg>