<?xml version="1.0" encoding="utf-8"?>
<!-- Generator: Adobe Illustrator 15.0.0, SVG Export Plug-In  -->
<!DOCTYPE svg PUBLIC "-//W3C//DTD SVG 1.1//EN" "http://www.w3.org/Graphics/SVG/1.1/DTD/svg11.dtd" [
	<!ENTITY ns_flows "http://ns.adobe.com/Flows/1.0/">
]>
<svg version="1.1"
	 xmlns="http://www.w3.org/2000/svg" xmlns:xlink="http://www.w3.org/1999/xlink" xmlns:a="http://ns.adobe.com/AdobeSVGViewerExtensions/3.0/"
	 x="0px" y="0px" width="750px" height="160px" viewBox="0 0 750 160" overflow="visible" enable-background="new 0 0 750 160"
	 xml:space="preserve">
<defs>
</defs>
<rect fill-rule="evenodd" clip-rule="evenodd" fill="#336699" width="750" height="160"/>
<rect y="113.998" fill="#8F6A4C" width="377.337" height="44.1"/>
<rect x="0.422" y="151.663" fill="#8E8177" width="376.915" height="8.337"/>
<polygon fill="#85CED2" points="411.843,9.837 415.519,10.211 418.091,7.217 417.724,3.849 423.235,0 402.41,0 411.843,2.351 "/>
<path fill="#85CED2" d="M659.536,84.703l1.471,15.725h-4.777l-6.616-15.725V72.725l-5.513,0.748l-6.246-7.112l-12.863-2.245
	l-8.085-4.867l-11.393-7.112l6.247,16.472l7.331-4.492l5.899,8.234l-4.043,5.615l-9.188,7.486l-12.494,4.118l-15.436-30.695h-4.409
	l10.657,23.957l7.35,12.727l1.47,2.246l1.838-2.246h11.024v4.87l-18.375,29.943l1.471,20.589l-7.717,5.24v3.8h12.861v-6.046
	l8.086-4.116l2.938-5.992V160h50.189c12.729-24.6,19.944-50.049,19.944-79.787c0-1.81-0.034-3.612-0.088-5.409l-6.834-4.7
	L659.536,84.703z"/>
<path fill="#85CED2" d="M411.842,157.698l-4.41-4.118l-11.761-14.973l-3.674-9.732l2.023-5.614l-3.861-1.874l7.352-13.477v-4.864
	l6.98-7.488l4.411,4.87l7.35-4.87l14.333,4.87l12.861,14.971l-4.777,2.994l0.735,4.868l6.981-1.498l4.043,5.238l0.367-3.368
	l6.615,0.376l9.556,8.608l-6.248,21.337V160h90.495l-3.765-7.168l2.939-5.24v-13.851l-9.187-11.979l2.204-9.732l-6.981-3.37
	l-6.983-1.872l-16.169,1.872l-8.453-8.232l-6.615-9.125l4.41-6.226l-1.839-11.23l1.472-4.865l11.025-20.964l9.554-4.302
	l21.868-3.229l0.138,7.58l13.092,7.3l3.308-6.036l5.789,4.071l15.756-2.062l4.088-10.992l-14.332,0.982l-5.927-9.405l-5.098,7.861
	l-3.584-9.266l-9.371-7.439l-3.858,0.562l10.749,10.949l-6.753,5.335l3.997-5.053l-13.368-8.143l-8.131,3.651l-2.343,7.439
	l-6.063,3.369l-8.775,0.09l4.042-13.85l9.188-0.374l-3.308-5.988l0.368-3.744l14.332-11.23l7.168-1.123h7.899l5.513,2.996
	l-0.734-7.608L559.112,0H445.286v1.602l3.308,5.99l-4.043,5.988l-17.272-1.122l-0.367,3.743l8.453-1.123l-2.206,3.368l7.35,2.247
	l-10.289,8.609l-2.206-7.112l-8.819,8.984l-3.308,1.871l-18.375,18.716l2.573,11.979l-6.616-0.375v-7.861l-8.085-1.497l-3.674,4.118
	l-1.839-1.873l-9.922,6.365l-4.777,11.23l11.025,4.117l0.367-3.37l7.717,0.375l-3.307,10.105l7.35,1.498l-3.676,4.728l6.25,9.125
	h-5.515l-2.94-9.125h-3.308l-4.777-4.728h-7.35l-13.597-6.362l-1.471-11.979l-7.717-16.098l-4.777-5.24v-8.61l9.555-22.459
	l-0.585-6.551c-9.347,21.717-14.544,45.707-14.544,70.938c0,29.738,7.216,55.188,19.945,79.787h58.024V157.698z"/>
<path fill="#C8D255" d="M339.446,38.286v8.61l4.777,5.24l7.717,16.098l1.471,11.979l13.597,6.362h7.35l4.777,4.728h3.308l2.94,9.125
	h5.515l-6.25-9.125l3.676-4.728l-7.35-1.498l3.307-10.105l-7.717-0.375l-0.367,3.37l-11.025-4.117l4.777-11.23l9.922-6.365
	l1.839,1.873l3.674-4.118l8.085,1.497v7.861l6.616,0.375l-2.573-11.979l18.375-18.716l3.308-1.871l8.819-8.984l2.206,7.112
	l10.289-8.609l-7.35-2.247l2.206-3.368l-8.453,1.123l0.367-3.743l17.272,1.122l4.043-5.988l-3.308-5.99V0h-22.051l-5.512,3.849
	l0.367,3.368l-2.572,2.994l-3.676-0.374V2.351L402.41,0h-49.679c-1.856,3.609-2.701,5.524-4.315,9.275l0.585,6.551L339.446,38.286z"
	/>
<polygon fill="#C8D255" points="466.967,132.617 457.411,124.009 450.796,123.633 450.429,127.001 446.386,121.763 439.404,123.261 
	438.669,118.393 443.446,115.398 430.585,100.428 416.252,95.558 408.902,100.428 404.491,95.558 397.511,103.046 397.511,107.91 
	390.159,121.387 394.021,123.261 391.997,128.875 395.671,138.607 407.432,153.58 411.842,157.698 411.842,160 460.719,160 
	460.719,153.954 "/>
<path fill="#C8D255" d="M559.209,7.965l-5.513-2.996h-7.899l-7.168,1.123l-14.332,11.23l-0.368,3.744l3.308,5.988l-9.188,0.374
	l-4.042,13.85l8.775-0.09l6.063-3.369l2.343-7.439l8.131-3.651l13.368,8.143l-3.997,5.053l6.753-5.335l-10.749-10.949l3.858-0.562
	l9.371,7.439l3.584,9.266l5.098-7.861l5.927,9.405l14.332-0.982l-4.088,10.992l-15.756,2.062l-5.789-4.071l-3.308,6.036l-13.092-7.3
	l-0.138-7.58l-21.868,3.229l-9.554,4.302l-11.025,20.964l-1.472,4.865l1.839,11.23l-4.41,6.226l6.615,9.125l8.453,8.232
	l16.169-1.872l6.983,1.872l6.981,3.37l-2.204,9.732l9.187,11.979v13.851l-2.939,5.24l3.765,7.168h35.926v-3.8l7.717-5.24
	l-1.471-20.589l18.375-29.943v-4.87h-11.024l-1.838,2.246l-1.47-2.246l-7.35-12.727l-10.657-23.957h4.409l15.436,30.695
	l12.494-4.118l9.188-7.486l4.043-5.615l-5.899-8.234l-7.331,4.492l-6.247-16.472l11.393,7.112l8.085,4.867l12.863,2.245l6.246,7.112
	l5.513-0.748v11.979l6.616,15.725h4.777l-1.471-15.725l14.701-14.6l6.834,4.7C680.258,47.224,673.229,23.01,661.39,0H559.112
	l-0.638,0.357L559.209,7.965z"/>
<polygon fill="#C8D255" points="608.087,149.838 600.001,153.954 600.001,160 611.025,160 611.025,143.846 "/>
<path fill-rule="evenodd" clip-rule="evenodd" fill="#008AAA" d="M128.505,80.017c0.666,1.053,0.88,2.213,0.645,3.482l-2.515,11.152
	l-11.796,10.96l5.35-24.111c0.237-1.246,0.882-2.203,1.934-2.869c1.096-0.687,2.267-0.89,3.512-0.612
	C126.86,78.256,127.817,78.921,128.505,80.017z"/>
<path fill-rule="evenodd" clip-rule="evenodd" fill="#BA4533" d="M122.089,115.9V79.294c0.301-0.924,2.117-1.73,5.448-2.418
	c3.696-0.75,8.122-1.127,13.28-1.127c0.021,0,0.074,0,0.161,0c5.2,0,9.647,0.377,13.344,1.127c2.795,0.581,4.534,1.237,5.222,1.967
	v36.975"/>
<path fill-rule="evenodd" clip-rule="evenodd" fill-opacity="0.149" d="M145.266,123.984c0.387-1.248,1.181-2.17,2.385-2.772
	l11.894-6.866v11.089c-0.128,0.064-0.248,0.139-0.354,0.225l-0.709,0.324l0.033-0.034l-6.189,3.646
	c-1.139,0.707-2.363,0.815-3.675,0.318c-1.289-0.257-2.278-0.966-2.965-2.126C145.039,126.562,144.9,125.293,145.266,123.984z"/>
<polygon fill-rule="evenodd" clip-rule="evenodd" fill-opacity="0.251" points="155.226,85.497 148.198,85.497 152.968,89.688 
	141.076,99.102 129.149,89.688 133.887,85.497 126.795,85.497 126.795,76.375 155.226,76.375 "/>
<rect x="126.829" y="71.831" fill-rule="evenodd" clip-rule="evenodd" fill-opacity="0.251" width="28.46" height="4.835"/>
<path fill-rule="evenodd" clip-rule="evenodd" fill="#E7D1B6" d="M172.213,50.625c0,1.375-0.517,2.579-1.548,3.611
	c-0.967,0.988-2.16,1.483-3.577,1.483c-0.086,0-0.183,0-0.29,0v-4.674c0-0.172,0-0.344,0-0.517c0-0.128,0-0.267,0-0.418
	c-0.043-1.59-0.217-3.106-0.517-4.544c0.28-0.022,0.548-0.033,0.807-0.033c1.417,0,2.61,0.505,3.577,1.515
	C171.696,48.014,172.213,49.207,172.213,50.625z M111.453,47.047c0.967-1.01,2.16-1.515,3.578-1.515c0.064,0,0.107,0,0.129,0v10.186
	h-0.129c-1.418,0-2.611-0.495-3.578-1.483c-0.989-1.032-1.483-2.235-1.483-3.611C109.97,49.207,110.464,48.014,111.453,47.047z"/>
<path fill-rule="evenodd" clip-rule="evenodd" fill="#D9C4AB" d="M134.726,76.283c-0.064-0.021-0.108-0.033-0.129-0.033
	c-0.323-0.043-0.646-0.064-0.968-0.064c-0.752-0.086-1.461-0.161-2.127-0.226c-0.322-0.085-0.634-0.149-0.935-0.193
	c-0.171-0.043-0.312-0.064-0.418-0.064c-0.56-0.065-1.127-0.141-1.709-0.225c-0.343-0.087-0.665-0.173-0.967-0.26
	c-0.644-0.106-1.289-0.247-1.934-0.418c-0.086-0.021-0.151-0.033-0.193-0.033c-0.345-0.063-0.667-0.151-0.968-0.257
	c-0.687-0.172-1.386-0.386-2.095-0.645c-0.215-0.042-0.451-0.118-0.708-0.226c-0.108-0.043-0.184-0.064-0.226-0.064
	c-0.752-0.301-1.451-0.592-2.096-0.87c-0.366-0.129-0.699-0.28-0.999-0.452c-0.774-0.387-1.473-0.784-2.096-1.193
	c-0.386-0.321-0.72-0.602-0.999-0.837c-1.075-1.033-1.623-2.161-1.644-3.386V55.074L134.726,76.283z M141.172,76.507V45.21
	c2.149-0.128,4.125-0.645,5.93-1.548c0.065-0.042,0.141-0.074,0.226-0.097c0.602-0.278,1.149-0.579,1.644-0.901
	c0.344-0.237,0.677-0.474,0.999-0.71c0.795-0.623,1.494-1.311,2.096-2.063c0.343-0.473,0.666-0.956,0.966-1.45
	c0.278-0.473,0.526-0.978,0.742-1.515c0.816-1.568,1.289-3.288,1.417-5.157h1.192c0.538,0.063,1.042,0.117,1.516,0.162
	c4.426,0.729,6.716,3.878,6.866,9.444v6.316h4.061v19.146c0,1.074-0.462,2.106-1.386,3.095c-0.559,0.579-1.268,1.127-2.128,1.644
	c-0.3,0.172-0.612,0.354-0.934,0.548c-0.646,0.344-1.354,0.666-2.127,0.967c-0.236,0.041-0.44,0.139-0.612,0.29
	c-0.129,0-0.248,0.032-0.355,0.096c-0.192,0.043-0.364,0.097-0.515,0.162c-0.515,0.194-1.053,0.387-1.611,0.579
	c-0.302,0.043-0.625,0.13-0.967,0.259c-0.667,0.193-1.375,0.354-2.127,0.484c-0.301,0.084-0.602,0.171-0.904,0.256
	c-0.708,0.172-1.417,0.313-2.126,0.419c-0.301,0.023-0.592,0.044-0.87,0.065c-0.042,0-0.075,0.021-0.096,0.064
	c-0.688,0.128-1.387,0.225-2.096,0.291c-0.322,0.021-0.655,0.064-0.999,0.128c-0.687,0.021-1.375,0.086-2.062,0.194
	c-0.324,0-0.655,0.01-1,0.032c-0.666,0.043-1.364,0.076-2.095,0.096c-0.173,0-0.344,0-0.516,0H141.172z"/>
<path fill-rule="evenodd" clip-rule="evenodd" fill="#E7D1B6" d="M141.172,76.507h-2.126c-0.474-0.02-0.924-0.032-1.355-0.032
	c-0.344-0.042-0.666-0.064-0.966-0.064c-0.731-0.021-1.398-0.063-1.999-0.128l-21.209-21.209v-7.382h4.03l0.16-10.281
	c0-0.517,0.097-0.977,0.29-1.387c0.258-0.495,0.58-0.956,0.967-1.386c0.967-0.945,2.149-1.417,3.545-1.417
	c0.365,0,0.709,0.032,1.033,0.096c0.922,0.17,1.75,0.613,2.48,1.321c0.021,0.044,0.043,0.077,0.066,0.097
	c0.256,0.258,0.471,0.526,0.644,0.806c0.107,0.128,0.203,0.29,0.29,0.483c0.042,0.087,0.344,0.655,0.902,1.708l0.386,0.613
	c0.795,1.312,1.376,2.149,1.741,2.514c1.16,1.16,2.428,2.096,3.803,2.803c1.805,0.903,3.793,1.42,5.963,1.548h0.033
	c0.021,0,0.054,0,0.097,0c0.194,0,0.365,0,0.516,0c0.258,0,0.495,0,0.709,0V76.507z"/>
<path fill-rule="evenodd" clip-rule="evenodd" fill="#4C3A2D" d="M155.193,32.254c1.075-3.955,0.795-7.791-0.838-11.508
	c2.257,1.032,4.384,2.396,6.382,4.094c1.548,1.333,2.889,2.75,4.03,4.254c2.148,2.879,3.459,6.049,3.932,9.509
	c0.064,0.473,0.108,0.956,0.129,1.45v8.122h-4.061v-6.317c-0.15-5.564-2.44-8.713-6.866-9.443c-0.474-0.044-0.978-0.098-1.516-0.161
	H155.193z"/>
<path fill-rule="evenodd" clip-rule="evenodd" fill="#5B4C41" d="M141.172,45.694c-0.214,0-0.451,0-0.709,0c-0.15,0-0.322,0-0.516,0
	c-0.043,0-0.076,0-0.097,0h-0.033c-2.17-0.128-4.158-0.645-5.963-1.546c-1.375-0.709-2.643-1.644-3.803-2.804
	c-0.365-0.365-0.946-1.203-1.741-2.515l-0.386-0.612c-0.558-1.053-0.859-1.622-0.902-1.708c-0.087-0.194-0.183-0.355-0.29-0.483
	c-0.173-0.28-0.388-0.548-0.644-0.807c-0.023-0.02-0.045-0.053-0.066-0.096c-0.73-0.71-1.558-1.15-2.48-1.322
	c-0.324-0.064-0.668-0.096-1.033-0.096c-1.396,0-2.578,0.473-3.545,1.418c-0.387,0.43-0.709,0.891-0.967,1.386
	c-0.193,0.408-0.29,0.87-0.29,1.385l-0.16,10.282h-4.03v-7.123c0.021-1.052,0.097-2.106,0.225-3.159
	c0.796-6.017,3.406-11.26,7.834-15.729c4.534-4.491,9.852-7.112,15.955-7.865c1.181-0.149,2.396-0.225,3.642-0.225
	c0.366,0,0.729,0.011,1.095,0.032c4.083,0.322,7.618,1.977,10.605,4.964c0.538,0.537,1.032,1.096,1.483,1.676
	c1.633,3.717,1.913,7.553,0.838,11.508c-0.129,1.869-0.601,3.587-1.417,5.157c-0.216,0.538-0.463,1.042-0.742,1.514
	c-0.301,0.494-0.624,0.978-0.966,1.451c-0.603,0.752-1.301,1.439-2.096,2.063c-0.322,0.236-0.655,0.472-0.999,0.709
	c-0.495,0.322-1.042,0.624-1.644,0.902c-0.085,0.021-0.161,0.054-0.226,0.097C145.297,45.049,143.321,45.566,141.172,45.694z"/>
<path fill-rule="evenodd" clip-rule="evenodd" fill="#4C3A2D" d="M141.279,104.201c0.429,0,0.785,0.139,1.063,0.418
	c0.301,0.323,0.452,0.7,0.452,1.128c0,0.388-0.151,0.73-0.452,1.031c-0.278,0.301-0.634,0.451-1.063,0.451
	c-0.408,0-0.762-0.15-1.063-0.451c-0.323-0.301-0.483-0.644-0.483-1.031c0-0.428,0.16-0.805,0.483-1.128
	C140.517,104.34,140.871,104.201,141.279,104.201z M142.342,110.743c0.301,0.303,0.452,0.654,0.452,1.065
	c0,0.428-0.151,0.783-0.452,1.061c-0.278,0.325-0.634,0.484-1.063,0.484c-0.408,0-0.762-0.159-1.063-0.484
	c-0.323-0.277-0.483-0.633-0.483-1.061c0-0.411,0.16-0.763,0.483-1.065c0.301-0.279,0.655-0.417,1.063-0.417
	C141.708,110.326,142.063,110.464,142.342,110.743z"/>
<path fill-rule="evenodd" clip-rule="evenodd" fill-opacity="0.149" d="M136.564,123.984c-0.386-1.248-1.182-2.17-2.386-2.772
	l-11.894-6.866v11.089c0.129,0.064,0.248,0.139,0.354,0.225l0.709,0.324l-0.033-0.034l6.19,3.646
	c1.139,0.707,2.364,0.815,3.674,0.318c1.289-0.257,2.278-0.966,2.965-2.126C136.79,126.562,136.93,125.293,136.564,123.984z"/>
<path fill-rule="evenodd" clip-rule="evenodd" fill="#BA4533" d="M160.543,121.147l-4.899-8.252l5.996-3.514l-8.574-24.947
	c-0.452-1.312-0.409-2.526,0.127-3.643c0.602-1.246,1.516-2.106,2.74-2.579c1.289-0.388,2.558-0.258,3.804,0.386
	c1.161,0.472,1.955,1.354,2.385,2.644l10.09,28.816c0.364,1.115,0.333,2.233-0.098,3.351c-0.408,1.097-1.118,1.925-2.126,2.481
	L160.543,121.147z"/>
<path fill-rule="evenodd" clip-rule="evenodd" fill="#E7D1B6" d="M151.326,115.477c0,0.171,0.062,0.385,0.192,0.642l4.094,7.028
	c0.106,0.279,0.235,0.462,0.385,0.546l-3.673,2.16c-1.139,0.709-2.363,0.829-3.675,0.357c-1.289-0.261-2.278-0.97-2.965-2.13
	c-0.646-1.226-0.785-2.504-0.418-3.836c0.387-1.224,1.181-2.148,2.385-2.773L151.326,115.477z"/>
<path fill-rule="evenodd" clip-rule="evenodd" fill="#B9D1E5" d="M155.644,112.896l4.899,8.252l-0.772,0.42
	c-0.216,0.15-0.409,0.281-0.581,0.385l-0.709,0.324l0.033-0.034l-2.516,1.45c-0.15-0.084-0.279-0.267-0.385-0.546l-4.094-7.028
	c-0.129-0.257-0.192-0.471-0.192-0.642L155.644,112.896z"/>
<path fill-rule="evenodd" clip-rule="evenodd" fill="#424240" d="M154.517,117.667c-0.302-0.088-0.537-0.271-0.708-0.548
	c-0.13-0.258-0.173-0.538-0.13-0.838c0.086-0.301,0.257-0.527,0.516-0.678c0.278-0.127,0.569-0.152,0.87-0.065
	c0.279,0.085,0.505,0.248,0.678,0.482c0.128,0.261,0.149,0.538,0.063,0.841c-0.042,0.299-0.193,0.524-0.451,0.675
	C155.075,117.687,154.796,117.731,154.517,117.667z"/>
<path fill-rule="evenodd" clip-rule="evenodd" fill="#BA4533" d="M120.506,121.269l4.9-8.253l-5.996-3.512l8.574-24.95
	c0.451-1.31,0.409-2.523-0.129-3.642c-0.601-1.246-1.516-2.105-2.74-2.58c-1.288-0.385-2.556-0.256-3.802,0.387
	c-1.161,0.474-1.956,1.355-2.387,2.645l-10.088,28.815c-0.366,1.117-0.333,2.235,0.097,3.352c0.408,1.096,1.118,1.926,2.128,2.482
	L120.506,121.269z"/>
<path fill-rule="evenodd" clip-rule="evenodd" fill="#E7D1B6" d="M129.725,115.595c0,0.172-0.064,0.386-0.194,0.646l-4.093,7.026
	c-0.107,0.279-0.236,0.462-0.386,0.548l3.675,2.158c1.138,0.711,2.363,0.829,3.674,0.355c1.289-0.259,2.277-0.966,2.964-2.128
	c0.646-1.224,0.786-2.502,0.419-3.834c-0.386-1.226-1.182-2.15-2.384-2.773L129.725,115.595z"/>
<path fill-rule="evenodd" clip-rule="evenodd" fill="#B9D1E5" d="M125.406,113.016l-4.9,8.253l0.774,0.419
	c0.215,0.15,0.409,0.279,0.58,0.386l0.708,0.323l-0.031-0.032l2.514,1.45c0.15-0.086,0.279-0.269,0.386-0.548l4.093-7.026
	c0.129-0.26,0.194-0.474,0.194-0.646L125.406,113.016z"/>
<path fill-rule="evenodd" clip-rule="evenodd" fill="#E7D1B6" d="M129.725,115.595c0,0.172-0.064,0.386-0.194,0.646l-4.093,7.026
	c-0.107,0.279-0.236,0.462-0.386,0.548l3.675,2.158c1.138,0.711,2.363,0.829,3.674,0.355c1.289-0.259,2.277-0.966,2.964-2.128
	c0.646-1.224,0.786-2.502,0.419-3.834c-0.386-1.226-1.182-2.15-2.384-2.773L129.725,115.595z"/>
<path fill-rule="evenodd" clip-rule="evenodd" fill="#B9D1E5" d="M125.406,113.016l-4.9,8.253l0.774,0.419
	c0.215,0.15,0.409,0.279,0.58,0.386l0.708,0.323l-0.031-0.032l2.514,1.45c0.15-0.086,0.279-0.269,0.386-0.548l4.093-7.026
	c0.129-0.26,0.194-0.474,0.194-0.646L125.406,113.016z"/>
<path fill-rule="evenodd" clip-rule="evenodd" fill="#424240" d="M126.535,117.788c0.301-0.087,0.537-0.27,0.708-0.551
	c0.129-0.256,0.172-0.535,0.129-0.836c-0.086-0.303-0.258-0.527-0.516-0.676c-0.279-0.131-0.57-0.15-0.871-0.067
	c-0.278,0.089-0.504,0.249-0.675,0.483c-0.129,0.26-0.15,0.539-0.065,0.84c0.043,0.299,0.193,0.525,0.452,0.677
	C125.976,117.809,126.255,117.854,126.535,117.788z"/>
<path fill-rule="evenodd" clip-rule="evenodd" fill="#FFFFFF" d="M137.82,89.915l-4.223-13.668h2.611l3.093,3.095L137.82,89.915z
	 M148.618,76.215l-4.191,13.7l-1.579-10.573l3.127-3.095l-0.033-0.032H148.618z"/>
<polygon fill-rule="evenodd" clip-rule="evenodd" fill="#97AEC0" points="144.427,89.915 148.618,76.215 149.134,74.345 
	155.321,74.345 155.321,84.98 148.23,84.98 153.034,89.818 141.108,100.776 "/>
<polygon fill-rule="evenodd" clip-rule="evenodd" fill="#B9D1E5" points="133.597,76.247 137.82,89.915 141.108,100.776 
	129.18,89.818 133.984,84.98 126.892,84.98 126.892,74.345 133.017,74.345 133.597,76.215 "/>
<path fill-rule="evenodd" clip-rule="evenodd" fill="#E7D1B6" d="M129.725,115.595c0,0.172-0.064,0.386-0.194,0.646l-4.093,7.026
	c-0.107,0.279-0.236,0.462-0.386,0.548l3.675,2.158c1.138,0.711,2.363,0.829,3.674,0.355c1.289-0.259,2.277-0.966,2.964-2.128
	c0.646-1.224,0.786-2.502,0.419-3.834c-0.386-1.226-1.182-2.15-2.384-2.773L129.725,115.595z"/>
<path fill-rule="evenodd" clip-rule="evenodd" fill="#B9D1E5" d="M125.406,113.016l-4.9,8.253l0.774,0.419
	c0.215,0.15,0.409,0.279,0.58,0.386l0.708,0.323l-0.031-0.032l2.514,1.45c0.15-0.086,0.279-0.269,0.386-0.548l4.093-7.026
	c0.129-0.26,0.194-0.474,0.194-0.646L125.406,113.016z"/>
<path fill-rule="evenodd" clip-rule="evenodd" fill="#E7D1B6" d="M151.326,115.477c0,0.171,0.062,0.385,0.192,0.642l4.094,7.028
	c0.106,0.279,0.235,0.462,0.385,0.546l-3.673,2.16c-1.139,0.709-2.363,0.829-3.675,0.357c-1.289-0.261-2.278-0.97-2.965-2.13
	c-0.646-1.226-0.785-2.504-0.418-3.836c0.387-1.224,1.181-2.148,2.385-2.773L151.326,115.477z"/>
<path fill-rule="evenodd" clip-rule="evenodd" fill="#97AEC0" d="M155.644,112.896l4.899,8.252l-0.772,0.42
	c-0.216,0.15-0.409,0.281-0.581,0.385l-0.709,0.324l0.033-0.034l-2.516,1.45c-0.15-0.084-0.279-0.267-0.385-0.546l-4.094-7.028
	c-0.129-0.257-0.192-0.471-0.192-0.642L155.644,112.896z"/>
<path fill="#EEF1F1" d="M347.965,87.131c0.148-0.792,0.252-1.597,0.252-2.418c0-9.485-10.297-17.175-22.998-17.175
	c-7.118,0-13.475,2.416-17.695,6.206c-1.599-0.834-3.396-1.314-5.305-1.314c-4.405,0-8.242,2.508-10.299,6.225
	c-9.667,0.14-17.458,7.189-17.458,15.882c0,8.502,7.458,15.426,16.833,15.855c2.4,6.395,9.039,11.003,16.872,11.003
	c4.791,0,9.133-1.73,12.338-4.531c3.761,1.937,8.277,3.068,13.139,3.068c13.085,0,23.693-8.18,23.693-18.27
	C357.338,95.727,353.65,90.468,347.965,87.131z"/>
<polygon fill="#6D8789" points="271.298,25.843 284.183,12.996 295.691,15.889 285.444,29.399 "/>
<path fill="#BCBAB1" d="M360.09,40.125l6.837-10.984l-16.076-4.041l-16.591,16.57c-0.023-0.005-0.047-0.013-0.07-0.019
	l-92.356-23.215c-9.418-2.367-18.236,0.117-19.596,5.521c-0.019,0.076-0.029,0.154-0.047,0.231
	c-7.919-0.961-14.701,1.527-15.877,6.211c-1.358,5.403,5.235,11.763,14.655,14.131l39.86,10.019l11.822,35.752l11.214,2.818
	l-6.233-34.347l35.692,8.973c0.952,0.238,1.899,0.427,2.833,0.568l-0.073,0.125l22.813,5.733l17.721-28.469l6.109,0.14
	L360.09,40.125z"/>
<path fill="#91B4B6" d="M285.166,37.874c-0.506,2.014-1.981,3.379-3.297,3.049l-4.924-1.236c-1.315-0.333-1.971-2.232-1.464-4.248
	l0,0c0.506-2.014,1.981-3.377,3.298-3.047l4.925,1.237C285.019,33.959,285.674,35.86,285.166,37.874L285.166,37.874z"/>
<path fill="#91B4B6" d="M299.052,41.364c-0.506,2.015-1.981,3.38-3.297,3.049l-4.926-1.237c-1.314-0.331-1.969-2.231-1.462-4.245
	l0,0c0.505-2.016,1.981-3.379,3.297-3.049l4.924,1.238C298.903,37.451,299.56,39.349,299.052,41.364L299.052,41.364z"/>
<path fill="#91B4B6" d="M312.695,44.793c-0.506,2.014-1.982,3.379-3.297,3.048l-4.927-1.237c-1.314-0.33-1.969-2.231-1.463-4.245
	l0,0c0.507-2.015,1.981-3.379,3.297-3.049l4.926,1.239C312.546,40.879,313.201,42.779,312.695,44.793L312.695,44.793z"/>
<path fill="#91B4B6" d="M271.038,34.323c-0.507,2.014-1.983,3.38-3.297,3.049l-4.927-1.238c-1.314-0.331-1.97-2.231-1.462-4.246l0,0
	c0.505-2.014,1.981-3.377,3.297-3.047l4.926,1.238C270.889,30.408,271.545,32.308,271.038,34.323L271.038,34.323z"/>
<g>
	<g>
		<g>
			<path fill="#91B4B6" d="M246.142,27.845c0.628-2.501-0.832-5.283-3.245-6.182c0,0,0,0-2.652-0.668
				c-7.15-1.797-13.749-0.059-14.739,3.881c-0.218,0.867-0.218,0.867-0.218,0.867c0.225,0.988,3.899,2.674,8.167,3.747l3.786,0.952
				C241.508,31.516,245.513,30.347,246.142,27.845z"/>
		</g>
	</g>
</g>
<path fill="#6D8789" d="M326.046,64.817c-1.298-0.326-2.573-0.594-3.804-0.805l-2.312,9.204c1.184,0.395,2.434,0.761,3.732,1.087
	c8.569,2.154,16.051,1.777,16.709-0.842S334.616,66.971,326.046,64.817z"/>
<path fill="#91B4B6" d="M324.566,69.563c-0.647,2.581-2.939,4.229-4.281,3.892c-1.34-0.337-1.9-2.702-1.253-5.281
	c0.649-2.581,2.263-4.4,3.604-4.062C323.976,64.448,325.216,66.983,324.566,69.563z"/>
<path fill="#996699" d="M514.485,26.145c-1.166-11.726-10.488-21.049-22.214-22.214c-0.816-0.081-1.645-0.125-2.484-0.125
	c-0.838,0-1.666,0.043-2.482,0.125c-11.727,1.164-21.051,10.488-22.216,22.214c-0.081,0.817-0.124,1.646-0.124,2.483
	c0,5.846,2.025,11.215,5.405,15.455c1.169,1.465,2.498,2.794,3.962,3.962L489.787,63.5l15.454-15.454
	c1.467-1.168,2.797-2.499,3.965-3.965c3.378-4.24,5.403-9.608,5.403-15.453C514.609,27.791,514.566,26.962,514.485,26.145z
	 M489.787,48.624c-11.108,0-20.111-9.004-20.111-20.111s9.003-20.113,20.111-20.113s20.112,9.006,20.112,20.113
	S500.896,48.624,489.787,48.624z"/>
<circle fill="#FFFFFF" cx="489.787" cy="28.511" r="20.112"/>
<path fill="#E03826" d="M507.598,12.402c-0.45-0.121-13.017-2.089-22.219,4.176c-9.204,6.267-7.872,12.656-3.996,19.738
	c3.876,7.084-9.419,7.751-9.419,7.751s6.513,1.15,10.812,0.908c4.298-0.241,8.234-1.516,15.318-7.932
	c7.084-6.418,1.814-14.411,0.24-17.922C496.761,15.611,508.048,12.522,507.598,12.402z M490.572,31.854
	c-2.112,0-3.824-1.712-3.824-3.822c0-2.111,1.712-3.823,3.824-3.823c2.11,0,3.822,1.712,3.822,3.823
	C494.395,30.142,492.683,31.854,490.572,31.854z"/>
<path fill="#996699" d="M442.771,105.859c-1.167-11.725-10.489-21.049-22.214-22.213c-0.816-0.082-1.645-0.125-2.484-0.125
	c-0.838,0-1.667,0.043-2.483,0.125c-11.726,1.164-21.05,10.488-22.215,22.213c-0.081,0.818-0.124,1.645-0.124,2.484
	c0,5.846,2.025,11.213,5.405,15.455c1.168,1.465,2.498,2.793,3.962,3.963l15.455,15.453l15.453-15.451
	c1.467-1.17,2.797-2.5,3.965-3.967c3.378-4.24,5.403-9.609,5.403-15.453C442.894,107.504,442.851,106.678,442.771,105.859z
	 M418.072,128.338c-11.108,0-20.111-9.006-20.111-20.111c0-11.107,9.003-20.111,20.111-20.111c11.107,0,20.112,9.004,20.112,20.111
	C438.185,119.332,429.18,128.338,418.072,128.338z"/>
<circle fill="#FFFFFF" cx="418.072" cy="108.227" r="20.111"/>
<path fill="#FF9933" d="M415.283,129.701v-5.055c-3.526-0.104-6.948-1.102-8.949-2.209l1.579-6.158
	c2.211,1.213,5.317,2.316,8.739,2.316c3,0,5.105-1.211,5.105-3.264c0-2-1.737-3.262-5.633-4.58
	c-5.632-1.895-9.475-4.525-9.475-9.631c0-4.686,3.264-8.318,8.896-9.369V86.75h5.158v4.633c3.526,0.104,5.896,0.895,7.685,1.734
	l-1.58,5.949c-1.315-0.631-3.789-1.842-7.579-1.842c-3.422,0-4.527,1.527-4.527,3.002c0,1.684,1.844,2.842,6.316,4.473
	c6.317,2.213,8.792,5.105,8.792,9.896c0,4.684-3.265,8.633-9.369,9.686v5.42H415.283z"/>
<path fill="#996699" d="M614.336,102.74c-1.166-11.725-10.489-21.049-22.214-22.214c-0.815-0.079-1.646-0.123-2.484-0.123
	s-1.666,0.043-2.483,0.123c-11.726,1.166-21.05,10.49-22.215,22.214c-0.081,0.816-0.124,1.646-0.124,2.484
	c0,5.846,2.025,11.215,5.405,15.455c1.169,1.465,2.496,2.793,3.962,3.961l15.455,15.455l15.454-15.453
	c1.467-1.168,2.796-2.498,3.964-3.965c3.379-4.242,5.404-9.609,5.404-15.453C614.46,104.387,614.417,103.557,614.336,102.74z
	 M589.638,125.221c-11.108,0-20.112-9.006-20.112-20.113s9.004-20.111,20.112-20.111s20.111,9.004,20.111,20.111
	S600.746,125.221,589.638,125.221z"/>
<circle fill="#FFFFFF" cx="589.638" cy="105.108" r="20.112"/>
<path fill="none" d="M576.517,100.008c0,1.699,0.805,3.141,2.475,3.627c-0.632-1.99-1.099-4.176-1.364-6.492
	C576.882,97.84,576.517,98.865,576.517,100.008z"/>
<path fill="none" d="M602.637,100.008c0-1.119-0.313-2.125-0.994-2.82c-0.267,2.299-0.73,4.467-1.358,6.443
	C601.913,103.139,602.637,101.703,602.637,100.008z"/>
<path fill="#FFC517" d="M594.242,115.316v-2.146c2.327-1.705,4.298-4.658,5.656-8.404c2.812-0.371,4.959-2.361,4.959-4.758
	c0-1.826-1.245-3.416-3.078-4.234c0.069-0.873,0.11-1.764,0.122-2.666h1.754l0.49-4.893h-2.484h-24.049h-2.483l0.489,4.893h1.754
	c0.013,0.902,0.054,1.793,0.122,2.666c-1.832,0.818-3.077,2.408-3.077,4.234c0,2.396,2.147,4.389,4.958,4.758
	c1.36,3.746,3.332,6.699,5.656,8.404v2.146h2.062l-0.125,5.582h-3.526l-0.487,4.322H596.2l-0.367-4.322h-3.526l-0.125-5.582H594.242
	z M602.637,100.008c0,1.695-0.724,3.131-2.353,3.623c0.628-1.977,1.092-4.145,1.358-6.443
	C602.323,97.883,602.637,98.889,602.637,100.008z M576.517,100.008c0-1.143,0.365-2.168,1.11-2.865
	c0.266,2.316,0.732,4.502,1.364,6.492C577.321,103.148,576.517,101.707,576.517,100.008z"/>
<path fill="none" stroke="#6D8789" stroke-miterlimit="10" d="M356.715,59.615c0,0,87.898,8.545,98.029-4.41"/>
<path fill="none" stroke="#6D8789" stroke-miterlimit="10" d="M362.225,67.326c0,0,87.899,8.545,98.029-4.41"/>
</svg>
