<?xml version="1.0" encoding="utf-8"?>
<!-- Generator: Adobe Illustrator 15.0.0, SVG Export Plug-In  -->
<!DOCTYPE svg PUBLIC "-//W3C//DTD SVG 1.1//EN" "http://www.w3.org/Graphics/SVG/1.1/DTD/svg11.dtd" [
	<!ENTITY ns_flows "http://ns.adobe.com/Flows/1.0/">
]>
<svg version="1.1"
	 xmlns="http://www.w3.org/2000/svg" xmlns:xlink="http://www.w3.org/1999/xlink" xmlns:a="http://ns.adobe.com/AdobeSVGViewerExtensions/3.0/"
	 x="0px" y="0px" width="750px" height="160px" viewBox="0 0 750 160" overflow="visible" enable-background="new 0 0 750 160"
	 xml:space="preserve">
<defs>
</defs>
<rect fill-rule="evenodd" clip-rule="evenodd" fill="#D6A07A" width="750" height="160"/>
<path fill="#016699" d="M333.077,27.908c0,0,161.62-23.378,173.499,42.471c0.018-0.162,0.036-0.322,0.055-0.483
	c-8.21-72.742-173.873-47.453-173.873-47.453v9.492c0.049-0.007,0.16-0.023,0.319-0.045V27.908z"/>
<path fill="#016699" d="M506.951,72.867c8.012-67.172,165.557-46.117,173.552-45.004v-5.42c0,0-165.663-25.289-173.872,47.453
	c0.07,0.623,0.13,1.252,0.178,1.89C506.859,72.144,506.907,72.504,506.951,72.867z"/>
<path fill="#016699" d="M506.809,71.786c-0.048-0.638-0.107-1.267-0.178-1.89c-0.019,0.161-0.037,0.321-0.055,0.483
	C506.66,70.843,506.739,71.312,506.809,71.786z"/>
<path fill="#B5AC8F" d="M506.321,74.986c0.019-1.577,0.103-3.114,0.255-4.607C494.697,4.529,333.077,27.908,333.077,27.908v3.982
	C341.347,30.741,495.58,10.211,506.321,74.986z"/>
<path fill="#B5AC8F" d="M506.951,72.867c-0.044-0.363-0.092-0.724-0.143-1.082c0.037,0.513,0.064,1.031,0.087,1.553
	C506.912,73.181,506.932,73.024,506.951,72.867z"/>
<path fill="#B5AC8F" d="M506.597,76.901c0.024-0.2,0.052-0.397,0.079-0.596c0.042-1.007,0.115-1.996,0.22-2.966
	c-0.022-0.522-0.05-1.041-0.087-1.553c-0.069-0.474-0.148-0.942-0.232-1.407c-0.152,1.494-0.236,3.031-0.255,4.607
	C506.426,75.616,506.52,76.254,506.597,76.901z"/>
<path fill="#B5AC8F" d="M680.822,160V27.908c0,0-0.111-0.016-0.319-0.045V160H680.822z"/>
<path fill="#B5AC8F" d="M506.951,72.867c0.041,0.343,0.074,0.691,0.107,1.039c12.605-65.23,173.412-41.967,173.412-41.967V160h0.032
	V27.863C672.508,26.75,514.963,5.695,506.951,72.867z"/>
<path fill="#B5AC8F" d="M506.934,74.629c0.041-0.241,0.079-0.485,0.125-0.723c-0.033-0.348-0.066-0.696-0.107-1.039
	c-0.02,0.157-0.039,0.313-0.056,0.472C506.914,73.766,506.925,74.196,506.934,74.629z"/>
<path fill="#B5AC8F" d="M506.896,73.339c-0.104,0.97-0.178,1.959-0.22,2.966c0.075-0.565,0.16-1.124,0.258-1.676
	C506.925,74.196,506.914,73.766,506.896,73.339z"/>
<path fill="#EFEAE2" d="M332.758,31.935c-0.021,0.003-0.032,0.004-0.032,0.004V160h0.032V31.935z"/>
<path fill="#EFEAE2" d="M333.077,160V31.89c-0.159,0.022-0.271,0.038-0.319,0.045V160H333.077z"/>
<path fill="#EFEAE2" d="M506.276,82.338c0-0.606,0.012-1.205,0.034-1.798c0-1.657,0-3.3,0-4.911c0-0.217,0.009-0.428,0.011-0.643
	C495.58,10.211,341.347,30.741,333.077,31.89V160h173.199C506.276,132.479,506.276,104.933,506.276,82.338z"/>
<path fill="#EFEAE2" d="M506.321,74.986c-0.002,0.215-0.011,0.426-0.011,0.643c0,1.611,0,3.254,0,4.911
	c0.047-1.242,0.145-2.453,0.286-3.639C506.52,76.254,506.426,75.616,506.321,74.986z"/>
<path fill="#E4DCCF" d="M506.676,76.305c-0.027,0.198-0.055,0.396-0.079,0.596c0.017,0.143,0.035,0.285,0.051,0.428
	C506.654,76.986,506.661,76.644,506.676,76.305z"/>
<path fill="#E4DCCF" d="M507.059,73.906c0.136,1.429,0.213,2.893,0.213,4.401c0,23.698,0,52.843,0,81.692h173.199V31.939
	C680.471,31.939,519.664,8.676,507.059,73.906z"/>
<path fill="#E4DCCF" d="M506.95,75.629c0,24.505,0,54.529,0,84.371h0.321c0-28.85,0-57.994,0-81.692
	c0-1.508-0.077-2.972-0.213-4.401c-0.046,0.238-0.084,0.482-0.125,0.723C506.939,74.962,506.95,75.292,506.95,75.629z"/>
<path fill="#E4DCCF" d="M506.917,82.338c0,22.595,0,50.142,0,77.662h0.033c0-29.842,0-59.866,0-84.371c0-0.336-0.011-0.667-0.017-1
	c-0.098,0.552-0.183,1.111-0.258,1.676c-0.015,0.338-0.021,0.681-0.028,1.023C506.824,78.948,506.917,80.616,506.917,82.338z"/>
<path fill="#E4DCCF" d="M506.276,82.338c0,22.595,0,50.142,0,77.662h0.034c0-27.88,0-55.911,0-79.46
	C506.288,81.133,506.276,81.732,506.276,82.338z"/>
<path fill="#E4DCCF" d="M506.63,78.308c0-0.33,0.011-0.653,0.018-0.979c-0.016-0.143-0.034-0.285-0.051-0.428
	c-0.142,1.186-0.239,2.397-0.286,3.639c0,23.549,0,51.58,0,79.46h0.319C506.63,131.15,506.63,102.006,506.63,78.308z"/>
<path fill="#E4DCCF" d="M506.647,77.329c-0.007,0.326-0.018,0.649-0.018,0.979c0,23.698,0,52.843,0,81.692h0.287
	c0-27.521,0-55.067,0-77.662C506.917,80.616,506.824,78.948,506.647,77.329z"/>
<path fill="#F8F7F0" d="M300.426,0c1.232,5.488,1.903,11.188,1.903,17.048c0,42.838-34.728,77.565-77.565,77.565
	s-77.565-34.727-77.565-77.565c0-5.86,0.671-11.56,1.903-17.048h-16.961c-1.011,5.529-1.543,11.225-1.543,17.046
	c0,52.006,42.16,94.166,94.166,94.166s94.166-42.16,94.166-94.166c0-5.821-0.532-11.517-1.543-17.046H300.426z"/>
<path fill="#F4F2E6" d="M299.466,17.046c0,41.257-33.445,74.703-74.702,74.703s-74.702-33.446-74.702-74.703
	c0-5.867,0.698-11.568,1.978-17.046h-2.938c-1.232,5.488-1.903,11.188-1.903,17.048c0,42.838,34.728,77.565,77.565,77.565
	s77.565-34.727,77.565-77.565c0-5.86-0.671-11.56-1.903-17.048h-2.938C298.768,5.478,299.466,11.179,299.466,17.046z"/>
<path fill="#F6F5EB" d="M224.764,91.749c41.257,0,74.702-33.446,74.702-74.703c0-5.867-0.698-11.568-1.978-17.046H152.039
	c-1.279,5.478-1.978,11.179-1.978,17.046C150.062,58.303,183.507,91.749,224.764,91.749z"/>
<path fill="#F8F7F0" d="M105.392,82.553c-10.368,3.008-18.126,10.66-21.668,20.037l-8.887-2.365
	c-1.783-0.476-3.763,1.146-4.423,3.621l-0.928,3.484c-0.659,2.475,0.253,4.867,2.037,5.342l10.1,2.688
	c0.095,2.665,0.512,5.36,1.289,8.038c5.071,17.485,23.357,27.55,40.845,22.478c17.486-5.071,27.549-23.357,22.479-40.844
	C141.163,87.547,122.878,77.481,105.392,82.553z M122.004,139.838c-14.15,4.104-28.948-4.041-33.053-18.191
	c-4.104-14.151,4.041-28.949,18.19-33.054c14.151-4.104,28.951,4.041,33.055,18.191S136.155,135.733,122.004,139.838z"/>
<circle fill="#390632" cx="114.573" cy="114.215" r="26.678"/>
<path fill="#C8C7C3" d="M207.451,35.611c0.045,0.043,0.093,0.081,0.135,0.129l17.308,19.867c0.745,0.856,0.73,2.09-0.034,2.755
	c-0.764,0.666-1.985,0.51-2.731-0.346l-17.307-19.868c-0.043-0.049-0.074-0.104-0.111-0.156l-2.542,2.214
	c0.046,0.045,0.095,0.083,0.139,0.133l17.308,19.868c0.745,0.855,0.728,2.089-0.034,2.754c-0.763,0.665-1.987,0.509-2.732-0.347
	l-17.306-19.868c-0.042-0.05-0.074-0.104-0.112-0.155l-3.046,2.652c0.047,0.044,0.098,0.083,0.14,0.132l17.306,19.868
	c0.746,0.856,0.732,2.09-0.032,2.754c-0.764,0.666-1.986,0.509-2.732-0.346l-17.307-19.867c-0.041-0.047-0.069-0.1-0.106-0.148
	c-1.859,1.736-2.387,4.218-1.155,5.632l18.795,21.575c0.262,0.303,0.589,0.527,0.953,0.686c3.406,2.34,8.491,2.137,12.997-0.463
	l55.838,64.102c1.12,1.285,3.178,1.326,4.595,0.094c1.416-1.234,1.655-3.279,0.536-4.564l-55.838-64.1
	c3.194-4.107,4.092-9.116,2.242-12.813c-0.106-0.383-0.286-0.735-0.55-1.036L213.27,35.172
	C212.021,33.739,209.438,33.944,207.451,35.611z"/>
<g>
	<g>
		<g>
			<path fill="#FFCC66" d="M267.019,29.587c-0.261,0.469,1.069,1.505,0.935,1.994c-0.143,0.516,0.085,0.768,0.079,1.275
				c-0.005,0.534-0.459,0.809-0.317,1.297c0.148,0.508,0.179,0.777,0.482,1.194c0.303,0.417-0.183,1.631,0.27,1.916
				c0.394,0.248,0.979,0.426,1.416,0.528c0.44,0.104,0.996-0.283,1.454-0.319c0.444-0.034,0.624-0.878,1.061-1.036
				c0.418-0.151,1.414,0.871,1.802,0.614c0.371-0.245,0.148-1.266,0.473-1.601c0.308-0.319,1.212-0.2,1.461-0.595
				c0.239-0.379-1.216-1.49-1.065-1.888c0.159-0.418,0.761-0.477,0.824-0.898c0.067-0.441-0.14-0.682-0.173-1.108
				c-0.034-0.444,1.07-1.014,0.931-1.419c-0.144-0.418-0.172-0.951-0.422-1.305c0.029-0.025,0.196-0.525,0.229-0.552
				c0.276,0.25,0.379,0.691,0.702,0.895c0.418,0.263,0.821,0.21,1.271,0.37c0.46,0.164,0.513,2.301,0.991,2.36
				c0.48,0.06,1.225-0.1,1.709-0.142c0.479-0.042,0.727-1.712,1.195-1.85c0.461-0.135,0.499-0.926,0.935-1.149
				c0.427-0.218,1.138,0.269,1.526-0.031c0.378-0.292,1.086-0.208,1.417-0.573c0.319-0.353,1.465-0.232,1.729-0.65
				s-0.1-1.301,0.081-1.741c0.187-0.456-1.211-1.321-1.111-1.789c0.102-0.48,2.603-0.68,2.616-1.159
				c0.013-0.489-2.031-0.889-2.108-1.363c-0.079-0.481,0.023-0.88-0.146-1.331c-0.172-0.454,0.803-1.521,0.542-1.928
				c-0.261-0.406-1.26-0.335-1.606-0.679c-0.338-0.336-1.406,0.462-1.824,0.199c-0.273-0.172,0.845-1.571,0.557-1.699
				c0.151-0.528-0.574-0.914-0.541-1.423c0.037-0.551,1.145-1.284,1.045-1.78c-0.11-0.541-0.571-1.303-0.842-1.736
				c-0.282-0.452-2.103,0.746-2.558,0.459c-0.42-0.264-0.333-0.518-0.818-0.588c-0.469-0.068-0.668-0.338-1.164-0.239
				c-0.46,0.091-0.511,0.663-0.968,0.887c-0.423,0.207-1.802-1.189-2.2-0.877c-0.373,0.292-0.837,0.691-1.172,1.068
				c-0.316,0.355-1.267,0.469-1.534,0.894c-0.106,0.17,0.751,0.02,0.658,0.191c-0.479-0.047-0.618,1.941-1.114,2.006
				c-0.474,0.063-1.049-0.667-1.525-0.507c-0.453,0.153-1.475-0.749-1.918-0.512c-0.422,0.226-0.877,0.714-1.281,1.012
				c-0.386,0.285,0.471,2.065,0.11,2.413c-0.346,0.333-2.146-0.636-2.46-0.247c-0.302,0.375-0.717,0.837-0.983,1.26
				c-0.257,0.408,0.823,1.595,0.621,2.014c-0.21,0.435-0.19,0.893-0.342,1.333c-0.156,0.457-0.094,0.877-0.188,1.332
				c-0.098,0.475-2.221,0.704-2.251,1.167c-0.032,0.484,1.718,1.006,1.759,1.466c0.044,0.484,0.931,0.647,1.054,1.092
				c0.13,0.467-0.431,0.987-0.214,1.397c0.224,0.424-0.589,1.606-0.272,1.954c0.316,0.348,0.646,1.1,1.053,1.355
				C266.894,30.822,267.01,29.583,267.019,29.587z"/>
		</g>
		<g>
			<path fill="#FFCC66" d="M257.948,35.794c0.254-0.403,0.601-0.742,0.749-1.164c0.159-0.45,0.385-0.904,0.426-1.348
				c0.045-0.477-0.371-0.913-0.458-1.349c-0.094-0.467-0.192-0.848-0.433-1.228c-0.248-0.389-0.413-0.826-0.812-1.076
				c-0.398-0.251-0.884-0.037-1.343-0.091c-0.446-0.054-0.791-0.076-1.253,0.042c-0.431,0.109-1.123-0.319-1.533-0.073
				c-0.383,0.229-0.41,0.978-0.748,1.316c-0.316,0.316-1.068,0.331-1.323,0.734c-0.254,0.404,0.103,1.105-0.046,1.527
				c-0.159,0.45-0.409,0.826-0.45,1.27c-0.045,0.477-0.217,0.953-0.129,1.389c0.094,0.467,0.243,0.957,0.484,1.336
				c0.247,0.389,0.478,0.98,0.876,1.231c0.398,0.25,1.024,0.254,1.482,0.309c0.446,0.053,0.966-0.043,1.429-0.161
				c0.43-0.11,0.74-0.562,1.15-0.809c0.383-0.229,0.707-0.5,1.044-0.837C257.378,36.497,257.694,36.197,257.948,35.794z"/>
		</g>
	</g>
</g>
<rect x="355.854" y="53.943" fill="#CC6666" width="120.108" height="76.5"/>
<rect x="513.28" y="98.996" fill="#663333" width="85.683" height="48.113"/>
<rect x="589.353" y="42.496" fill="#994D4D" width="79.5" height="48.113"/>
<rect x="606.963" y="98.996" fill="#E0A3A3" width="61.89" height="48.113"/>
<rect x="548.631" y="76.808" fill="#6C6B65" width="37" height="2.75"/>
<rect x="540.634" y="83.186" fill="#91908B" width="44.997" height="1"/>
<rect x="536.297" y="86.188" fill="#91908B" width="49.334" height="1"/>
<rect x="536.297" y="89.191" fill="#91908B" width="49.334" height="1"/>
<rect x="392.438" y="137.665" fill="#6C6B65" width="46.942" height="2.75"/>
<rect x="393.576" y="146.332" fill="#91908B" width="44.997" height="1"/>
<rect x="386.214" y="142.829" fill="#91908B" width="59.722" height="1"/>
<path fill="#DBD6E3" d="M434.827,72.045c-13.691,0-24.79,3.215-24.79,18.576c0,15.36,11.099,37.051,24.79,37.051
	c13.693,0,24.792-21.69,24.792-37.051C459.619,75.26,448.521,72.045,434.827,72.045z M443.358,82.685
	c3.891,0,7.045,3.266,7.045,7.293c0,4.028-3.154-2.11-7.045-2.11c-3.893,0-7.047,6.139-7.047,2.11
	C436.312,85.95,439.466,82.685,443.358,82.685z M419.252,89.978c0-4.027,3.155-7.293,7.046-7.293s7.046,3.266,7.046,7.293
	c0,4.028-3.155-2.11-7.046-2.11S419.252,94.006,419.252,89.978z M434.829,109.995c-8.109,0-14.684,9.804-14.684,3.371
	c0-6.434,6.574-11.648,14.684-11.648c8.11,0,14.685,5.215,14.685,11.648C449.514,119.799,442.939,109.995,434.829,109.995z
	 M452.083,100.656c-0.928,1.648-3.393,1.891-4.933,0.486c-1.539-1.406,2.323-6.455,2.323-6.455S453.011,99.009,452.083,100.656z"/>
<path fill="#493074" d="M394.318,56.715c-13.691,0-24.791,3.215-24.791,18.576c0,15.361,11.1,37.052,24.791,37.052
	c13.692,0,24.791-21.69,24.791-37.052C419.109,59.931,408.011,56.715,394.318,56.715z M378.742,76.133
	c0-4.028,3.154-7.293,7.047-7.293c3.891,0,7.045,3.265,7.045,7.293c0,4.028-3.154-2.11-7.045-2.11
	C381.896,74.022,378.742,80.161,378.742,76.133z M394.318,102.205c-8.11,0-14.684-5.216-14.684-11.649
	c0-6.433,6.573,3.371,14.684,3.371c8.109,0,14.685-9.804,14.685-3.371C409.003,96.989,402.428,102.205,394.318,102.205z
	 M402.849,74.022c-3.892,0-7.047,6.139-7.047,2.11c0-4.028,3.155-7.293,7.047-7.293s7.045,3.265,7.045,7.293
	C409.894,80.161,406.74,74.022,402.849,74.022z"/>
<polygon fill="#493074" points="633.343,111.006 635.568,108.409 640.267,108.409 642.368,111.006 640.019,116.692 635.444,116.692 
	"/>
<polygon fill="#493074" points="635.259,117.805 640.575,117.805 643.665,139.317 637.917,145.993 632.044,139.069 "/>
<polygon fill="#DBD6E3" points="641.192,108.409 646.139,114.096 653.186,100.991 "/>
<polygon fill="#DBD6E3" points="622.629,100.991 634.622,108.409 629.676,114.096 "/>
<path fill="#DBD6E3" d="M547.14,106.585v29.878c-1.18-0.901-2.837-1.463-4.675-1.463c-3.577,0-6.478,2.126-6.478,4.75
	c0,2.623,2.9,4.75,6.478,4.75c3.379,0,6.153-1.897,6.451-4.318h0.027v-24.2l22.951-4.127v20.354
	c-1.184-0.939-2.877-1.527-4.758-1.527c-3.579,0-6.479,2.126-6.479,4.75c0,2.623,2.899,4.751,6.479,4.751
	c3.362,0,6.127-1.881,6.445-4.286h0.031v-24.35v-9.408v-0.532L547.14,106.585z"/>
<path fill="#493074" d="M610.848,51.32c-4.12-2.04-14.944,0.031-14.944,0.031s4.016,0.95,6.139,5.672
	c2.124,4.723,6.522,6.175,8.806,5.257C613.134,61.361,614.997,53.375,610.848,51.32z"/>
<path fill="#493074" d="M639.389,67.142c-4.714-2.342-9.216-4.309-13.097-5.769l-3.151,6.343c3.507,2.211,7.793,4.612,12.507,6.954
	c13.119,6.52,24.593,10.119,25.625,8.041C662.306,80.631,652.508,73.661,639.389,67.142z"/>
<path fill="#493074" d="M620.625,66.072c0.583,0.396,1.195,0.8,1.836,1.211l3.076-6.191c-0.715-0.262-1.407-0.506-2.073-0.732
	L620.625,66.072z"/>
<path fill="#493074" d="M613.763,59.102c-0.539,1.088,1.884,3.513,6.195,6.513l2.738-5.508
	C617.701,58.481,614.304,58.014,613.763,59.102z"/>
</svg>
