<?xml version="1.0" encoding="utf-8"?>
<!-- Generator: Adobe Illustrator 15.0.0, SVG Export Plug-In  -->
<!DOCTYPE svg PUBLIC "-//W3C//DTD SVG 1.1//EN" "http://www.w3.org/Graphics/SVG/1.1/DTD/svg11.dtd" [
	<!ENTITY ns_flows "http://ns.adobe.com/Flows/1.0/">
]>
<svg version="1.1"
	 xmlns="http://www.w3.org/2000/svg" xmlns:xlink="http://www.w3.org/1999/xlink" xmlns:a="http://ns.adobe.com/AdobeSVGViewerExtensions/3.0/"
	 x="0px" y="0px" width="750px" height="160px" viewBox="0 0 750 160" overflow="visible" enable-background="new 0 0 750 160"
	 xml:space="preserve">
<defs>
</defs>
<rect fill-rule="evenodd" clip-rule="evenodd" fill="#CCCCBB" width="750" height="160"/>
<path fill="none" d="M658.042,129.788c0-1.033-0.715-1.871-1.596-1.871h-12.319c-0.882,0-1.596,0.838-1.596,1.871v1.157h15.511
	V129.788z"/>
<path fill="none" d="M666.059,138.903h-31.544c-0.277,0-0.502,0.225-0.502,0.502s0.225,0.502,0.502,0.502h31.544
	c0.277,0,0.502-0.225,0.502-0.502S666.336,138.903,666.059,138.903z"/>
<path fill="#EEF1F1" d="M666.876,130.945h-7.578v-3.147c0-1.033-0.715-1.871-1.596-1.871H642.87c-0.881,0-1.596,0.838-1.596,1.871
	v3.147h-7.577c-0.855,0-1.549,0.694-1.549,1.549v22.712c0,0.855,0.693,1.549,1.549,1.549h33.179c0.855,0,1.549-0.693,1.549-1.549
	v-22.712C668.425,131.64,667.731,130.945,666.876,130.945z M642.531,129.788c0-1.033,0.714-1.871,1.596-1.871h12.319
	c0.881,0,1.596,0.838,1.596,1.871v1.157h-15.511V129.788z M666.059,139.907h-31.544c-0.277,0-0.502-0.225-0.502-0.502
	s0.225-0.502,0.502-0.502h31.544c0.277,0,0.502,0.225,0.502,0.502S666.336,139.907,666.059,139.907z"/>
<path fill="#EEF1F1" d="M296.494,31.671v25.284l15.944-19.621C308.087,33.795,302.54,31.671,296.494,31.671z M302.233,45.583v1.659
	h-1.323V45.68c-1.013-0.033-2.028-0.322-2.608-0.709l0.434-1.515c0.629,0.371,1.531,0.709,2.514,0.709
	c1.015,0,1.708-0.5,1.708-1.272c0-0.726-0.564-1.192-1.755-1.627c-1.692-0.613-2.787-1.385-2.787-2.883
	c0-1.385,0.965-2.449,2.593-2.739v-1.579h1.32v1.499c1.016,0.032,1.708,0.273,2.224,0.531l-0.436,1.482
	c-0.386-0.177-1.096-0.548-2.189-0.548c-1.13,0-1.531,0.58-1.531,1.127c0,0.66,0.58,1.031,1.948,1.578
	c1.806,0.677,2.61,1.546,2.61,2.98C304.954,44.085,304.003,45.293,302.233,45.583z"/>
<path fill="#EEF1F1" d="M310.927,42.371l-15.943,19.621V36.708c-13.963,0-25.283,11.32-25.283,25.284
	c0,13.963,11.32,25.283,25.283,25.283c13.964,0,25.284-11.32,25.284-25.283C320.268,54.073,316.625,47.007,310.927,42.371z"/>
<path fill="#F2F1EF" d="M415.01,13.648c0.326,0.208,1.083,0.535,1.879,0.535c1.476,0,1.933-0.94,1.918-1.645
	c-0.012-1.188-1.082-1.697-2.192-1.697h-0.64V9.979h0.64c0.835,0,1.894-0.432,1.894-1.436c0-0.679-0.431-1.28-1.488-1.28
	c-0.68,0-1.332,0.301-1.697,0.562l-0.301-0.836c0.443-0.326,1.307-0.652,2.221-0.652c1.67,0,2.428,0.992,2.428,2.024
	c0,0.875-0.522,1.619-1.567,1.997v0.025c1.045,0.209,1.894,0.993,1.894,2.18c0,1.358-1.059,2.546-3.095,2.546
	c-0.952,0-1.788-0.3-2.206-0.574L415.01,13.648z"/>
<path fill="#F2F1EF" d="M426.501,7.447h-3.237l-0.326,2.18c0.195-0.026,0.378-0.052,0.691-0.052c0.652,0,1.305,0.144,1.827,0.457
	c0.667,0.378,1.214,1.11,1.214,2.18c0,1.657-1.318,2.897-3.159,2.897c-0.927,0-1.709-0.261-2.114-0.522l0.287-0.875
	c0.354,0.209,1.044,0.47,1.814,0.47c1.084,0,2.01-0.705,2.01-1.841c-0.012-1.096-0.744-1.879-2.439-1.879
	c-0.484,0-0.863,0.052-1.176,0.091l0.548-4.073h4.061V7.447z"/>
<path fill="#F2F1EF" d="M428.803,14.157c0.247,0.025,0.535,0,0.926-0.04c0.666-0.091,1.293-0.366,1.775-0.823
	c0.562-0.509,0.967-1.253,1.123-2.259h-0.039c-0.471,0.575-1.148,0.914-1.996,0.914c-1.527,0-2.507-1.149-2.507-2.598
	c0-1.606,1.161-3.016,2.897-3.016s2.807,1.409,2.807,3.577c0,1.867-0.627,3.173-1.462,3.982c-0.653,0.64-1.554,1.031-2.468,1.135
	c-0.417,0.066-0.783,0.079-1.057,0.066V14.157z M429.221,9.274c0,1.058,0.639,1.802,1.631,1.802c0.771,0,1.371-0.378,1.671-0.888
	c0.065-0.104,0.104-0.235,0.104-0.418c0-1.449-0.535-2.559-1.736-2.559C429.912,7.211,429.221,8.074,429.221,9.274z"/>
<path fill="#F2F1EF" d="M434.459,16.572c0.287-0.771,0.639-2.167,0.783-3.121l1.279-0.129c-0.301,1.108-0.875,2.558-1.24,3.171
	L434.459,16.572z"/>
<path fill="#F2F1EF" d="M443.86,14.966v-2.311h-3.942v-0.757l3.786-5.418h1.239v5.274h1.188v0.9h-1.188v2.311H443.86z
	 M443.86,11.755V8.922c0-0.444,0.013-0.888,0.039-1.332h-0.039c-0.261,0.497-0.47,0.862-0.705,1.253l-2.075,2.885v0.027H443.86z"/>
<path fill="#F2F1EF" d="M451.854,7.291c-0.234-0.014-0.535,0-0.861,0.052c-1.801,0.3-2.755,1.619-2.95,3.016h0.039
	c0.404-0.536,1.11-0.979,2.05-0.979c1.5,0,2.559,1.083,2.559,2.742c0,1.553-1.059,2.989-2.82,2.989
	c-1.814,0-3.002-1.409-3.002-3.616c0-1.671,0.6-2.989,1.436-3.824c0.705-0.692,1.645-1.123,2.715-1.253
	c0.34-0.052,0.627-0.066,0.836-0.066V7.291z M451.527,12.185c0-1.214-0.691-1.945-1.75-1.945c-0.691,0-1.33,0.43-1.645,1.044
	c-0.078,0.131-0.131,0.3-0.131,0.509c0.027,1.397,0.666,2.428,1.867,2.428C450.861,14.222,451.527,13.399,451.527,12.185z"/>
<path fill="#F2F1EF" d="M457.262,14.966v-2.311h-3.942v-0.757l3.786-5.418h1.24v5.274h1.188v0.9h-1.188v2.311H457.262z
	 M457.262,11.755V8.922c0-0.444,0.014-0.888,0.039-1.332h-0.039c-0.26,0.497-0.47,0.862-0.705,1.253l-2.075,2.885v0.027H457.262z"/>
<path fill="#F2F1EF" d="M498.746,10.632c0,2.885-1.07,4.477-2.949,4.477c-1.658,0-2.781-1.553-2.808-4.36
	c0-2.845,1.228-4.412,2.95-4.412C497.728,6.337,498.746,7.929,498.746,10.632z M494.139,10.762c0,2.207,0.679,3.46,1.723,3.46
	c1.174,0,1.736-1.371,1.736-3.537c0-2.089-0.535-3.46-1.724-3.46C494.869,7.225,494.139,8.452,494.139,10.762z"/>
<path fill="#F2F1EF" d="M499.899,14.287c0-0.482,0.326-0.822,0.783-0.822c0.456,0,0.77,0.339,0.77,0.822
	c0,0.471-0.3,0.823-0.783,0.823C500.212,15.109,499.899,14.758,499.899,14.287z"/>
<path fill="#F2F1EF" d="M502.785,13.648c0.326,0.208,1.084,0.535,1.879,0.535c1.477,0,1.934-0.94,1.92-1.645
	c-0.014-1.188-1.084-1.697-2.193-1.697h-0.641V9.979h0.641c0.836,0,1.893-0.432,1.893-1.436c0-0.679-0.43-1.28-1.488-1.28
	c-0.679,0-1.332,0.301-1.697,0.562l-0.3-0.836c0.443-0.326,1.306-0.652,2.22-0.652c1.671,0,2.428,0.992,2.428,2.024
	c0,0.875-0.521,1.619-1.566,1.997v0.025c1.045,0.209,1.893,0.993,1.893,2.18c0,1.358-1.058,2.546-3.094,2.546
	c-0.953,0-1.788-0.3-2.206-0.574L502.785,13.648z"/>
<path fill="#F2F1EF" d="M513.037,8.87c0,1.788-0.94,2.676-2.037,2.676c-1.058,0-1.971-0.848-1.984-2.559
	c0-1.696,0.927-2.65,2.051-2.65C512.253,6.337,513.037,7.251,513.037,8.87z M509.93,8.947c-0.025,1.084,0.379,1.906,1.097,1.906
	c0.757,0,1.097-0.809,1.097-1.932c0-1.031-0.301-1.893-1.097-1.893C510.309,7.029,509.93,7.877,509.93,8.947z M510.922,15.109
	l4.986-8.772h0.732l-4.988,8.772H510.922z M518.559,12.381c0,1.789-0.939,2.676-2.023,2.676c-1.057,0-1.971-0.848-1.984-2.545
	c0-1.71,0.928-2.663,2.05-2.663C517.788,9.849,518.559,10.762,518.559,12.381z M515.451,12.459
	c-0.012,1.083,0.405,1.906,1.109,1.906c0.758,0,1.098-0.809,1.098-1.932c0-1.031-0.301-1.892-1.098-1.892
	C515.844,10.541,515.451,11.389,515.451,12.459z"/>
<path fill="#F2F1EF" d="M414.63,28.487c0-1.07,0.64-1.828,1.685-2.271l-0.014-0.04c-0.939-0.444-1.345-1.175-1.345-1.906
	c0-1.345,1.137-2.259,2.624-2.259c1.645,0,2.468,1.031,2.468,2.089c0,0.718-0.353,1.488-1.397,1.984v0.04
	c1.059,0.417,1.711,1.162,1.711,2.193c0,1.475-1.266,2.467-2.885,2.467C415.7,30.784,414.63,29.726,414.63,28.487z M419.199,28.434
	c0-1.031-0.719-1.526-1.866-1.853c-0.993,0.287-1.527,0.939-1.527,1.749c-0.04,0.862,0.613,1.619,1.696,1.619
	C418.533,29.948,419.199,29.309,419.199,28.434z M416.041,24.191c0,0.848,0.639,1.305,1.618,1.567
	c0.73-0.249,1.292-0.771,1.292-1.541c0-0.679-0.404-1.384-1.436-1.384C416.562,22.834,416.041,23.46,416.041,24.191z"/>
<path fill="#F2F1EF" d="M421.057,32.247c0.288-0.771,0.64-2.167,0.783-3.121l1.279-0.129c-0.301,1.108-0.874,2.559-1.24,3.172
	L421.057,32.247z"/>
<path fill="#F2F1EF" d="M428.982,22.965c-0.235-0.014-0.536,0-0.862,0.052c-1.801,0.3-2.755,1.619-2.95,3.016h0.039
	c0.404-0.536,1.11-0.979,2.05-0.979c1.501,0,2.559,1.083,2.559,2.742c0,1.553-1.058,2.989-2.819,2.989
	c-1.814,0-3.002-1.409-3.002-3.616c0-1.671,0.6-2.989,1.436-3.824c0.705-0.692,1.645-1.123,2.715-1.253
	c0.339-0.052,0.627-0.066,0.836-0.066V22.965z M428.656,27.86c0-1.214-0.692-1.945-1.75-1.945c-0.692,0-1.331,0.43-1.645,1.045
	c-0.078,0.13-0.131,0.3-0.131,0.509c0.026,1.397,0.666,2.428,1.867,2.428C427.99,29.896,428.656,29.074,428.656,27.86z"/>
<path fill="#F2F1EF" d="M431.114,29.322c0.326,0.208,1.083,0.535,1.88,0.535c1.475,0,1.932-0.939,1.918-1.645
	c-0.013-1.188-1.083-1.697-2.193-1.697h-0.639v-0.861h0.639c0.836,0,1.894-0.431,1.894-1.436c0-0.679-0.431-1.28-1.487-1.28
	c-0.68,0-1.332,0.301-1.698,0.562l-0.3-0.835c0.443-0.327,1.305-0.653,2.22-0.653c1.671,0,2.428,0.992,2.428,2.024
	c0,0.875-0.522,1.619-1.567,1.997v0.026c1.045,0.209,1.894,0.993,1.894,2.18c0,1.358-1.058,2.545-3.095,2.545
	c-0.952,0-1.787-0.3-2.205-0.574L431.114,29.322z"/>
<path fill="#F2F1EF" d="M437.541,30.64v-0.705l0.9-0.875c2.167-2.062,3.146-3.159,3.159-4.438c0-0.861-0.418-1.657-1.685-1.657
	c-0.77,0-1.41,0.391-1.801,0.717l-0.366-0.809c0.588-0.496,1.423-0.862,2.402-0.862c1.827,0,2.599,1.253,2.599,2.467
	c0,1.566-1.137,2.833-2.925,4.556l-0.679,0.627v0.026h3.811v0.953H437.541z"/>
<path fill="#F2F1EF" d="M443.863,32.247c0.287-0.771,0.639-2.167,0.782-3.121l1.28-0.129c-0.301,1.108-0.875,2.559-1.24,3.172
	L443.863,32.247z"/>
<path fill="#F2F1EF" d="M452.453,22.155v0.758l-3.693,7.728h-1.189l3.682-7.506v-0.025h-4.15v-0.954H452.453z"/>
<path fill="#F2F1EF" d="M453.646,30.64v-0.705l0.899-0.875c2.167-2.062,3.146-3.159,3.159-4.438c0-0.861-0.418-1.657-1.684-1.657
	c-0.771,0-1.41,0.391-1.802,0.717l-0.366-0.809c0.588-0.496,1.424-0.862,2.402-0.862c1.828,0,2.599,1.253,2.599,2.467
	c0,1.566-1.137,2.833-2.925,4.556l-0.679,0.627v0.026h3.812v0.953H453.646z"/>
<path fill="#F2F1EF" d="M463.896,30.64V28.33h-3.941v-0.757l3.785-5.418h1.24v5.274h1.188v0.9h-1.188v2.311H463.896z
	 M463.896,27.429v-2.833c0-0.444,0.014-0.887,0.04-1.332h-0.04c-0.26,0.496-0.469,0.862-0.704,1.253l-2.076,2.885v0.027H463.896z"/>
<path fill="#F2F1EF" d="M498.615,22.155v0.758l-3.693,7.728h-1.188l3.681-7.506v-0.025h-4.15v-0.954H498.615z"/>
<path fill="#F2F1EF" d="M499.899,29.961c0-0.482,0.326-0.821,0.783-0.821c0.456,0,0.77,0.339,0.77,0.821
	c0,0.471-0.3,0.823-0.783,0.823C500.212,30.784,499.899,30.432,499.899,29.961z"/>
<path fill="#F2F1EF" d="M508.02,22.155v0.758l-3.693,7.728h-1.189l3.682-7.506v-0.025h-4.15v-0.954H508.02z"/>
<path fill="#F2F1EF" d="M513.037,24.544c0,1.788-0.94,2.675-2.037,2.675c-1.058,0-1.971-0.848-1.984-2.559
	c0-1.696,0.927-2.65,2.051-2.65C512.253,22.011,513.037,22.925,513.037,24.544z M509.93,24.622
	c-0.025,1.084,0.379,1.906,1.097,1.906c0.757,0,1.097-0.809,1.097-1.932c0-1.031-0.301-1.893-1.097-1.893
	C510.309,22.703,509.93,23.551,509.93,24.622z M510.922,30.784l4.986-8.772h0.732l-4.988,8.772H510.922z M518.559,28.055
	c0,1.789-0.939,2.677-2.023,2.677c-1.057,0-1.971-0.849-1.984-2.546c0-1.71,0.928-2.663,2.05-2.663
	C517.788,25.523,518.559,26.437,518.559,28.055z M515.451,28.134c-0.012,1.083,0.405,1.906,1.109,1.906
	c0.758,0,1.098-0.809,1.098-1.932c0-1.031-0.301-1.892-1.098-1.892C515.844,26.215,515.451,27.063,515.451,28.134z"/>
<path fill="#F2F1EF" d="M419.801,38.795h-3.238l-0.326,2.18c0.195-0.027,0.378-0.052,0.691-0.052c0.652,0,1.306,0.144,1.828,0.457
	c0.666,0.378,1.213,1.11,1.213,2.18c0,1.657-1.318,2.897-3.158,2.897c-0.928,0-1.71-0.261-2.115-0.521l0.287-0.875
	c0.354,0.209,1.045,0.47,1.814,0.47c1.084,0,2.01-0.705,2.01-1.841c-0.012-1.096-0.743-1.879-2.439-1.879
	c-0.484,0-0.862,0.052-1.176,0.091l0.549-4.073h4.061V38.795z"/>
<path fill="#F2F1EF" d="M422.102,45.506c0.248,0.025,0.535,0,0.927-0.04c0.665-0.091,1.292-0.366,1.775-0.823
	c0.562-0.509,0.966-1.253,1.122-2.259h-0.038c-0.471,0.575-1.149,0.915-1.997,0.915c-1.527,0-2.507-1.149-2.507-2.598
	c0-1.606,1.162-3.016,2.897-3.016c1.736,0,2.807,1.41,2.807,3.577c0,1.866-0.626,3.173-1.462,3.981
	c-0.652,0.64-1.554,1.031-2.467,1.135c-0.418,0.066-0.784,0.079-1.058,0.066V45.506z M422.52,40.623c0,1.058,0.64,1.802,1.631,1.802
	c0.771,0,1.371-0.378,1.672-0.888c0.065-0.104,0.104-0.235,0.104-0.417c0-1.449-0.535-2.559-1.736-2.559
	C423.211,38.561,422.52,39.422,422.52,40.623z"/>
<path fill="#F2F1EF" d="M427.758,47.921c0.287-0.771,0.64-2.167,0.783-3.121l1.279-0.129c-0.301,1.108-0.875,2.559-1.24,3.172
	L427.758,47.921z"/>
<path fill="#F2F1EF" d="M436.479,41.981c0,2.885-1.07,4.477-2.949,4.477c-1.658,0-2.781-1.553-2.807-4.36
	c0-2.846,1.227-4.413,2.95-4.413C435.461,37.686,436.479,39.278,436.479,41.981z M431.871,42.111c0,2.207,0.678,3.46,1.723,3.46
	c1.175,0,1.736-1.372,1.736-3.538c0-2.089-0.535-3.46-1.723-3.46C432.603,38.573,431.871,39.801,431.871,42.111z"/>
<path fill="#F2F1EF" d="M437.436,44.161c0-1.07,0.641-1.828,1.686-2.271l-0.015-0.04c-0.939-0.444-1.345-1.175-1.345-1.906
	c0-1.345,1.137-2.259,2.625-2.259c1.645,0,2.467,1.031,2.467,2.089c0,0.718-0.352,1.488-1.396,1.984v0.04
	c1.058,0.417,1.71,1.162,1.71,2.193c0,1.475-1.266,2.467-2.885,2.467C438.506,46.458,437.436,45.4,437.436,44.161z M442.006,44.108
	c0-1.031-0.719-1.526-1.867-1.853c-0.992,0.287-1.527,0.939-1.527,1.749c-0.039,0.862,0.613,1.619,1.696,1.619
	C441.34,45.623,442.006,44.983,442.006,44.108z M438.846,39.866c0,0.848,0.641,1.305,1.619,1.567
	c0.73-0.249,1.292-0.771,1.292-1.541c0-0.679-0.404-1.384-1.435-1.384C439.368,38.508,438.846,39.134,438.846,39.866z"/>
<path fill="#F2F1EF" d="M449.75,37.829v0.758l-3.693,7.728h-1.189l3.682-7.507v-0.025h-4.15v-0.954H449.75z"/>
<path fill="#F2F1EF" d="M498.746,41.981c0,2.885-1.07,4.477-2.949,4.477c-1.658,0-2.781-1.553-2.808-4.36
	c0-2.846,1.228-4.413,2.95-4.413C497.728,37.686,498.746,39.278,498.746,41.981z M494.139,42.111c0,2.207,0.679,3.46,1.723,3.46
	c1.174,0,1.736-1.372,1.736-3.538c0-2.089-0.535-3.46-1.724-3.46C494.869,38.573,494.139,39.801,494.139,42.111z"/>
<path fill="#F2F1EF" d="M499.899,45.635c0-0.482,0.326-0.821,0.783-0.821c0.456,0,0.77,0.339,0.77,0.821
	c0,0.471-0.3,0.823-0.783,0.823C500.212,46.458,499.899,46.106,499.899,45.635z"/>
<path fill="#F2F1EF" d="M505.004,38.899h-0.025l-1.476,0.796l-0.222-0.874l1.854-0.993h0.979v8.486h-1.109V38.899z"/>
<path fill="#F2F1EF" d="M513.037,40.219c0,1.788-0.94,2.675-2.037,2.675c-1.058,0-1.971-0.848-1.984-2.559
	c0-1.696,0.927-2.65,2.051-2.65C512.253,37.686,513.037,38.6,513.037,40.219z M509.93,40.296c-0.025,1.084,0.379,1.906,1.097,1.906
	c0.757,0,1.097-0.809,1.097-1.932c0-1.031-0.301-1.893-1.097-1.893C510.309,38.377,509.93,39.226,509.93,40.296z M510.922,46.458
	l4.986-8.772h0.732l-4.988,8.772H510.922z M518.559,43.729c0,1.789-0.939,2.677-2.023,2.677c-1.057,0-1.971-0.848-1.984-2.546
	c0-1.71,0.928-2.663,2.05-2.663C517.788,41.198,518.559,42.111,518.559,43.729z M515.451,43.808
	c-0.012,1.083,0.405,1.906,1.109,1.906c0.758,0,1.098-0.809,1.098-1.933c0-1.031-0.301-1.892-1.098-1.892
	C515.844,41.89,515.451,42.738,515.451,43.808z"/>
<path fill="#F2F1EF" d="M417.228,54.573h-0.025l-1.476,0.796l-0.222-0.874l1.854-0.993h0.979v8.486h-1.11V54.573z"/>
<path fill="#F2F1EF" d="M421.711,60.67c0.326,0.208,1.082,0.535,1.879,0.535c1.475,0,1.932-0.939,1.918-1.645
	c-0.012-1.188-1.082-1.697-2.192-1.697h-0.64v-0.861h0.64c0.835,0,1.894-0.431,1.894-1.436c0-0.679-0.432-1.28-1.488-1.28
	c-0.68,0-1.332,0.301-1.697,0.562l-0.301-0.835c0.443-0.327,1.306-0.653,2.22-0.653c1.671,0,2.428,0.992,2.428,2.024
	c0,0.875-0.522,1.619-1.566,1.997v0.026c1.044,0.209,1.894,0.993,1.894,2.18c0,1.357-1.059,2.545-3.095,2.545
	c-0.952,0-1.788-0.299-2.206-0.574L421.711,60.67z"/>
<path fill="#F2F1EF" d="M427.758,63.594c0.287-0.771,0.64-2.167,0.783-3.121l1.279-0.129c-0.301,1.108-0.875,2.559-1.24,3.172
	L427.758,63.594z"/>
<path fill="#F2F1EF" d="M431.506,61.179c0.247,0.025,0.535,0,0.926-0.04c0.666-0.091,1.293-0.366,1.775-0.823
	c0.562-0.509,0.967-1.253,1.123-2.259h-0.039c-0.471,0.575-1.148,0.915-1.996,0.915c-1.527,0-2.507-1.149-2.507-2.598
	c0-1.606,1.161-3.016,2.897-3.016s2.807,1.41,2.807,3.577c0,1.866-0.627,3.171-1.462,3.981c-0.653,0.64-1.554,1.031-2.468,1.135
	c-0.417,0.066-0.783,0.079-1.057,0.066V61.179z M431.924,56.296c0,1.058,0.639,1.802,1.631,1.802c0.771,0,1.371-0.378,1.671-0.888
	c0.065-0.104,0.104-0.235,0.104-0.417c0-1.449-0.535-2.559-1.736-2.559C432.615,54.234,431.924,55.095,431.924,56.296z"/>
<path fill="#F2F1EF" d="M442.384,54.312c-0.235-0.014-0.536,0-0.862,0.052c-1.801,0.3-2.754,1.619-2.949,3.016h0.039
	c0.404-0.536,1.109-0.979,2.049-0.979c1.502,0,2.559,1.083,2.559,2.741c0,1.553-1.057,2.989-2.819,2.989
	c-1.814,0-3.002-1.409-3.002-3.616c0-1.671,0.601-2.989,1.437-3.824c0.704-0.692,1.645-1.123,2.715-1.253
	c0.338-0.052,0.627-0.066,0.835-0.066V54.312z M442.058,59.208c0-1.214-0.692-1.945-1.75-1.945c-0.692,0-1.331,0.43-1.644,1.045
	c-0.079,0.129-0.131,0.3-0.131,0.509c0.025,1.396,0.665,2.428,1.866,2.428C441.393,61.244,442.058,60.421,442.058,59.208z"/>
<path fill="#F2F1EF" d="M444.516,60.67c0.326,0.208,1.084,0.535,1.88,0.535c1.476,0,1.933-0.939,1.919-1.645
	c-0.014-1.188-1.084-1.697-2.193-1.697h-0.64v-0.861h0.64c0.836,0,1.893-0.431,1.893-1.436c0-0.679-0.43-1.28-1.488-1.28
	c-0.679,0-1.331,0.301-1.697,0.562l-0.299-0.835c0.443-0.327,1.305-0.653,2.219-0.653c1.672,0,2.428,0.992,2.428,2.024
	c0,0.875-0.521,1.619-1.566,1.997v0.026c1.045,0.209,1.893,0.993,1.893,2.18c0,1.357-1.057,2.545-3.094,2.545
	c-0.953,0-1.788-0.299-2.205-0.574L444.516,60.67z"/>
<path fill="#F2F1EF" d="M450.564,63.594c0.287-0.771,0.639-2.167,0.782-3.121l1.28-0.129c-0.301,1.108-0.875,2.559-1.241,3.172
	L450.564,63.594z"/>
<path fill="#F2F1EF" d="M459.285,57.654c0,2.885-1.07,4.477-2.95,4.477c-1.658,0-2.78-1.553-2.808-4.36
	c0-2.846,1.229-4.413,2.951-4.413C458.267,53.359,459.285,54.951,459.285,57.654z M454.677,57.784c0,2.207,0.679,3.46,1.724,3.46
	c1.174,0,1.735-1.372,1.735-3.538c0-2.089-0.534-3.46-1.724-3.46C455.408,54.247,454.677,55.474,454.677,57.784z"/>
<path fill="#F2F1EF" d="M461.012,61.179c0.248,0.025,0.536,0,0.928-0.04c0.665-0.091,1.292-0.366,1.775-0.823
	c0.561-0.509,0.965-1.253,1.121-2.259h-0.037c-0.471,0.575-1.149,0.915-1.998,0.915c-1.527,0-2.506-1.149-2.506-2.598
	c0-1.606,1.162-3.016,2.897-3.016s2.806,1.41,2.806,3.577c0,1.866-0.625,3.171-1.461,3.981c-0.652,0.64-1.555,1.031-2.467,1.135
	c-0.418,0.066-0.784,0.079-1.059,0.066V61.179z M461.43,56.296c0,1.058,0.641,1.802,1.632,1.802c0.771,0,1.371-0.378,1.671-0.888
	c0.066-0.104,0.104-0.235,0.104-0.417c0-1.449-0.534-2.559-1.735-2.559C462.122,54.234,461.43,55.095,461.43,56.296z"/>
<path fill="#F2F1EF" d="M472.113,54.469h-3.238l-0.326,2.18c0.195-0.027,0.378-0.052,0.691-0.052c0.652,0,1.306,0.144,1.828,0.457
	c0.666,0.378,1.213,1.11,1.213,2.18c0,1.657-1.318,2.897-3.158,2.897c-0.928,0-1.71-0.261-2.115-0.521l0.287-0.875
	c0.354,0.208,1.044,0.47,1.814,0.47c1.084,0,2.01-0.705,2.01-1.841c-0.012-1.096-0.744-1.879-2.439-1.879
	c-0.484,0-0.862,0.052-1.176,0.091l0.549-4.073h4.061V54.469z"/>
<path fill="#F2F1EF" d="M490.086,54.573h-0.025l-1.475,0.796l-0.223-0.874l1.854-0.993h0.979v8.486h-1.109V54.573z"/>
<path fill="#F2F1EF" d="M494.295,61.988v-0.705l0.9-0.875c2.167-2.062,3.146-3.159,3.158-4.439c0-0.861-0.418-1.657-1.684-1.657
	c-0.771,0-1.41,0.391-1.801,0.717l-0.366-0.809c0.587-0.497,1.423-0.862,2.402-0.862c1.827,0,2.598,1.253,2.598,2.467
	c0,1.567-1.136,2.833-2.925,4.556l-0.679,0.627v0.025h3.812v0.954H494.295z"/>
<path fill="#F2F1EF" d="M501.087,61.309c0-0.482,0.326-0.821,0.782-0.821c0.457,0,0.771,0.339,0.771,0.821
	c0,0.47-0.3,0.823-0.783,0.823C501.399,62.131,501.087,61.779,501.087,61.309z"/>
<path fill="#F2F1EF" d="M507.248,61.988v-2.311h-3.941V58.92l3.785-5.418h1.24v5.274h1.188v0.9h-1.188v2.311H507.248z
	 M507.248,58.777v-2.833c0-0.444,0.014-0.887,0.04-1.332h-0.04c-0.26,0.496-0.469,0.862-0.704,1.253l-2.076,2.885v0.026H507.248z"/>
<path fill="#F2F1EF" d="M514.224,55.892c0,1.788-0.939,2.675-2.036,2.675c-1.059,0-1.971-0.848-1.984-2.559
	c0-1.696,0.926-2.65,2.05-2.65C513.44,53.359,514.224,54.273,514.224,55.892z M511.117,55.97c-0.025,1.084,0.378,1.906,1.097,1.906
	c0.757,0,1.096-0.809,1.096-1.932c0-1.031-0.3-1.893-1.096-1.893C511.495,54.051,511.117,54.899,511.117,55.97z M512.109,62.131
	l4.986-8.772h0.731l-4.987,8.772H512.109z M519.746,59.403c0,1.789-0.939,2.677-2.023,2.677c-1.057,0-1.971-0.848-1.984-2.546
	c0-1.71,0.928-2.663,2.05-2.663C518.975,56.871,519.746,57.784,519.746,59.403z M516.639,59.481
	c-0.013,1.083,0.405,1.906,1.109,1.906c0.758,0,1.098-0.809,1.098-1.933c0-1.031-0.301-1.892-1.098-1.892
	C517.031,57.563,516.639,58.411,516.639,59.481z"/>
<path fill="#F2F1EF" d="M419.801,70.143h-3.238l-0.326,2.18c0.195-0.027,0.378-0.052,0.691-0.052c0.652,0,1.306,0.144,1.828,0.457
	c0.666,0.378,1.213,1.11,1.213,2.18c0,1.657-1.318,2.897-3.158,2.897c-0.928,0-1.71-0.261-2.115-0.521l0.287-0.875
	c0.354,0.208,1.045,0.47,1.814,0.47c1.084,0,2.01-0.705,2.01-1.84c-0.012-1.096-0.743-1.879-2.439-1.879
	c-0.484,0-0.862,0.052-1.176,0.091l0.549-4.073h4.061V70.143z"/>
<path fill="#F2F1EF" d="M421.057,79.268c0.288-0.771,0.64-2.167,0.783-3.121l1.279-0.129c-0.301,1.108-0.874,2.559-1.24,3.172
	L421.057,79.268z"/>
<path fill="#F2F1EF" d="M424.139,77.662v-0.705l0.9-0.875c2.168-2.062,3.146-3.159,3.16-4.438c0-0.861-0.418-1.657-1.685-1.657
	c-0.771,0-1.41,0.391-1.802,0.717l-0.365-0.809c0.588-0.497,1.424-0.862,2.402-0.862c1.827,0,2.598,1.253,2.598,2.467
	c0,1.567-1.137,2.833-2.924,4.555l-0.68,0.627v0.025h3.812v0.954H424.139z"/>
<path fill="#F2F1EF" d="M435.684,69.987c-0.236-0.014-0.537,0-0.863,0.052c-1.801,0.3-2.754,1.619-2.949,3.016h0.039
	c0.404-0.536,1.109-0.979,2.05-0.979c1.501,0,2.559,1.083,2.559,2.741c0,1.552-1.058,2.988-2.82,2.988
	c-1.814,0-3.002-1.409-3.002-3.615c0-1.671,0.601-2.989,1.437-3.825c0.705-0.692,1.645-1.123,2.715-1.253
	c0.339-0.052,0.627-0.066,0.836-0.066V69.987z M435.356,74.882c0-1.214-0.692-1.945-1.749-1.945c-0.692,0-1.332,0.431-1.645,1.045
	c-0.079,0.13-0.131,0.3-0.131,0.509c0.026,1.396,0.665,2.427,1.866,2.427C434.691,76.918,435.356,76.095,435.356,74.882z"/>
<path fill="#F2F1EF" d="M442.384,69.987c-0.235-0.014-0.536,0-0.862,0.052c-1.801,0.3-2.754,1.619-2.949,3.016h0.039
	c0.404-0.536,1.109-0.979,2.049-0.979c1.502,0,2.559,1.083,2.559,2.741c0,1.552-1.057,2.988-2.819,2.988
	c-1.814,0-3.002-1.409-3.002-3.615c0-1.671,0.601-2.989,1.437-3.825c0.704-0.692,1.645-1.123,2.715-1.253
	c0.338-0.052,0.627-0.066,0.835-0.066V69.987z M442.058,74.882c0-1.214-0.692-1.945-1.75-1.945c-0.692,0-1.331,0.431-1.644,1.045
	c-0.079,0.13-0.131,0.3-0.131,0.509c0.025,1.396,0.665,2.427,1.866,2.427C441.393,76.918,442.058,76.095,442.058,74.882z"/>
<path fill="#F2F1EF" d="M443.863,79.268c0.287-0.771,0.639-2.167,0.782-3.121l1.28-0.129c-0.301,1.108-0.875,2.559-1.24,3.172
	L443.863,79.268z"/>
<path fill="#F2F1EF" d="M452.584,73.329c0,2.884-1.07,4.477-2.949,4.477c-1.658,0-2.781-1.553-2.808-4.359
	c0-2.846,1.228-4.413,2.95-4.413C451.565,69.033,452.584,70.625,452.584,73.329z M447.977,73.458c0,2.207,0.679,3.459,1.723,3.459
	c1.174,0,1.736-1.371,1.736-3.537c0-2.089-0.535-3.46-1.724-3.46C448.707,69.921,447.977,71.148,447.977,73.458z"/>
<path fill="#F2F1EF" d="M458.711,70.143h-3.238l-0.326,2.18c0.195-0.027,0.379-0.052,0.692-0.052c0.652,0,1.306,0.144,1.827,0.457
	c0.666,0.378,1.214,1.11,1.214,2.18c0,1.657-1.318,2.897-3.159,2.897c-0.927,0-1.709-0.261-2.114-0.521l0.287-0.875
	c0.353,0.208,1.044,0.47,1.814,0.47c1.083,0,2.01-0.705,2.01-1.84c-0.013-1.096-0.743-1.879-2.44-1.879
	c-0.483,0-0.861,0.052-1.176,0.091l0.549-4.073h4.061V70.143z"/>
<path fill="#F2F1EF" d="M465.412,70.143h-3.238l-0.326,2.18c0.195-0.027,0.379-0.052,0.691-0.052c0.653,0,1.306,0.144,1.828,0.457
	c0.666,0.378,1.213,1.11,1.213,2.18c0,1.657-1.317,2.897-3.158,2.897c-0.928,0-1.709-0.261-2.115-0.521l0.287-0.875
	c0.354,0.208,1.045,0.47,1.814,0.47c1.084,0,2.011-0.705,2.011-1.84c-0.013-1.096-0.744-1.879-2.44-1.879
	c-0.484,0-0.862,0.052-1.176,0.091l0.549-4.073h4.061V70.143z"/>
<path fill="#F2F1EF" d="M496.657,77.662v-2.311h-3.942v-0.757l3.786-5.418h1.239v5.274h1.188v0.9h-1.188v2.311H496.657z
	 M496.657,74.451v-2.833c0-0.444,0.013-0.888,0.04-1.332h-0.04c-0.261,0.497-0.47,0.862-0.704,1.253l-2.076,2.885v0.026H496.657z"/>
<path fill="#F2F1EF" d="M499.899,76.982c0-0.482,0.326-0.821,0.783-0.821c0.456,0,0.77,0.339,0.77,0.821
	c0,0.47-0.3,0.823-0.783,0.823C500.212,77.805,499.899,77.453,499.899,76.982z"/>
<path fill="#F2F1EF" d="M508.02,69.177v0.757l-3.693,7.729h-1.189l3.682-7.506V70.13h-4.15v-0.954H508.02z"/>
<path fill="#F2F1EF" d="M513.037,71.566c0,1.788-0.94,2.675-2.037,2.675c-1.058,0-1.971-0.848-1.984-2.559
	c0-1.696,0.927-2.65,2.051-2.65C512.253,69.033,513.037,69.947,513.037,71.566z M509.93,71.644
	c-0.025,1.084,0.379,1.906,1.097,1.906c0.757,0,1.097-0.809,1.097-1.931c0-1.031-0.301-1.894-1.097-1.894
	C510.309,69.725,509.93,70.574,509.93,71.644z M510.922,77.805l4.986-8.772h0.732l-4.988,8.772H510.922z M518.559,75.077
	c0,1.789-0.939,2.676-2.023,2.676c-1.057,0-1.971-0.848-1.984-2.545c0-1.71,0.928-2.663,2.05-2.663
	C517.788,72.545,518.559,73.458,518.559,75.077z M515.451,75.156c-0.012,1.083,0.405,1.906,1.109,1.906
	c0.758,0,1.098-0.809,1.098-1.932c0-1.031-0.301-1.892-1.098-1.892C515.844,73.237,515.451,74.085,515.451,75.156z"/>
<path fill="#F2F1EF" d="M417.228,85.92h-0.025l-1.476,0.797l-0.222-0.873l1.854-0.994h0.979v8.486h-1.11V85.92z"/>
<path fill="#F2F1EF" d="M427.075,89.004c0,2.885-1.071,4.477-2.95,4.477c-1.658,0-2.78-1.555-2.807-4.361
	c0-2.846,1.228-4.412,2.951-4.412C426.057,84.707,427.075,86.299,427.075,89.004z M422.467,89.133c0,2.207,0.68,3.459,1.723,3.459
	c1.176,0,1.736-1.371,1.736-3.537c0-2.088-0.535-3.461-1.723-3.461C423.198,85.594,422.467,86.822,422.467,89.133z"/>
<path fill="#F2F1EF" d="M427.758,94.943c0.287-0.771,0.64-2.168,0.783-3.121l1.279-0.129c-0.301,1.107-0.875,2.557-1.24,3.17
	L427.758,94.943z"/>
<path fill="#F2F1EF" d="M431.114,92.018c0.326,0.209,1.083,0.535,1.88,0.535c1.475,0,1.932-0.939,1.918-1.645
	c-0.013-1.189-1.083-1.697-2.193-1.697h-0.639V88.35h0.639c0.836,0,1.894-0.432,1.894-1.436c0-0.68-0.431-1.281-1.487-1.281
	c-0.68,0-1.332,0.303-1.698,0.562l-0.3-0.836c0.443-0.326,1.305-0.652,2.22-0.652c1.671,0,2.428,0.992,2.428,2.023
	c0,0.875-0.522,1.619-1.567,1.998v0.025c1.045,0.209,1.894,0.994,1.894,2.18c0,1.357-1.058,2.547-3.095,2.547
	c-0.952,0-1.787-0.301-2.205-0.574L431.114,92.018z"/>
<path fill="#F2F1EF" d="M437.541,93.336v-0.703l0.9-0.877c2.167-2.062,3.146-3.158,3.159-4.439c0-0.859-0.418-1.656-1.685-1.656
	c-0.77,0-1.41,0.393-1.801,0.717l-0.366-0.809c0.588-0.496,1.423-0.861,2.402-0.861c1.827,0,2.599,1.254,2.599,2.469
	c0,1.566-1.137,2.83-2.925,4.555l-0.679,0.627v0.025h3.811v0.953H437.541z"/>
<path fill="#F2F1EF" d="M444.516,92.018c0.326,0.209,1.084,0.535,1.88,0.535c1.476,0,1.933-0.939,1.919-1.645
	c-0.014-1.189-1.084-1.697-2.193-1.697h-0.64V88.35h0.64c0.836,0,1.893-0.432,1.893-1.436c0-0.68-0.43-1.281-1.488-1.281
	c-0.679,0-1.331,0.303-1.697,0.562l-0.299-0.836c0.443-0.326,1.305-0.652,2.219-0.652c1.672,0,2.428,0.992,2.428,2.023
	c0,0.875-0.521,1.619-1.566,1.998v0.025c1.045,0.209,1.893,0.994,1.893,2.18c0,1.357-1.057,2.547-3.094,2.547
	c-0.953,0-1.788-0.301-2.205-0.574L444.516,92.018z"/>
<path fill="#F2F1EF" d="M450.564,94.943c0.287-0.771,0.639-2.168,0.782-3.121l1.28-0.129c-0.301,1.107-0.875,2.557-1.241,3.17
	L450.564,94.943z"/>
<path fill="#F2F1EF" d="M456.139,85.92h-0.025l-1.476,0.797l-0.222-0.873l1.854-0.994h0.979v8.486h-1.109V85.92z"/>
<path fill="#F2F1EF" d="M465.855,84.85v0.758l-3.694,7.729h-1.188l3.682-7.506v-0.027h-4.151V84.85H465.855z"/>
<path fill="#F2F1EF" d="M466.942,91.182c0-1.068,0.64-1.828,1.685-2.27l-0.014-0.041c-0.939-0.443-1.345-1.176-1.345-1.904
	c0-1.346,1.136-2.26,2.624-2.26c1.645,0,2.468,1.031,2.468,2.09c0,0.719-0.353,1.488-1.397,1.982v0.041
	c1.059,0.416,1.711,1.16,1.711,2.191c0,1.477-1.266,2.469-2.885,2.469C468.013,93.48,466.942,92.422,466.942,91.182z
	 M471.512,91.129c0-1.031-0.719-1.525-1.866-1.852c-0.993,0.287-1.527,0.939-1.527,1.748c-0.04,0.863,0.613,1.619,1.696,1.619
	C470.846,92.645,471.512,92.006,471.512,91.129z M468.354,86.889c0,0.848,0.639,1.305,1.618,1.566
	c0.73-0.25,1.292-0.771,1.292-1.541c0-0.68-0.404-1.385-1.436-1.385C468.875,85.529,468.354,86.156,468.354,86.889z"/>
<path fill="#F2F1EF" d="M493.773,92.527c0.248,0.025,0.535,0,0.928-0.039c0.664-0.092,1.292-0.367,1.774-0.824
	c0.562-0.508,0.966-1.252,1.122-2.258h-0.037c-0.472,0.574-1.15,0.914-1.998,0.914c-1.527,0-2.506-1.148-2.506-2.598
	c0-1.607,1.161-3.016,2.896-3.016c1.736,0,2.807,1.408,2.807,3.578c0,1.865-0.626,3.172-1.461,3.98
	c-0.653,0.641-1.555,1.031-2.468,1.137c-0.417,0.064-0.783,0.078-1.058,0.064V92.527z M494.191,87.645
	c0,1.057,0.64,1.801,1.631,1.801c0.771,0,1.372-0.379,1.672-0.887c0.066-0.104,0.104-0.236,0.104-0.418
	c0-1.449-0.534-2.559-1.735-2.559C494.883,85.582,494.191,86.443,494.191,87.645z"/>
<path fill="#F2F1EF" d="M499.9,92.658c0-0.482,0.326-0.824,0.782-0.824c0.457,0,0.771,0.342,0.771,0.824
	c0,0.469-0.299,0.822-0.783,0.822C500.213,93.48,499.9,93.127,499.9,92.658z"/>
<path fill="#F2F1EF" d="M502.512,93.336v-0.703l0.9-0.877c2.168-2.062,3.146-3.158,3.16-4.439c0-0.859-0.418-1.656-1.685-1.656
	c-0.771,0-1.41,0.393-1.802,0.717l-0.365-0.809c0.588-0.496,1.423-0.861,2.402-0.861c1.827,0,2.598,1.254,2.598,2.469
	c0,1.566-1.137,2.83-2.924,4.555l-0.68,0.627v0.025h3.812v0.953H502.512z"/>
<path fill="#F2F1EF" d="M513.037,87.24c0,1.789-0.939,2.676-2.036,2.676c-1.058,0-1.971-0.85-1.984-2.559
	c0-1.697,0.927-2.65,2.05-2.65C512.254,84.707,513.037,85.621,513.037,87.24z M509.931,87.316c-0.026,1.086,0.378,1.908,1.097,1.908
	c0.757,0,1.096-0.811,1.096-1.934c0-1.031-0.299-1.893-1.096-1.893C510.309,85.398,509.931,86.248,509.931,87.316z M510.924,93.48
	l4.986-8.773h0.73l-4.986,8.773H510.924z M518.56,90.75c0,1.791-0.939,2.678-2.024,2.678c-1.057,0-1.971-0.85-1.982-2.545
	c0-1.711,0.926-2.664,2.049-2.664C517.789,88.219,518.56,89.133,518.56,90.75z M515.453,90.83c-0.014,1.084,0.404,1.906,1.109,1.906
	c0.757,0,1.097-0.811,1.097-1.932c0-1.031-0.301-1.893-1.097-1.893C515.845,88.912,515.453,89.76,515.453,90.83z"/>
<path fill="#F2F1EF" d="M419.801,101.49h-3.238l-0.326,2.182c0.195-0.027,0.378-0.053,0.691-0.053c0.652,0,1.306,0.145,1.828,0.457
	c0.666,0.379,1.213,1.109,1.213,2.182c0,1.656-1.318,2.896-3.158,2.896c-0.928,0-1.71-0.262-2.115-0.523l0.287-0.873
	c0.354,0.209,1.045,0.471,1.814,0.471c1.084,0,2.01-0.707,2.01-1.842c-0.012-1.098-0.743-1.879-2.439-1.879
	c-0.484,0-0.862,0.051-1.176,0.092l0.549-4.074h4.061V101.49z"/>
<path fill="#F2F1EF" d="M421.057,110.617c0.288-0.771,0.64-2.168,0.783-3.121l1.279-0.129c-0.301,1.107-0.874,2.557-1.24,3.172
	L421.057,110.617z"/>
<path fill="#F2F1EF" d="M424.139,109.01v-0.703l0.9-0.877c2.168-2.061,3.146-3.158,3.16-4.438c0-0.861-0.418-1.656-1.685-1.656
	c-0.771,0-1.41,0.391-1.802,0.717l-0.365-0.809c0.588-0.498,1.424-0.863,2.402-0.863c1.827,0,2.598,1.254,2.598,2.469
	c0,1.566-1.137,2.832-2.924,4.555l-0.68,0.627v0.027h3.812v0.951H424.139z"/>
<path fill="#F2F1EF" d="M430.734,106.857c0-1.07,0.641-1.83,1.686-2.271l-0.014-0.041c-0.939-0.443-1.346-1.176-1.346-1.904
	c0-1.346,1.137-2.26,2.625-2.26c1.645,0,2.467,1.031,2.467,2.09c0,0.719-0.352,1.488-1.396,1.984v0.039
	c1.058,0.418,1.711,1.162,1.711,2.191c0,1.477-1.267,2.469-2.885,2.469C431.805,109.154,430.734,108.096,430.734,106.857z
	 M435.305,106.803c0-1.031-0.719-1.525-1.867-1.852c-0.992,0.287-1.527,0.939-1.527,1.748c-0.039,0.863,0.613,1.619,1.697,1.619
	C434.639,108.318,435.305,107.68,435.305,106.803z M432.146,102.562c0,0.848,0.64,1.305,1.618,1.566
	c0.73-0.248,1.292-0.771,1.292-1.541c0-0.678-0.403-1.385-1.435-1.385C432.668,101.203,432.146,101.83,432.146,102.562z"/>
<path fill="#F2F1EF" d="M437.814,107.691c0.327,0.209,1.084,0.537,1.88,0.537c1.476,0,1.933-0.939,1.919-1.646
	c-0.013-1.188-1.084-1.695-2.193-1.695h-0.64v-0.861h0.64c0.836,0,1.894-0.432,1.894-1.438c0-0.678-0.431-1.279-1.488-1.279
	c-0.679,0-1.332,0.301-1.698,0.561l-0.299-0.836c0.443-0.324,1.305-0.652,2.219-0.652c1.672,0,2.428,0.992,2.428,2.023
	c0,0.877-0.521,1.621-1.566,1.998v0.027c1.045,0.207,1.893,0.992,1.893,2.178c0,1.359-1.057,2.547-3.094,2.547
	c-0.952,0-1.787-0.299-2.205-0.574L437.814,107.691z"/>
<path fill="#F2F1EF" d="M443.863,110.617c0.287-0.771,0.639-2.168,0.782-3.121l1.28-0.129c-0.301,1.107-0.875,2.557-1.24,3.172
	L443.863,110.617z"/>
<path fill="#F2F1EF" d="M450.495,109.01v-2.311h-3.942v-0.756l3.786-5.418h1.239v5.275h1.188v0.898h-1.188v2.311H450.495z
	 M450.495,105.801v-2.834c0-0.445,0.013-0.887,0.04-1.332h-0.04c-0.261,0.496-0.47,0.861-0.704,1.252l-2.076,2.885v0.029H450.495z"
	/>
<path fill="#F2F1EF" d="M459.154,100.525v0.758l-3.693,7.727h-1.189l3.682-7.506v-0.025h-4.15v-0.953H459.154z"/>
<path fill="#F2F1EF" d="M465.986,104.678c0,2.885-1.07,4.477-2.95,4.477c-1.658,0-2.78-1.553-2.808-4.359
	c0-2.848,1.229-4.414,2.951-4.414C464.967,100.381,465.986,101.973,465.986,104.678z M461.378,104.807
	c0,2.207,0.679,3.459,1.723,3.459c1.175,0,1.735-1.371,1.735-3.537c0-2.088-0.534-3.459-1.723-3.459
	C462.109,101.27,461.378,102.496,461.378,104.807z"/>
<path fill="#F2F1EF" d="M496.657,109.01v-2.311h-3.942v-0.756l3.786-5.418h1.239v5.275h1.188v0.898h-1.188v2.311H496.657z
	 M496.657,105.801v-2.834c0-0.445,0.013-0.887,0.04-1.332h-0.04c-0.261,0.496-0.47,0.861-0.704,1.252l-2.076,2.885v0.029H496.657z"
	/>
<path fill="#F2F1EF" d="M499.899,108.332c0-0.482,0.326-0.822,0.783-0.822c0.456,0,0.77,0.34,0.77,0.822
	c0,0.471-0.3,0.822-0.783,0.822C500.212,109.154,499.899,108.803,499.899,108.332z"/>
<path fill="#F2F1EF" d="M508.02,100.525v0.758l-3.693,7.727h-1.189l3.682-7.506v-0.025h-4.15v-0.953H508.02z"/>
<path fill="#F2F1EF" d="M513.037,102.916c0,1.787-0.94,2.674-2.037,2.674c-1.058,0-1.971-0.848-1.984-2.559
	c0-1.695,0.927-2.65,2.051-2.65C512.253,100.381,513.037,101.295,513.037,102.916z M509.93,102.992
	c-0.025,1.084,0.379,1.906,1.097,1.906c0.757,0,1.097-0.811,1.097-1.932c0-1.031-0.301-1.893-1.097-1.893
	C510.309,101.074,509.93,101.922,509.93,102.992z M510.922,109.154l4.986-8.773h0.732l-4.988,8.773H510.922z M518.559,106.426
	c0,1.789-0.939,2.676-2.023,2.676c-1.057,0-1.971-0.848-1.984-2.545c0-1.711,0.928-2.664,2.05-2.664
	C517.788,103.893,518.559,104.807,518.559,106.426z M515.451,106.504c-0.012,1.084,0.405,1.906,1.109,1.906
	c0.758,0,1.098-0.809,1.098-1.932c0-1.031-0.301-1.893-1.098-1.893C515.844,104.586,515.451,105.434,515.451,106.504z"/>
<path fill="#F2F1EF" d="M418.285,124.684v-2.311h-3.942v-0.756l3.786-5.418h1.24v5.275h1.188v0.898h-1.188v2.311H418.285z
	 M418.285,121.475v-2.834c0-0.445,0.014-0.887,0.039-1.33h-0.039c-0.26,0.494-0.47,0.859-0.705,1.252l-2.075,2.885v0.027H418.285z"
	/>
<path fill="#F2F1EF" d="M421.057,126.291c0.288-0.771,0.64-2.168,0.783-3.121l1.279-0.129c-0.301,1.107-0.874,2.559-1.24,3.172
	L421.057,126.291z"/>
<path fill="#F2F1EF" d="M424.414,123.367c0.326,0.207,1.082,0.535,1.879,0.535c1.475,0,1.932-0.939,1.918-1.646
	c-0.012-1.188-1.082-1.695-2.192-1.695h-0.64v-0.861h0.64c0.835,0,1.894-0.432,1.894-1.438c0-0.678-0.432-1.279-1.488-1.279
	c-0.68,0-1.332,0.301-1.697,0.561l-0.301-0.834c0.443-0.326,1.306-0.654,2.22-0.654c1.671,0,2.428,0.994,2.428,2.025
	c0,0.875-0.522,1.619-1.567,1.998v0.025c1.045,0.207,1.895,0.992,1.895,2.178c0,1.359-1.059,2.547-3.095,2.547
	c-0.952,0-1.788-0.299-2.206-0.572L424.414,123.367z"/>
<path fill="#F2F1EF" d="M431.114,123.367c0.326,0.207,1.083,0.535,1.88,0.535c1.475,0,1.932-0.939,1.918-1.646
	c-0.013-1.188-1.083-1.695-2.193-1.695h-0.639v-0.861h0.639c0.836,0,1.894-0.432,1.894-1.438c0-0.678-0.431-1.279-1.487-1.279
	c-0.68,0-1.332,0.301-1.698,0.561l-0.3-0.834c0.443-0.326,1.305-0.654,2.22-0.654c1.671,0,2.428,0.994,2.428,2.025
	c0,0.875-0.522,1.619-1.567,1.998v0.025c1.045,0.207,1.894,0.992,1.894,2.178c0,1.359-1.058,2.547-3.095,2.547
	c-0.952,0-1.787-0.299-2.205-0.572L431.114,123.367z"/>
<path fill="#F2F1EF" d="M443.18,120.352c0,2.885-1.07,4.477-2.949,4.477c-1.658,0-2.781-1.553-2.808-4.359
	c0-2.846,1.228-4.414,2.95-4.414C442.162,116.055,443.18,117.648,443.18,120.352z M438.572,120.482c0,2.205,0.678,3.457,1.723,3.457
	c1.175,0,1.736-1.371,1.736-3.537c0-2.088-0.535-3.459-1.724-3.459C439.303,116.943,438.572,118.17,438.572,120.482z"/>
<path fill="#F2F1EF" d="M443.863,126.291c0.287-0.771,0.639-2.168,0.782-3.121l1.28-0.129c-0.301,1.107-0.875,2.559-1.24,3.172
	L443.863,126.291z"/>
<path fill="#F2F1EF" d="M452.01,117.166h-3.238l-0.326,2.18c0.196-0.027,0.379-0.053,0.692-0.053c0.653,0,1.306,0.145,1.827,0.457
	c0.666,0.379,1.214,1.109,1.214,2.182c0,1.656-1.317,2.896-3.159,2.896c-0.927,0-1.709-0.26-2.113-0.521l0.286-0.875
	c0.353,0.209,1.044,0.471,1.814,0.471c1.083,0,2.011-0.705,2.011-1.842c-0.014-1.096-0.744-1.879-2.441-1.879
	c-0.483,0-0.861,0.051-1.176,0.092l0.549-4.074h4.061V117.166z"/>
<path fill="#F2F1EF" d="M453.541,122.531c0-1.07,0.64-1.828,1.685-2.271l-0.015-0.039c-0.939-0.445-1.344-1.176-1.344-1.906
	c0-1.346,1.137-2.26,2.624-2.26c1.645,0,2.468,1.031,2.468,2.09c0,0.719-0.353,1.488-1.397,1.984v0.041
	c1.058,0.416,1.71,1.16,1.71,2.191c0,1.475-1.266,2.467-2.885,2.467C454.611,124.828,453.541,123.77,453.541,122.531z
	 M458.11,122.479c0-1.031-0.719-1.527-1.866-1.852c-0.993,0.287-1.527,0.939-1.527,1.746c-0.04,0.863,0.613,1.621,1.695,1.621
	C457.443,123.994,458.11,123.354,458.11,122.479z M454.951,118.236c0,0.848,0.64,1.305,1.619,1.566
	c0.73-0.248,1.293-0.771,1.293-1.541c0-0.678-0.406-1.383-1.438-1.383C455.473,116.879,454.951,117.506,454.951,118.236z"/>
<path fill="#F2F1EF" d="M460.347,124.684v-0.703l0.9-0.875c2.167-2.062,3.146-3.16,3.159-4.439c0-0.861-0.418-1.656-1.684-1.656
	c-0.771,0-1.41,0.391-1.802,0.717l-0.366-0.809c0.588-0.496,1.424-0.863,2.402-0.863c1.828,0,2.598,1.256,2.598,2.469
	c0,1.566-1.136,2.832-2.924,4.557l-0.68,0.627v0.025h3.812v0.951H460.347z"/>
<path fill="#F2F1EF" d="M493.381,123.367c0.326,0.207,1.084,0.535,1.88,0.535c1.476,0,1.933-0.939,1.919-1.646
	c-0.014-1.188-1.084-1.695-2.193-1.695h-0.64v-0.861h0.64c0.836,0,1.893-0.432,1.893-1.438c0-0.678-0.43-1.279-1.487-1.279
	c-0.68,0-1.332,0.301-1.698,0.561l-0.299-0.834c0.443-0.326,1.305-0.654,2.219-0.654c1.672,0,2.428,0.994,2.428,2.025
	c0,0.875-0.521,1.619-1.566,1.998v0.025c1.045,0.207,1.893,0.992,1.893,2.178c0,1.359-1.057,2.547-3.094,2.547
	c-0.953,0-1.788-0.299-2.205-0.572L493.381,123.367z"/>
<path fill="#F2F1EF" d="M499.899,124.006c0-0.482,0.326-0.822,0.783-0.822c0.456,0,0.77,0.34,0.77,0.822
	c0,0.471-0.3,0.822-0.783,0.822C500.212,124.828,499.899,124.477,499.899,124.006z"/>
<path fill="#F2F1EF" d="M502.406,122.531c0-1.07,0.64-1.828,1.685-2.271l-0.015-0.039c-0.939-0.445-1.344-1.176-1.344-1.906
	c0-1.346,1.137-2.26,2.624-2.26c1.645,0,2.468,1.031,2.468,2.09c0,0.719-0.353,1.488-1.396,1.984v0.041
	c1.057,0.416,1.709,1.16,1.709,2.191c0,1.475-1.266,2.467-2.885,2.467C503.477,124.828,502.406,123.77,502.406,122.531z
	 M506.976,122.479c0-1.031-0.719-1.527-1.866-1.852c-0.993,0.287-1.527,0.939-1.527,1.746c-0.04,0.863,0.613,1.621,1.695,1.621
	C506.311,123.994,506.976,123.354,506.976,122.479z M503.816,118.236c0,0.848,0.641,1.305,1.619,1.566
	c0.73-0.248,1.291-0.771,1.291-1.541c0-0.678-0.404-1.383-1.435-1.383C504.338,116.879,503.816,117.506,503.816,118.236z"/>
<path fill="#F2F1EF" d="M513.037,118.59c0,1.787-0.94,2.674-2.037,2.674c-1.058,0-1.971-0.848-1.984-2.557
	c0-1.697,0.927-2.652,2.051-2.652C512.253,116.055,513.037,116.969,513.037,118.59z M509.93,118.666
	c-0.025,1.084,0.379,1.906,1.097,1.906c0.757,0,1.097-0.809,1.097-1.932c0-1.031-0.301-1.893-1.097-1.893
	C510.309,116.748,509.93,117.598,509.93,118.666z M510.922,124.828l4.986-8.773h0.732l-4.988,8.773H510.922z M518.559,122.1
	c0,1.789-0.939,2.676-2.023,2.676c-1.057,0-1.971-0.848-1.984-2.545c0-1.711,0.928-2.662,2.05-2.662
	C517.788,119.568,518.559,120.482,518.559,122.1z M515.451,122.178c-0.012,1.084,0.405,1.908,1.109,1.908
	c0.758,0,1.098-0.811,1.098-1.934c0-1.031-0.301-1.893-1.098-1.893C515.844,120.26,515.451,121.109,515.451,122.178z"/>
<path fill="none" d="M614.967,62.565v6.167h16.396v-5.993c-2.461,0.6-5.103,0.93-7.854,0.93
	C620.5,63.669,617.621,63.276,614.967,62.565z"/>
<path fill="#CC3333" d="M667.946,18.005c-0.124-2.486-2.997-3.002-8.762-2.716l-33.928,5.035c-0.198-1.019-1.094-1.79-2.171-1.79
	c-1.064,0-1.952,0.752-2.165,1.753l-33.733-4.999c-5.764-0.286-8.637,0.23-8.762,2.716l-0.173,3.5
	c-0.123,2.486,2.55,3.466,8.313,3.752l34.305-2.211v5.93c0,0.336,0.08,0.652,0.216,0.938c-9.617,0.678-17.565,5.339-20.452,11.611
	h-38.664c-0.111-0.081-0.231-0.148-0.35-0.216l3.906-7.614c0.274-1.6-0.798-3.119-2.397-3.394l-2.249-0.388
	c-1.599-0.275-3.118,0.796-3.395,2.396l1.472,8.684c-1.465,0.419-2.537,1.764-2.537,3.361c0,1.126,0.535,2.125,1.362,2.765
	l-3.872,8.112c-0.23,1.606,0.887,3.093,2.491,3.323l2.261,0.324c1.606,0.229,3.093-0.884,3.323-2.492l-1.703-8.569
	c0.734-0.078,1.404-0.37,1.934-0.831l8.763,0.924c-0.539,3.292-1.763,11.625-0.409,11.964c1.499,0.375,8.812-7.894,10.878-10.859
	l18.783,1.981c1.259,3.424,4.006,6.426,7.721,8.648v9.088H596.26c-1.607,0-2.91,1.275-2.91,2.847c0,1.573,1.303,2.848,2.91,2.848
	h48.932c0.742,0,1.409-0.28,1.924-0.725l9.571-4.053c0.352-0.169,0.062-1.451-0.649-2.861c-0.713-1.41-1.573-2.416-1.926-2.245
	l-8.725,4.208c-0.065-0.004-0.127-0.019-0.195-0.019h-6.814v-8.693c5.585-3.1,12.975-7.9,12.975-13.295
	c0-8.968-13.709-16.302-26.237-16.884c0.118-0.272,0.186-0.57,0.186-0.885v-5.95l34.507,2.232c5.764-0.286,8.437-1.266,8.312-3.752
	L667.946,18.005z M631.362,68.732h-16.396v-6.167c2.654,0.711,5.533,1.104,8.541,1.104c2.752,0,5.394-0.331,7.854-0.93V68.732z
	 M632.861,35.829c7.805,0,14.13,4.769,14.13,10.651c0,5.882-6.325,10.651-14.13,10.651s-9.697-4.769-9.697-10.651
	C623.164,40.598,625.057,35.829,632.861,35.829z"/>
<path fill="#EEF1F1" d="M632.861,57.131c7.805,0,14.13-4.769,14.13-10.651c0-5.882-6.325-10.651-14.13-10.651
	s-9.697,4.769-9.697,10.651C623.164,52.362,625.057,57.131,632.861,57.131z"/>
<path fill="#CC3333" d="M82.633,127.234v16.095c0,2.601,2.109,4.71,4.711,4.71h11.449h0.443c-0.004-0.109-0.018-0.216-0.018-0.326
	c0-4.973,4.033-9.005,9.006-9.005c4.974,0,9.004,4.032,9.004,9.005c0,0.11-0.012,0.217-0.017,0.326h49.663
	c-0.005-0.109-0.018-0.216-0.018-0.326c0-4.973,4.032-9.005,9.006-9.005c4.972,0,9.004,4.032,9.004,9.005
	c0,0.11-0.013,0.217-0.017,0.326h9.2c2.602,0,4.71-2.109,4.71-4.71V109.57c0-2.602-2.108-4.711-4.71-4.711H98.793
	c-2.602,0-4.711,2.109-4.711,4.711v9.679l-6.738,3.275C84.742,122.524,82.633,124.632,82.633,127.234z M183.182,113.495
	c0-2.602,1.535-4.711,3.43-4.711h1.537c1.895,0,5.395,2.109,5.395,4.711v3.336c0,2.603-1.537,4.711-3.43,4.711h-3.502
	c-1.895,0-3.43-2.108-3.43-4.711V113.495z M165.516,113.495c0-2.602,2.107-4.711,4.709-4.711h4.809c2.603,0,4.711,2.109,4.711,4.711
	v3.336c0,2.603-2.108,4.711-4.711,4.711h-4.809c-2.602,0-4.709-2.108-4.709-4.711V113.495z M148.013,113.495
	c0-2.602,2.109-4.711,4.71-4.711h4.809c2.601,0,4.71,2.109,4.71,4.711v3.336c0,2.603-2.109,4.711-4.71,4.711h-4.809
	c-2.601,0-4.71-2.108-4.71-4.711V113.495z M130.347,113.495c0-2.602,2.109-4.711,4.711-4.711h4.81c2.601,0,4.71,2.109,4.71,4.711
	v3.336c0,2.603-2.109,4.711-4.71,4.711h-4.81c-2.602,0-4.711-2.108-4.711-4.711V113.495z M112.682,113.495
	c0-2.602,2.109-4.711,4.71-4.711h4.809c2.603,0,4.711,2.109,4.711,4.711v3.336c0,2.603-2.108,4.711-4.711,4.711h-4.809
	c-2.601,0-4.71-2.108-4.71-4.711V113.495z M97.637,113.495c0-2.602,3.719-4.711,5.885-4.711h2.034c2.166,0,3.92,2.109,3.92,4.711
	v3.336c0,2.603-1.754,4.711-3.92,4.711h-4.001c-2.164,0-3.918-2.108-3.918-4.711V113.495z"/>
<circle fill="#EEF1F1" cx="175.985" cy="148.039" r="7.851"/>
<circle fill="#EEF1F1" cx="108.108" cy="148.039" r="7.851"/>
<path fill="#EEF1F1" d="M186.611,108.784h1.537c1.895,0,5.395,2.109,5.395,4.711v3.336c0,2.603-1.537,4.711-3.43,4.711h-3.502
	c-1.895,0-3.43-2.108-3.43-4.711v-3.336C183.182,110.894,184.717,108.784,186.611,108.784z"/>
<path fill="#EEF1F1" d="M170.225,108.784h4.809c2.603,0,4.711,2.109,4.711,4.711v3.336c0,2.603-2.108,4.711-4.711,4.711h-4.809
	c-2.602,0-4.709-2.108-4.709-4.711v-3.336C165.516,110.894,167.623,108.784,170.225,108.784z"/>
<path fill="#EEF1F1" d="M152.723,108.784h4.809c2.601,0,4.71,2.109,4.71,4.711v3.336c0,2.603-2.109,4.711-4.71,4.711h-4.809
	c-2.601,0-4.71-2.108-4.71-4.711v-3.336C148.013,110.894,150.122,108.784,152.723,108.784z"/>
<path fill="#EEF1F1" d="M135.058,108.784h4.81c2.601,0,4.71,2.109,4.71,4.711v3.336c0,2.603-2.109,4.711-4.71,4.711h-4.81
	c-2.602,0-4.711-2.108-4.711-4.711v-3.336C130.347,110.894,132.456,108.784,135.058,108.784z"/>
<path fill="#EEF1F1" d="M117.392,108.784h4.809c2.603,0,4.711,2.109,4.711,4.711v3.336c0,2.603-2.108,4.711-4.711,4.711h-4.809
	c-2.601,0-4.71-2.108-4.71-4.711v-3.336C112.682,110.894,114.791,108.784,117.392,108.784z"/>
<path fill="#EEF1F1" d="M103.521,108.784h2.034c2.166,0,3.92,2.109,3.92,4.711v3.336c0,2.603-1.754,4.711-3.92,4.711h-4.001
	c-2.164,0-3.918-2.108-3.918-4.711v-3.336C97.637,110.894,101.355,108.784,103.521,108.784z"/>
<path fill="#063939" d="M624.368,92.356v-8.945h-45.623v8.945h-5.39v17.62l3.639,1.021v24.59c2.368,0.868,3.888,1.794,4.418,2.758
	h0.232v16.269h-8.289V160h56.402V92.356H624.368z"/>
<path fill="#063939" d="M248.812,108.844h21.458v-6.355h0.12c0.972-5.177,8.318-7.668,18.859-8.767V82.319l-33.615-13.002
	l-34.197,13.002v16.86h27.375V108.844z"/>
<path fill="#397070" d="M576.994,135.588v-24.59l-3.639-1.021l-31.826-8.932l-36.08,9.953v18.166
	c1.402-0.011,2.812-0.019,4.236-0.019C540.468,129.146,566.72,131.823,576.994,135.588z"/>
<path fill="#397070" d="M337.239,160V95.818c-6.858-2.241-17.509-2.86-29.484-2.86c-6.731,0-13.046,0.195-18.505,0.764
	c-10.541,1.098-17.888,3.589-18.859,8.767h-0.12v6.355h12.132V160h6.848h43.127l0,0H337.239z"/>
<path fill="#063939" d="M437.957,138.346c0.979-1.783,5.349-3.434,12.209-4.832V90.683l-56.82-15.996v15.759h2.814V160h4.862l0,0
	h36.701v-21.654H437.957z"/>
<polyline fill="#9CB8B8" points="396.16,160 396.16,90.445 393.346,90.445 390.727,90.445 390.727,78.4 384.147,78.4 
	384.147,56.653 381.002,56.653 381.002,51.518 374.709,51.518 374.709,28.748 368.561,28.748 368.561,5.751 364.84,5.751 
	364.84,28.748 358.691,28.748 358.691,51.518 352.398,51.518 352.398,56.653 349.253,56.653 349.253,78.4 342.674,78.4 
	342.674,90.445 337.239,90.445 337.239,95.818 337.239,160 "/>
<path fill="#9CB8B8" d="M581.645,160v-21.654h-0.232c-0.53-0.964-2.05-1.89-4.418-2.758c-10.274-3.765-36.526-6.442-67.309-6.442
	c-1.424,0-2.834,0.008-4.236,0.019c-22.997,0.186-43.086,1.865-55.283,4.35c-6.86,1.398-11.229,3.049-12.209,4.832h-0.233v20.653
	V160"/>
<polygon fill="#9CB8B8" points="270.271,108.844 248.812,108.844 248.812,99.18 221.438,99.18 215.217,99.18 215.217,108.844 
	205.258,108.844 205.258,160 282.402,160 282.402,159.378 282.402,108.844 "/>
</svg>
