<?xml version="1.0" encoding="utf-8"?>
<!-- Generator: Adobe Illustrator 15.0.0, SVG Export Plug-In  -->
<!DOCTYPE svg PUBLIC "-//W3C//DTD SVG 1.1//EN" "http://www.w3.org/Graphics/SVG/1.1/DTD/svg11.dtd" [
	<!ENTITY ns_flows "http://ns.adobe.com/Flows/1.0/">
]>
<svg version="1.1"
	 xmlns="http://www.w3.org/2000/svg" xmlns:xlink="http://www.w3.org/1999/xlink" xmlns:a="http://ns.adobe.com/AdobeSVGViewerExtensions/3.0/"
	 x="0px" y="0px" width="750px" height="160px" viewBox="0 0 750 160" overflow="visible" enable-background="new 0 0 750 160"
	 xml:space="preserve">
<defs>
</defs>
<rect fill-rule="evenodd" clip-rule="evenodd" fill="#ADCEDE" width="750" height="160"/>
<polygon fill="#8C7581" points="226.054,84.576 229.283,75.152 186.518,43.505 165.139,59.548 165.139,52.685 157.432,52.685 
	157.432,65.332 144.345,75.152 147.573,82.362 152.056,79.039 151.891,151.678 148.65,151.678 148.65,160 224.631,160 
	224.631,151.678 221.943,151.678 221.943,81.253 "/>
<polygon fill="#657B85" points="220.337,110.961 217.44,104.775 255.812,84.001 274.995,94.533 274.995,90.028 281.91,90.028 
	281.91,98.329 293.654,104.775 290.758,111.132 286.735,108.952 286.883,155.011 289.79,155.011 289.79,160 221.614,160 
	221.614,155.011 224.025,155.011 224.025,108.783 "/>
<path fill="#695861" d="M621.933,15c-3.419-5.719-17.261-10-33.828-10c-16.565,0-30.407,4.281-33.826,10h-3.7v145h74.778V15H621.933
	z"/>
<path fill="#F79868" d="M628.093,92.404v8.627l-7.825,7.826l7.825,7.824v29.631h63.026V92.404H628.093z M686.657,141.119h-54.625
	v-43.52h54.625V141.119z"/>
<rect x="632.032" y="97.599" fill="#FFFFFF" width="54.625" height="43.52"/>
<rect x="648.797" y="115.746" fill="#875874" width="8.684" height="24"/>
<rect x="660.387" y="110.919" fill="#875874" width="8.683" height="28.826"/>
<rect x="637.205" y="109.111" fill="#875874" width="8.685" height="30.635"/>
<rect x="671.977" y="106.576" fill="#875874" width="8.686" height="33.17"/>
<polygon fill="#319966" points="682.106,97.013 672.869,95.308 672.616,95.38 673.375,98.056 652.16,104.189 637.076,98.572 
	635.843,101.886 651.979,107.898 652.031,107.761 652.07,107.898 674.343,101.46 674.848,103.236 "/>
<polygon fill="#3F5A67" points="560.42,160 486.209,160 486.209,14.77 560.42,40.65 "/>
<path fill="#FAF8EF" d="M490.154,144.819V72.276h-13.506c-6.544-15.406-35.771-27.43-72.357-29.529v-4.482l-12.133-27.617
	l-12.134,27.617v4.566c-35.928,2.322-64.492,14.236-70.953,29.445h-14.443v72.543h-4.746v15.187h4.746h195.526h5.221v-15.187
	H490.154z"/>
<path fill="#F79868" d="M417.869,5.467v53.911h9.146l7.715,7.715l7.716-7.715h38.449V5.467H417.869z M476.273,54.093h-54.625V10.574
	h54.625V54.093z"/>
<rect x="421.648" y="10.574" fill="#FFFFFF" width="54.625" height="43.519"/>
<path fill="#453021" d="M449.581,46.294h-0.978v-2.031c0-1.249-0.576-2.263-1.285-2.263h-18.505c-0.711,0-1.287,1.014-1.287,2.263
	v2.031h-1.332c-0.711,0-1.287,1.016-1.287,2.265v4.485h25.96v-4.485C450.867,47.31,450.292,46.294,449.581,46.294z"/>
<path fill="#8A5F41" d="M433.116,24.61l-0.332,0.62c-0.433,0.814,0.155,1.977,1.315,2.597l10.78,5.753
	c1.16,0.62,2.453,0.462,2.889-0.352l0.33-0.62c0.428-0.801-0.136-1.938-1.262-2.563l0.656-1.229
	c0.519-0.027,1.035-0.232,1.476-0.584c0.042,0.035,0.086,0.069,0.135,0.095l0.187,0.101c0.428,0.228,1.022,0.002,1.51-0.515
	l13.065,6.439l10.886,5.813c1.162,0.617,2.561,0.263,3.127-0.799l0.133-0.248c0.566-1.061,0.083-2.422-1.076-3.043l-10.888-5.812
	l-12.621-7.273c0.159-0.693,0.018-1.312-0.412-1.54l-0.185-0.099c-0.052-0.027-0.103-0.045-0.156-0.061
	c0.048-0.56-0.068-1.104-0.336-1.55l0.455-0.852c0.038-0.071,0.069-0.142,0.098-0.214c1.148,0.595,2.417,0.433,2.846-0.372
	l0.331-0.619c0.435-0.814-0.155-1.976-1.313-2.596l-10.78-5.754c-1.161-0.62-2.454-0.463-2.89,0.352l-0.33,0.618
	c-0.355,0.665-0.029,1.562,0.732,2.204c-0.06,0.082-0.116,0.165-0.166,0.257l-0.765,1.432c-0.85,0.041-1.625,0.469-2.022,1.211
	l-2.32,4.348c-0.396,0.743-0.319,1.625,0.119,2.354l-1.002,1.878C434.377,23.724,433.468,23.952,433.116,24.61z"/>
<path fill-rule="evenodd" clip-rule="evenodd" fill="#0C6B8B" d="M282.027,122.366l-11.469-11.469l-0.257-6.03h26.854l-1.314,31.287
	l-10.487-7.395v-12.89c0-0.428-0.174-0.799-0.517-1.107c-0.292-0.31-0.653-0.464-1.082-0.464h-0.155
	c-0.396,0-0.757,0.154-1.082,0.464c-0.327,0.309-0.491,0.68-0.491,1.107V122.366z"/>
<path fill-rule="evenodd" clip-rule="evenodd" fill="#AF8B6A" d="M285.38,116.249l12.217-0.782l-3.07,39.41h-9.146v-19.484V116.249z
	 M282.054,117.148v18.244v19.484h-9.098l-2.372-39.784L282.054,117.148z"/>
<path fill-rule="evenodd" clip-rule="evenodd" fill="#2D281B" d="M273.111,159.462c0.137-0.945,0.565-1.777,1.287-2.499
	c0.877-0.842,1.943-1.263,3.197-1.263c0.033,0,0.068,0,0.102,0c1.169,0.016,2.176,0.438,3.016,1.263
	c0.431,0.395,0.748,0.843,0.953,1.34c0.208,0.464,0.336,0.97,0.388,1.521v0.052h-8.97
	C273.084,159.721,273.094,159.583,273.111,159.462z M294.322,159.593c0,0.102,0,0.18,0,0.23v0.052h-8.942v-0.143
	c0.001-0.099,0.018-0.188,0.052-0.271c0.118-0.945,0.54-1.777,1.262-2.499c0.858-0.842,1.924-1.263,3.195-1.263
	c0.052,0,0.086,0,0.103,0c1.169,0.016,2.167,0.438,2.99,1.263c0.429,0.395,0.756,0.843,0.979,1.34
	C294.15,158.698,294.27,159.128,294.322,159.593z"/>
<path fill-rule="evenodd" clip-rule="evenodd" fill="#3E3D4D" d="M285.38,159.733v-4.856h9.146l-0.204,4.717
	c-0.053-0.465-0.172-0.896-0.361-1.29c-0.224-0.497-0.551-0.945-0.979-1.34c-0.823-0.825-1.821-1.247-2.99-1.263
	c-0.017,0-0.051,0-0.103,0c-1.271,0-2.337,0.421-3.195,1.263c-0.722,0.722-1.144,1.554-1.262,2.499
	C285.397,159.545,285.381,159.634,285.38,159.733z M272.956,154.876h9.098v4.947c-0.052-0.551-0.18-1.057-0.388-1.521
	c-0.205-0.497-0.522-0.945-0.953-1.34c-0.84-0.825-1.847-1.247-3.016-1.263c-0.033,0-0.068,0-0.102,0
	c-1.254,0-2.32,0.421-3.197,1.263c-0.722,0.722-1.15,1.554-1.287,2.499L272.956,154.876z"/>
<polyline fill-rule="evenodd" clip-rule="evenodd" fill="#836850" points="269.359,112.651 270.946,121.083 282.027,124.223 
	282.113,115.425 283.729,115.76 285.288,115.44 285.38,121.537 296.881,125.063 298.509,112.651 298.652,110.871 268.912,110.009 
	269.359,112.651 "/>
<path fill-rule="evenodd" clip-rule="evenodd" fill="#008AAA" d="M273.883,62.831c0.534,0.842,0.705,1.77,0.516,2.783l-2.009,8.918
	l-9.434,8.761l4.278-19.276c0.189-0.998,0.705-1.762,1.546-2.295c0.877-0.549,1.813-0.711,2.811-0.488
	C272.57,61.421,273.334,61.954,273.883,62.831z"/>
<path fill-rule="evenodd" clip-rule="evenodd" fill="#40192D" d="M294.526,60.02c2.235,0.465,3.626,0.99,4.177,1.574v50.016
	c-0.551,0.568-1.941,3.377-4.177,3.824c-0.876,0.189-1.777,0.345-2.704,0.464c-1.065,0.137-2.208,0.249-3.428,0.335l-4.666-4.665
	l-4.639,4.64c-1.22-0.067-2.363-0.18-3.427-0.335c-0.894-0.103-1.743-0.249-2.552-0.438c-0.105-0.018-0.199-0.034-0.283-0.051
	l-4.073-3.387V61.954c0.24-0.738,1.692-1.383,4.356-1.934c2.954-0.6,6.494-0.9,10.617-0.9c0.018,0,0.061,0,0.129,0
	C288.017,59.12,291.57,59.42,294.526,60.02z"/>
<path fill-rule="evenodd" clip-rule="evenodd" fill-opacity="0.149" d="M284.215,90.306c0.309-0.996,0.945-1.735,1.906-2.216
	l12.582-5.49v8.866c-0.104,0.05-0.198,0.109-0.284,0.18l-0.565,0.258l0.023-0.026l-8.019,2.914c-0.91,0.566-1.89,0.651-2.938,0.256
	c-1.031-0.205-1.822-0.773-2.372-1.7C284.033,92.368,283.924,91.354,284.215,90.306z"/>
<polygon fill-rule="evenodd" clip-rule="evenodd" fill-opacity="0.251" points="295.248,67.211 289.632,67.211 293.445,70.563 
	283.936,78.088 274.398,70.563 278.188,67.211 272.519,67.211 272.519,59.917 295.248,59.917 "/>
<rect x="272.545" y="56.284" fill-rule="evenodd" clip-rule="evenodd" fill-opacity="0.251" width="22.755" height="3.866"/>
<path fill-rule="evenodd" clip-rule="evenodd" fill="#E7D1B6" d="M308.832,39.329c0,1.101-0.412,2.062-1.237,2.887
	c-0.774,0.791-1.728,1.186-2.86,1.186c-0.069,0-0.147,0-0.233,0v-3.736c0-0.139,0-0.275,0-0.414c0-0.102,0-0.214,0-0.334
	c-0.034-1.271-0.171-2.484-0.412-3.635c0.224-0.017,0.438-0.025,0.646-0.025c1.133,0,2.086,0.404,2.86,1.212
	C308.42,37.241,308.832,38.195,308.832,39.329z M260.25,36.468c0.773-0.808,1.727-1.212,2.861-1.212c0.051,0,0.086,0,0.103,0v8.145
	h-0.103c-1.135,0-2.088-0.395-2.861-1.186c-0.791-0.824-1.186-1.786-1.186-2.887C259.064,38.195,259.459,37.241,260.25,36.468z"/>
<path fill-rule="evenodd" clip-rule="evenodd" fill="#D9C4AB" d="M278.858,59.844c-0.052-0.018-0.086-0.027-0.104-0.027
	c-0.256-0.033-0.514-0.051-0.772-0.051c-0.602-0.068-1.168-0.129-1.699-0.18c-0.259-0.068-0.51-0.121-0.748-0.154
	c-0.137-0.035-0.251-0.053-0.337-0.053c-0.445-0.051-0.902-0.112-1.364-0.18c-0.276-0.068-0.532-0.138-0.774-0.207
	c-0.514-0.086-1.031-0.197-1.545-0.334c-0.068-0.018-0.121-0.027-0.155-0.027c-0.274-0.049-0.532-0.12-0.774-0.205
	c-0.549-0.138-1.106-0.31-1.675-0.516c-0.171-0.035-0.36-0.094-0.566-0.182c-0.086-0.033-0.146-0.05-0.18-0.05
	c-0.603-0.241-1.161-0.474-1.675-0.695c-0.294-0.104-0.561-0.224-0.799-0.361c-0.619-0.311-1.178-0.628-1.676-0.954
	c-0.31-0.258-0.576-0.48-0.8-0.67c-0.858-0.825-1.297-1.728-1.313-2.706v-9.407L278.858,59.844z M284.013,60.024V35
	c1.717-0.104,3.299-0.516,4.742-1.239c0.052-0.033,0.111-0.059,0.18-0.075c0.481-0.224,0.92-0.464,1.314-0.722
	c0.274-0.189,0.541-0.378,0.799-0.567c0.636-0.499,1.194-1.048,1.677-1.65c0.272-0.378,0.531-0.764,0.772-1.159
	c0.223-0.378,0.42-0.781,0.592-1.21c0.652-1.255,1.032-2.629,1.135-4.124h0.953c0.43,0.051,0.834,0.094,1.21,0.129
	c3.542,0.584,5.371,3.1,5.491,7.551v5.051h3.247v15.31c0,0.859-0.369,1.685-1.108,2.474c-0.447,0.465-1.013,0.902-1.699,1.314
	c-0.242,0.137-0.491,0.285-0.749,0.438c-0.515,0.274-1.082,0.532-1.699,0.772c-0.191,0.034-0.353,0.112-0.49,0.232
	c-0.104,0-0.198,0.026-0.285,0.077c-0.154,0.035-0.291,0.078-0.412,0.128c-0.411,0.156-0.842,0.311-1.288,0.465
	c-0.241,0.035-0.498,0.104-0.773,0.207c-0.532,0.154-1.098,0.283-1.7,0.387c-0.242,0.068-0.482,0.138-0.722,0.205
	c-0.567,0.139-1.135,0.25-1.701,0.336c-0.241,0.016-0.475,0.033-0.696,0.051c-0.033,0-0.06,0.018-0.076,0.053
	c-0.552,0.102-1.109,0.18-1.677,0.23c-0.258,0.018-0.524,0.053-0.799,0.104c-0.549,0.018-1.1,0.068-1.649,0.154
	c-0.257,0-0.523,0.01-0.798,0.025c-0.534,0.035-1.092,0.062-1.675,0.078c-0.139,0-0.276,0-0.413,0H284.013z"/>
<path fill-rule="evenodd" clip-rule="evenodd" fill="#E7D1B6" d="M284.013,60.024h-1.701c-0.378-0.016-0.738-0.025-1.084-0.025
	c-0.274-0.035-0.53-0.053-0.771-0.053c-0.583-0.016-1.117-0.051-1.598-0.102L261.9,42.885v-5.902h3.222l0.129-8.221
	c0-0.412,0.077-0.781,0.231-1.107c0.207-0.396,0.464-0.766,0.772-1.109c0.774-0.756,1.72-1.135,2.835-1.135
	c0.292,0,0.567,0.027,0.826,0.078c0.737,0.138,1.399,0.49,1.983,1.057c0.018,0.035,0.033,0.061,0.053,0.076
	c0.204,0.208,0.377,0.422,0.516,0.646c0.085,0.102,0.162,0.23,0.229,0.387c0.035,0.068,0.276,0.522,0.723,1.365l0.31,0.489
	c0.635,1.049,1.1,1.718,1.39,2.011c0.93,0.928,1.944,1.676,3.043,2.24c1.443,0.724,3.032,1.136,4.769,1.239h0.025
	c0.017,0,0.044,0,0.076,0c0.155,0,0.294,0,0.412,0c0.208,0,0.398,0,0.568,0V60.024z"/>
<path fill-rule="evenodd" clip-rule="evenodd" fill="#4C3A2D" d="M295.224,24.639c0.859-3.16,0.637-6.229-0.67-9.201
	c1.804,0.826,3.506,1.916,5.103,3.273c1.236,1.066,2.311,2.199,3.222,3.402c1.718,2.302,2.767,4.837,3.144,7.602
	c0.052,0.379,0.086,0.766,0.104,1.16v6.495h-3.247V32.32c-0.12-4.45-1.949-6.968-5.491-7.551c-0.376-0.035-0.78-0.078-1.21-0.13
	H295.224z"/>
<path fill-rule="evenodd" clip-rule="evenodd" fill="#5B4C41" d="M284.013,35.385c-0.17,0-0.36,0-0.568,0c-0.118,0-0.257,0-0.412,0
	c-0.032,0-0.06,0-0.076,0h-0.025c-1.736-0.102-3.325-0.514-4.769-1.236c-1.099-0.566-2.113-1.314-3.043-2.242
	c-0.29-0.292-0.755-0.962-1.39-2.01l-0.31-0.49c-0.446-0.842-0.688-1.297-0.723-1.365c-0.067-0.156-0.145-0.284-0.229-0.387
	c-0.139-0.223-0.312-0.438-0.516-0.645c-0.02-0.018-0.035-0.043-0.053-0.078c-0.584-0.566-1.246-0.919-1.983-1.056
	c-0.259-0.052-0.534-0.077-0.826-0.077c-1.115,0-2.061,0.377-2.835,1.133c-0.309,0.344-0.565,0.713-0.772,1.109
	c-0.154,0.326-0.231,0.695-0.231,1.107l-0.129,8.222H261.9v-5.696c0.017-0.84,0.076-1.684,0.18-2.525
	c0.636-4.811,2.723-9.004,6.263-12.576c3.626-3.591,7.879-5.688,12.758-6.289c0.944-0.12,1.917-0.18,2.912-0.18
	c0.291,0,0.585,0.009,0.877,0.025c3.264,0.258,6.09,1.581,8.479,3.969c0.431,0.43,0.825,0.876,1.186,1.34
	c1.307,2.973,1.529,6.041,0.67,9.201c-0.103,1.495-0.482,2.869-1.135,4.124c-0.172,0.429-0.369,0.833-0.592,1.21
	c-0.241,0.396-0.5,0.781-0.772,1.16c-0.482,0.602-1.041,1.152-1.677,1.648c-0.258,0.189-0.524,0.379-0.799,0.568
	c-0.395,0.258-0.833,0.499-1.314,0.722c-0.068,0.018-0.128,0.042-0.18,0.077C287.312,34.872,285.729,35.284,284.013,35.385z"/>
<path fill-rule="evenodd" clip-rule="evenodd" fill="#0C6B8B" d="M286.1,86.697c0.242,0.239,0.361,0.522,0.361,0.851
	c0,0.342-0.119,0.626-0.361,0.849c-0.222,0.259-0.508,0.387-0.85,0.387c-0.328,0-0.609-0.128-0.851-0.387
	c-0.259-0.223-0.387-0.507-0.387-0.849"/>
<path fill-rule="evenodd" clip-rule="evenodd" fill-opacity="0.149" d="M280.328,97.984c-0.309-0.997-0.944-1.735-1.907-2.217
	l-9.509-5.49v8.866c0.104,0.053,0.196,0.111,0.283,0.181l0.566,0.258l-0.026-0.025l4.949,2.913c0.911,0.565,1.888,0.651,2.938,0.258
	c1.03-0.206,1.822-0.773,2.37-1.702C280.509,100.044,280.62,99.032,280.328,97.984z"/>
<path fill-rule="evenodd" clip-rule="evenodd" fill="#40192D" d="M295.308,91.46L292.83,84.2l5.271-1.764l-3.373-16.707
	c-0.137-1.102,0.097-2.044,0.7-2.83c0.675-0.876,1.533-1.398,2.569-1.566c1.071-0.09,2.042,0.219,2.913,0.929
	c0.83,0.562,1.306,1.382,1.429,2.46l3.921,19.984c0.103,0.936-0.106,1.804-0.627,2.608c-0.499,0.79-1.189,1.319-2.072,1.591
	L295.308,91.46z"/>
<path fill-rule="evenodd" clip-rule="evenodd" fill="#E7D1B6" d="M289.027,85.507c-0.027,0.134-0.014,0.313,0.044,0.536l2.048,6.171
	c0.038,0.235,0.109,0.4,0.213,0.492l-3.23,1.085c-1.009,0.368-1.986,0.26-2.935-0.327c-0.966-0.413-1.622-1.131-1.97-2.152
	c-0.303-1.065-0.202-2.088,0.303-3.069c0.506-0.895,1.28-1.487,2.323-1.777L289.027,85.507z"/>
<path fill-rule="evenodd" clip-rule="evenodd" fill="#B9D1E5" d="M292.83,84.2l2.478,7.261l-0.674,0.203
	c-0.195,0.081-0.367,0.151-0.52,0.207l-0.607,0.135l0.03-0.02l-2.205,0.721c-0.104-0.092-0.175-0.257-0.213-0.492l-2.048-6.171
	c-0.058-0.223-0.071-0.402-0.044-0.536L292.83,84.2z"/>
<path fill-rule="evenodd" clip-rule="evenodd" fill="#40192D" d="M267.489,95.812l3.918-6.599l-4.794-2.808l6.855-19.948
	c0.361-1.048,0.326-2.019-0.104-2.912c-0.48-0.996-1.211-1.684-2.189-2.061c-1.032-0.311-2.046-0.207-3.042,0.307
	c-0.928,0.379-1.563,1.084-1.908,2.115l-8.065,23.04c-0.293,0.893-0.267,1.787,0.077,2.68c0.327,0.877,0.894,1.537,1.701,1.986
	L267.489,95.812z"/>
<path fill-rule="evenodd" clip-rule="evenodd" fill="#E7D1B6" d="M274.86,91.278c0,0.137-0.051,0.308-0.156,0.514l-3.271,5.619
	c-0.086,0.224-0.188,0.37-0.309,0.438l2.938,1.725c0.91,0.569,1.89,0.662,2.938,0.285c1.032-0.207,1.821-0.773,2.372-1.703
	c0.515-0.978,0.626-2.001,0.335-3.063c-0.31-0.98-0.945-1.72-1.908-2.218L274.86,91.278z"/>
<path fill-rule="evenodd" clip-rule="evenodd" fill="#B9D1E5" d="M271.407,89.213l-3.918,6.599l0.619,0.336
	c0.171,0.122,0.326,0.224,0.463,0.308l0.566,0.259l-0.024-0.025l2.011,1.16c0.12-0.068,0.223-0.215,0.309-0.438l3.271-5.619
	c0.105-0.206,0.156-0.377,0.156-0.514L271.407,89.213z"/>
<path fill-rule="evenodd" clip-rule="evenodd" fill="#E7D1B6" d="M274.86,91.278c0,0.137-0.051,0.308-0.156,0.514l-3.271,5.619
	c-0.086,0.224-0.188,0.37-0.309,0.438l2.938,1.725c0.91,0.569,1.89,0.662,2.938,0.285c1.032-0.207,1.821-0.773,2.372-1.703
	c0.515-0.978,0.626-2.001,0.335-3.063c-0.31-0.98-0.945-1.72-1.908-2.218L274.86,91.278z"/>
<path fill-rule="evenodd" clip-rule="evenodd" fill="#B9D1E5" d="M271.407,89.213l-3.918,6.599l0.619,0.336
	c0.171,0.122,0.326,0.224,0.463,0.308l0.566,0.259l-0.024-0.025l2.011,1.16c0.12-0.068,0.223-0.215,0.309-0.438l3.271-5.619
	c0.105-0.206,0.156-0.377,0.156-0.514L271.407,89.213z"/>
<path fill-rule="evenodd" clip-rule="evenodd" fill="#424240" d="M272.308,93.029c0.242-0.069,0.431-0.215,0.568-0.438
	c0.103-0.205,0.137-0.429,0.103-0.67c-0.068-0.24-0.205-0.42-0.413-0.541c-0.224-0.102-0.454-0.12-0.695-0.053
	c-0.223,0.069-0.403,0.199-0.541,0.388c-0.103,0.206-0.119,0.43-0.052,0.671c0.035,0.24,0.155,0.421,0.361,0.541
	C271.863,93.046,272.086,93.081,272.308,93.029z"/>
<path fill-rule="evenodd" clip-rule="evenodd" fill="#FFFFFF" d="M281.333,70.743l-3.376-10.928h2.087l2.474,2.475L281.333,70.743z
	 M289.966,59.79l-3.35,10.953l-1.263-8.453l2.499-2.475l-0.025-0.025H289.966z"/>
<polygon fill-rule="evenodd" clip-rule="evenodd" fill="#2B8181" points="286.616,70.743 289.966,59.79 290.378,58.295 
	295.325,58.295 295.325,66.799 289.656,66.799 293.497,70.665 283.962,79.428 "/>
<polygon fill-rule="evenodd" clip-rule="evenodd" fill="#39ADAC" points="277.957,59.815 281.333,70.743 283.962,79.428 
	274.424,70.665 278.265,66.799 272.596,66.799 272.596,58.295 277.491,58.295 277.957,59.79 "/>
<path fill-rule="evenodd" clip-rule="evenodd" fill="#E7D1B6" d="M274.86,91.278c0,0.137-0.051,0.308-0.156,0.514l-3.271,5.619
	c-0.086,0.224-0.188,0.37-0.309,0.438l2.938,1.725c0.91,0.569,1.89,0.662,2.938,0.285c1.032-0.207,1.821-0.773,2.372-1.703
	c0.515-0.978,0.626-2.001,0.335-3.063c-0.31-0.98-0.945-1.72-1.908-2.218L274.86,91.278z"/>
<path fill-rule="evenodd" clip-rule="evenodd" fill="#39ADAC" d="M271.407,89.213l-3.918,6.599l0.619,0.336
	c0.171,0.122,0.326,0.224,0.463,0.308l0.566,0.259l-0.024-0.025l2.011,1.16c0.12-0.068,0.223-0.215,0.309-0.438l3.271-5.619
	c0.105-0.206,0.156-0.377,0.156-0.514L271.407,89.213z"/>
<path opacity="0.32" fill-rule="evenodd" clip-rule="evenodd" fill="#000033" d="M294.526,109.928
	c2.235,0.465,3.626-0.163,4.177,0.42v1.262c-0.551,0.568-1.941,3.377-4.177,3.824c-0.876,0.189-1.777,0.345-2.704,0.464
	c-1.065,0.137-2.208,0.249-3.428,0.335l-4.666-4.665l-4.639,4.64c-1.22-0.067-2.363-0.18-3.427-0.335
	c-0.894-0.103-1.743-0.249-2.552-0.438c-0.105-0.018-0.199-0.034-0.283-0.051l-4.073-3.387v-1.288c0.24-0.738,1.692-0.23,4.356-0.78
	c2.954-0.602,6.494-0.902,10.617-0.902c0.018,0,0.061,0,0.129,0C288.017,109.026,291.57,109.327,294.526,109.928z"/>
<polyline fill-rule="evenodd" clip-rule="evenodd" fill="#3E3D4D" points="280.268,60.004 282.518,62.29 281.333,70.743 
	283.432,77.696 283.936,78.088 284.438,77.647 286.616,70.743 285.354,62.29 287.65,59.909 280.456,59.946 "/>
<polygon fill-rule="evenodd" clip-rule="evenodd" fill="#AFA9A4" points="289.142,89.882 286.33,89.882 285.562,78.121 
	289.909,78.121 "/>
<circle fill-rule="evenodd" clip-rule="evenodd" fill="#AFA9A4" cx="287.799" cy="75.741" r="4.027"/>
<path fill-rule="evenodd" clip-rule="evenodd" fill="#E7D1B6" d="M289.027,85.507c-0.027,0.134-0.014,0.313,0.044,0.536l2.048,6.171
	c0.038,0.235,0.109,0.4,0.213,0.492l-3.23,1.085c-1.009,0.368-1.986,0.26-2.935-0.327c-0.966-0.413-1.622-1.131-1.97-2.152
	c-0.303-1.065-0.202-2.088,0.303-3.069c0.506-0.895,1.28-1.487,2.323-1.777L289.027,85.507z"/>
<path fill-rule="evenodd" clip-rule="evenodd" fill="#39ADAC" d="M292.83,84.2l2.478,7.261l-0.674,0.203
	c-0.195,0.081-0.367,0.151-0.52,0.207l-0.607,0.135l0.03-0.02l-2.205,0.721c-0.104-0.092-0.175-0.257-0.213-0.492l-2.048-6.171
	c-0.058-0.223-0.071-0.402-0.044-0.536L292.83,84.2z"/>
<path fill-rule="evenodd" clip-rule="evenodd" fill="none" stroke="#262622" stroke-miterlimit="10" d="M286.461,92.169
	c0,0,3.134,31.557,7.861,37.121c5.831,6.863,21.376,14.251,24.205,19.938c2.387,4.799,2.334,9.777-1.666,9.611
	s-8.334-2.615-3.334-6.113s15.334-1.048,18.667,2.449c3.333,3.498,14.333,1.525,14.333,4.824"/>
<path fill-rule="evenodd" clip-rule="evenodd" fill="#E7D1B6" d="M289.027,85.507c-0.027,0.134-0.014,0.313,0.044,0.536l2.048,6.171
	c0.038,0.235,0.109,0.4,0.213,0.492l-3.23,1.085c-1.009,0.368-1.986,0.26-2.935-0.327c-0.966-0.413-1.622-1.131-1.97-2.152
	c-0.303-1.065-0.202-2.088,0.303-3.069c0.506-0.895,1.28-1.487,2.323-1.777L289.027,85.507z"/>
<path fill="#F79868" d="M148.32,66.896V36.309H85.294v53.91h63.026v-8.027l7.647-7.649L148.32,66.896z M144.42,85.024H89.795V41.503
	h54.625V85.024z"/>
<rect x="89.795" y="41.503" fill="#FFFFFF" width="54.625" height="43.521"/>
<circle fill="#FFE200" cx="103.983" cy="54.709" r="15.17"/>
<path fill="#A8E1EC" d="M138.224,65.303c0.075-0.41,0.127-0.824,0.127-1.247c0-4.891-5.178-8.854-11.564-8.854
	c-3.581,0-6.778,1.244-8.899,3.198c-0.804-0.43-1.707-0.677-2.667-0.677c-2.216,0-4.146,1.292-5.18,3.209
	c-4.861,0.072-8.78,3.705-8.78,8.187c0,4.383,3.751,7.951,8.466,8.172c1.207,3.299,4.545,5.674,8.485,5.674
	c2.409,0,4.592-0.893,6.205-2.336c1.892,1,4.162,1.582,6.607,1.582c6.579,0,11.914-4.217,11.914-9.418
	C142.938,69.732,141.084,67.021,138.224,65.303z"/>
</svg>
