<?xml version="1.0" encoding="utf-8"?>
<!-- Generator: Adobe Illustrator 15.0.0, SVG Export Plug-In  -->
<!DOCTYPE svg PUBLIC "-//W3C//DTD SVG 1.1//EN" "http://www.w3.org/Graphics/SVG/1.1/DTD/svg11.dtd" [
	<!ENTITY ns_flows "http://ns.adobe.com/Flows/1.0/">
]>
<svg version="1.1"
	 xmlns="http://www.w3.org/2000/svg" xmlns:xlink="http://www.w3.org/1999/xlink" xmlns:a="http://ns.adobe.com/AdobeSVGViewerExtensions/3.0/"
	 x="0px" y="0px" width="750px" height="160px" viewBox="0 0 750 160" overflow="visible" enable-background="new 0 0 750 160"
	 xml:space="preserve">
<defs>
</defs>
<rect fill-rule="evenodd" clip-rule="evenodd" fill="#F3CFC0" width="750" height="160"/>
<path fill="#CC3333" d="M191.038,127.73c0.572-7.159-0.952-15.531-3.994-23.346c-6.1-15.678-17.807-26.56-20.648-27.666
	c-5.266-2.05-15.113-3.109-24.94-2.943c-9.827-0.166-19.674,0.894-24.94,2.943c-2.842,1.106-14.548,11.988-20.648,27.666
	c-3.041,7.814-4.565,16.187-3.994,23.346c-0.661,8.723,1.38,14.061,7.887,16.117c0.346,0.109,0.723,0.162,1.127,0.164
	c9.394,4.533,21.701-13.783,34.564-18.52c2.055-0.65,4.068-1.043,6.005-1.086c1.937,0.043,3.95,0.436,6.005,1.086
	c12.863,4.736,25.172,23.053,34.564,18.52c0.404-0.002,0.781-0.055,1.128-0.164C189.659,141.791,191.7,136.453,191.038,127.73z"/>
<circle fill="#EEF1F1" cx="120.621" cy="101.585" r="11.146"/>
<circle fill="#CC3333" cx="120.621" cy="101.585" r="8.388"/>
<circle fill="#EEF1F1" cx="155.188" cy="99.76" r="3.535"/>
<circle fill="#EEF1F1" cx="164.757" cy="95.058" r="5.354"/>
<circle fill="#EEF1F1" cx="168.282" cy="105.121" r="3.536"/>
<circle fill="#EEF1F1" cx="158.472" cy="110.411" r="5.353"/>
<path fill="#1F1A5B" d="M141.702,53.18c13.308,0,23.853,9.469,23.853,9.469c0.96,0.862,1.809,1.129,1.885,0.592c0,0,0,0,0-0.498
	c0-7.829-11.634-14.176-25.984-14.176s-25.983,6.347-25.983,14.176c0,0.944,0,0.944,0,0.944c0.271,0.998,1.215,1.043,2.096,0.101
	C117.567,63.789,127.487,53.18,141.702,53.18z"/>
<path fill="#1F1A5B" d="M141.645,60.916c10.243,0,18.36,7.289,18.36,7.289c0.739,0.664,1.393,0.869,1.451,0.456c0,0,0,0,0-0.382
	c0-6.027-8.955-10.913-20.001-10.913s-20.001,4.886-20.001,10.913c0,0.727,0,0.727,0,0.727c0.209,0.768,0.936,0.803,1.614,0.077
	C123.068,69.082,130.704,60.916,141.645,60.916z"/>
<path fill="#1F1A5B" d="M336.576,84.056l6.251,2.201l-0.646,1.836c-0.741,2.105-0.166,4.227,1.285,4.736l5.691,2.004
	c1.45,0.512,3.229-0.783,3.968-2.889l0.646-1.836l7.309,2.572c2.106,0.742,4.415-0.365,5.156-2.473l16.205-46.04
	c0.74-2.105-0.366-4.414-2.472-5.155l-24.504-8.624c-2.106-0.742-4.414,0.365-5.156,2.471l-16.204,46.042
	C333.364,81.007,334.47,83.315,336.576,84.056z M352.681,50.711c1.626-4.619,6.69-7.046,11.31-5.42
	c4.621,1.625,7.048,6.689,5.423,11.309c-1.628,4.62-6.691,7.047-11.312,5.421C353.481,60.396,351.055,55.333,352.681,50.711z"/>
<path fill="#1F1A5B" d="M357.143,25.624l24.504,8.625c2.106,0.742,4.314-0.08,4.933-1.836l1.49-4.237
	c0.618-1.755-0.589-3.779-2.694-4.52l-3.426-1.206l0.21-0.598c0.7-1.987-0.246-4.151-2.123-5.013
	c0.002-0.006,0.004-0.012,0.007-0.018c0.472-1.343,0.45-2.573-0.049-2.749l-8.927-3.142c-0.499-0.176-1.286,0.771-1.759,2.114
	c-0.003,0.006-0.003,0.012-0.005,0.018c-2.004-0.505-4.098,0.591-4.799,2.578l-0.21,0.597l-3.425-1.205
	c-2.106-0.742-4.314,0.081-4.932,1.835l-1.492,4.237C353.83,22.86,355.036,24.882,357.143,25.624z"/>
<path fill="#EEF1F1" d="M358.102,62.021c4.62,1.626,9.684-0.801,11.312-5.421c1.625-4.62-0.802-9.684-5.423-11.309
	c-4.619-1.626-9.684,0.801-11.31,5.42C351.055,55.333,353.481,60.396,358.102,62.021z M355.578,51.732
	c1.063-3.02,4.373-4.607,7.394-3.544c3.02,1.063,4.606,4.374,3.543,7.393c-1.062,3.02-4.373,4.607-7.394,3.544
	C356.102,58.062,354.515,54.751,355.578,51.732z"/>
<circle fill="#1F1A5B" cx="361.046" cy="53.656" r="5.798"/>
<path fill="#797A6C" d="M386.122,42.565l-3.074,8.881c15.72,2.823,27.541,14.948,27.541,29.475c0,11.793-7.793,21.998-19.133,26.934
	h-21.514v27.785h-23.323v-9.576c3.197-1.1,5.501-3.398,5.858-6.129c7.098-0.502,11.954-1.516,11.954-2.686
	c0-1.67-9.871-3.021-22.048-3.021s-22.047,1.352-22.047,3.021c0,1.17,4.855,2.184,11.953,2.686c0.358,2.73,2.661,5.029,5.859,6.129
	v9.576h-26.931v15.811h58.724h21.683V135.64v-17.771c17.268-5.529,29.587-19.984,29.587-36.946
	C421.212,62.209,406.214,46.558,386.122,42.565z M380.783,128.409c-4.64,0-8.401-3.762-8.401-8.402c0-4.639,3.762-8.4,8.401-8.4
	s8.402,3.762,8.402,8.4C389.186,124.647,385.423,128.409,380.783,128.409z"/>
<circle fill="#EEF1F1" cx="380.783" cy="120.008" r="8.401"/>
<path fill="#20210A" d="M499.274,98.824h-28.352c-2.534,0-4.589,2.055-4.589,4.588v49.153c0,2.534,2.055,4.589,4.589,4.589h28.352
	c2.534,0,4.589-2.055,4.589-4.589v-49.153C503.863,100.879,501.809,98.824,499.274,98.824z M501.068,148.903
	c0,2.157-1.75,3.906-3.906,3.906h-8.77c0-1.818-1.476-3.293-3.294-3.293c-1.819,0-3.294,1.475-3.294,3.293h-8.77
	c-2.157,0-3.906-1.749-3.906-3.906v-41.829c0-2.156,1.749-3.905,3.906-3.905h24.127c2.156,0,3.906,1.749,3.906,3.905V148.903z"/>
<path fill="#EEF1F1" d="M497.162,103.169h-24.127c-2.157,0-3.906,1.749-3.906,3.905v41.829c0,2.157,1.749,3.906,3.906,3.906h8.77
	c0-1.818,1.475-3.293,3.294-3.293c1.818,0,3.294,1.475,3.294,3.293h8.77c2.156,0,3.906-1.749,3.906-3.906v-41.829
	C501.068,104.918,499.318,103.169,497.162,103.169z"/>
<path fill="#20210A" d="M470.923,61.403h28.352c2.534,0,4.589-2.055,4.589-4.589V7.662c0-2.534-2.055-4.589-4.589-4.589h-28.352
	c-2.534,0-4.589,2.055-4.589,4.589v49.153C466.334,59.349,468.389,61.403,470.923,61.403z M469.129,11.323
	c0-2.157,1.749-3.906,3.906-3.906h8.77c0,1.818,1.475,3.293,3.294,3.293c1.818,0,3.294-1.475,3.294-3.293h8.77
	c2.156,0,3.906,1.749,3.906,3.906v41.829c0,2.157-1.75,3.906-3.906,3.906h-24.127c-2.157,0-3.906-1.749-3.906-3.906V11.323z"/>
<path fill="#EEF1F1" d="M473.035,57.058h24.127c2.156,0,3.906-1.749,3.906-3.906V11.323c0-2.157-1.75-3.906-3.906-3.906h-8.77
	c0,1.818-1.476,3.293-3.294,3.293c-1.819,0-3.294-1.475-3.294-3.293h-8.77c-2.157,0-3.906,1.749-3.906,3.906v41.829
	C469.129,55.309,470.878,57.058,473.035,57.058z"/>
<path fill="#1F1A5B" d="M485.099,85.788c-6.688,0-12.109,2.958-12.109,6.606c0,0.44,0,0.44,0,0.44
	c0.126,0.465,0.566,0.486,0.977,0.047c0,0,4.623-4.943,11.248-4.943c6.201,0,11.115,4.412,11.115,4.412
	c0.447,0.402,0.843,0.525,0.878,0.276c0,0,0,0,0-0.232C497.207,88.746,491.786,85.788,485.099,85.788z"/>
<path fill="#1F1A5B" d="M485.099,89.889c-5.148,0-9.321,2.277-9.321,5.086c0,0.338,0,0.338,0,0.338
	c0.098,0.358,0.436,0.375,0.753,0.037c0,0,3.558-3.807,8.656-3.807c4.773,0,8.557,3.397,8.557,3.397
	c0.345,0.31,0.648,0.404,0.676,0.212c0,0,0,0,0-0.178C494.419,92.166,490.246,89.889,485.099,89.889z"/>
<path fill="#1F1A5B" d="M496.329,67.176c0,0-4.914,4.412-11.115,4.412c-6.625,0-11.248-4.943-11.248-4.943
	c-0.41-0.439-0.851-0.418-0.977,0.047c0,0,0,0,0,0.44c0,3.648,5.422,6.606,12.109,6.606s12.108-2.958,12.108-6.606
	c0-0.232,0-0.232,0-0.232C497.172,66.651,496.776,66.774,496.329,67.176z"/>
<path fill="#1F1A5B" d="M485.099,69.638c5.147,0,9.32-2.277,9.32-5.085c0-0.178,0-0.178,0-0.178
	c-0.027-0.192-0.331-0.097-0.676,0.212c0,0-3.783,3.397-8.557,3.397c-5.099,0-8.656-3.806-8.656-3.806
	c-0.317-0.338-0.655-0.321-0.753,0.037c0,0,0,0,0,0.338C475.777,67.361,479.95,69.638,485.099,69.638z"/>
<path fill="#42B9A5" d="M490.107,108.506h-10.019c-1.618,0-2.931,1.312-2.931,2.931v10.019c0,1.619,1.312,2.931,2.931,2.931h10.019
	c1.619,0,2.932-1.312,2.932-2.931v-10.019C493.039,109.818,491.727,108.506,490.107,108.506z M490.737,109.52v3.116v8.063h-0.011
	c-0.104,0.797-1.021,1.42-2.135,1.42c-1.185,0-2.146-0.705-2.146-1.573c0-0.87,0.961-1.574,2.146-1.574
	c0.623,0,1.185,0.195,1.575,0.507v-6.741l-7.6,1.367v8.015h-0.009c-0.098,0.801-1.018,1.43-2.137,1.43
	c-1.185,0-2.145-0.704-2.145-1.574c0-0.868,0.96-1.572,2.145-1.572c0.609,0,1.157,0.186,1.548,0.484v-9.895l8.768-1.648V109.52z"/>
<path fill="#EEF1F1" d="M481.97,120.887c-0.391-0.299-0.938-0.484-1.548-0.484c-1.185,0-2.145,0.704-2.145,1.572
	c0,0.87,0.96,1.574,2.145,1.574c1.119,0,2.039-0.629,2.137-1.43h0.009v-8.015l7.6-1.367v6.741c-0.391-0.312-0.952-0.507-1.575-0.507
	c-1.185,0-2.146,0.704-2.146,1.574c0,0.868,0.961,1.573,2.146,1.573c1.114,0,2.03-0.623,2.135-1.42h0.011v-8.063v-3.116v-0.176
	l-8.768,1.648V120.887z"/>
<path fill="#CC3333" d="M490.107,129.411h-10.019c-1.618,0-2.931,1.312-2.931,2.932v10.019c0,1.618,1.312,2.931,2.931,2.931h10.019
	c1.619,0,2.932-1.312,2.932-2.931v-10.019C493.039,130.724,491.727,129.411,490.107,129.411z M490.738,130.426v3.116v8.062h-0.012
	c-0.104,0.797-1.021,1.42-2.135,1.42c-1.185,0-2.146-0.705-2.146-1.573c0-0.869,0.961-1.573,2.146-1.573
	c0.623,0,1.185,0.194,1.576,0.506v-6.74l-7.601,1.366v8.015h-0.009c-0.098,0.801-1.017,1.43-2.136,1.43
	c-1.186,0-2.146-0.704-2.146-1.573c0-0.868,0.96-1.573,2.146-1.573c0.608,0,1.157,0.187,1.548,0.485v-9.895l8.768-1.649V130.426z"/>
<path fill="#EEF1F1" d="M481.971,141.793c-0.391-0.299-0.939-0.485-1.548-0.485c-1.186,0-2.146,0.705-2.146,1.573
	c0,0.869,0.96,1.573,2.146,1.573c1.119,0,2.038-0.629,2.136-1.43h0.009v-8.015l7.601-1.366v6.74
	c-0.392-0.312-0.953-0.506-1.576-0.506c-1.185,0-2.146,0.704-2.146,1.573c0,0.868,0.961,1.573,2.146,1.573
	c1.114,0,2.03-0.623,2.135-1.42h0.012v-8.062v-3.116v-0.177l-8.768,1.649V141.793z"/>
<path fill="#42B9A5" d="M480.09,50.904h10.019c1.618,0,2.931-1.312,2.931-2.931V37.955c0-1.619-1.312-2.931-2.931-2.931H480.09
	c-1.619,0-2.932,1.312-2.932,2.931v10.019C477.158,49.592,478.471,50.904,480.09,50.904z M479.46,49.891v-3.116v-8.063h0.011
	c0.104-0.797,1.021-1.42,2.135-1.42c1.185,0,2.146,0.705,2.146,1.573c0,0.87-0.961,1.574-2.146,1.574
	c-0.623,0-1.185-0.195-1.575-0.507v6.741l7.6-1.367v-8.015h0.009c0.098-0.801,1.018-1.43,2.137-1.43
	c1.185,0,2.145,0.704,2.145,1.574c0,0.868-0.96,1.572-2.145,1.572c-0.609,0-1.157-0.186-1.548-0.484v9.895l-8.768,1.648V49.891z"/>
<path fill="#EEF1F1" d="M488.228,38.523c0.391,0.299,0.938,0.484,1.548,0.484c1.185,0,2.145-0.704,2.145-1.572
	c0-0.87-0.96-1.574-2.145-1.574c-1.119,0-2.039,0.629-2.137,1.43h-0.009v8.015l-7.6,1.367v-6.741
	c0.391,0.312,0.952,0.507,1.575,0.507c1.185,0,2.146-0.704,2.146-1.574c0-0.868-0.961-1.573-2.146-1.573
	c-1.114,0-2.03,0.623-2.135,1.42h-0.011v8.063v3.116v0.176l8.768-1.648V38.523z"/>
<path fill="#CC3333" d="M480.09,29.999h10.019c1.618,0,2.931-1.312,2.931-2.932V17.049c0-1.618-1.312-2.931-2.931-2.931H480.09
	c-1.619,0-2.932,1.312-2.932,2.931v10.019C477.158,28.687,478.471,29.999,480.09,29.999z M479.459,28.984v-3.116v-8.062h0.012
	c0.104-0.797,1.021-1.42,2.135-1.42c1.185,0,2.146,0.705,2.146,1.573c0,0.869-0.961,1.573-2.146,1.573
	c-0.623,0-1.185-0.194-1.576-0.506v6.74l7.601-1.366v-8.015h0.009c0.098-0.801,1.017-1.43,2.136-1.43
	c1.186,0,2.146,0.704,2.146,1.573c0,0.868-0.96,1.573-2.146,1.573c-0.608,0-1.157-0.187-1.548-0.485v9.895l-8.768,1.649V28.984z"/>
<path fill="#EEF1F1" d="M488.227,17.617c0.391,0.299,0.939,0.485,1.548,0.485c1.186,0,2.146-0.705,2.146-1.573
	c0-0.869-0.96-1.573-2.146-1.573c-1.119,0-2.038,0.629-2.136,1.43h-0.009V24.4l-7.601,1.366v-6.74
	c0.392,0.312,0.953,0.506,1.576,0.506c1.185,0,2.146-0.704,2.146-1.573c0-0.868-0.961-1.573-2.146-1.573
	c-1.114,0-2.03,0.623-2.135,1.42h-0.012v8.062v3.116v0.177l8.768-1.649V17.617z"/>
<path fill="#E73819" d="M631.472,26.261H618.34c-0.457-5.988-6.772-10.733-14.499-10.733c-7.728,0-14.04,4.745-14.499,10.733
	h-13.029v-2.983c0-1.351-1.095-2.447-2.445-2.447h-8.87c-1.353,0-2.448,1.097-2.448,2.447v2.983h-2.141
	c-1.351,0-2.447,1.095-2.447,2.446V76.32c0,1.352,1.097,2.446,2.447,2.446h71.063c1.351,0,2.446-1.095,2.446-2.446V28.707
	C633.918,27.355,632.822,26.261,631.472,26.261z M603.841,72.681c-11.402,0-20.646-9.243-20.646-20.646s9.243-20.646,20.646-20.646
	s20.646,9.244,20.646,20.646S615.243,72.681,603.841,72.681z"/>
<path fill="#EEF1F1" d="M603.841,31.389c-11.402,0-20.646,9.244-20.646,20.646s9.243,20.646,20.646,20.646
	s20.646-9.243,20.646-20.646S615.243,31.389,603.841,31.389z M603.841,64.652c-6.968,0-12.617-5.649-12.617-12.617
	c0-6.969,5.649-12.617,12.617-12.617s12.616,5.648,12.616,12.617C616.457,59.003,610.809,64.652,603.841,64.652z"/>
<circle fill="#E73819" cx="603.841" cy="52.035" r="12.617"/>
<path fill="#9A6F4B" d="M600.419,87.028v-2.587c0-2.714-2.006-4.914-4.479-4.914c-2.473,0-4.479,2.2-4.479,4.914v2.557
	l-20.834,36.085c-1.236,2.143-0.502,4.881,1.64,6.118c2.143,1.237,4.882,0.503,6.118-1.64l13.076-22.647v26.564
	c0,2.715,2.006,4.915,4.479,4.915c2.474,0,4.479-2.2,4.479-4.915v-26.534l13.076,22.646c1.236,2.143,3.977,2.878,6.118,1.641
	c2.143-1.237,2.876-3.976,1.641-6.118L600.419,87.028z"/>
<path fill="none" d="M251.434,107.454v6.611c0,0.864-0.466,1.563-1.042,1.563c-0.574,0-1.041-0.699-1.041-1.563v-6.611h-4.104
	c-3.828,0-4.93,2.143-4.93,6.021v1.781c0,3.879,1.102,6.021,4.93,6.021h9.551c3.827,0,4.929-2.143,4.929-6.021v-1.781
	c0-3.878-1.102-6.021-4.929-6.021H251.434z"/>
<rect x="239.926" fill="#9A6F4B" width="20.192" height="27.476"/>
<path fill="#9A6F4B" d="M239.926,106.984h0.088c1.146-1.071,2.668-1.716,4.519-1.716h10.979c1.851,0,3.372,0.645,4.519,1.716h0.089
	V68.32h-20.192V106.984z"/>
<path fill="#20210A" d="M266.91,27.476h-6.792h-20.192h-6.793c-1.824,0-3.304,1.479-3.304,3.304v34.236
	c0,1.824,1.479,3.304,3.304,3.304h6.793h20.192h6.792c1.825,0,3.305-1.479,3.305-3.304V30.78
	C270.215,28.956,268.735,27.476,266.91,27.476z M267.47,61.363c0,2.011-1.63,3.641-3.642,3.641h-27.613
	c-2.011,0-3.642-1.63-3.642-3.641V35.121c0-2.011,1.631-3.642,3.642-3.642h27.613c2.012,0,3.642,1.631,3.642,3.642V61.363z"/>
<path fill="#EEF1F1" d="M263.828,31.479h-27.613c-2.011,0-3.642,1.631-3.642,3.642v26.242c0,2.011,1.631,3.641,3.642,3.641h27.613
	c2.012,0,3.642-1.63,3.642-3.641V35.121C267.47,33.11,265.84,31.479,263.828,31.479z M244.517,55.416
	c-4.942,0-8.949-4.007-8.949-8.949c0-4.943,4.007-8.949,8.949-8.949s8.949,4.006,8.949,8.949
	C253.466,51.409,249.459,55.416,244.517,55.416z M264.248,52.398c0,1.825-1.479,3.305-3.304,3.305h-1.651
	c-1.825,0-3.305-1.479-3.305-3.305v-1.652c0-1.825,1.479-3.304,3.305-3.304h1.651c1.825,0,3.304,1.479,3.304,3.304V52.398z
	 M264.248,42.387c0,1.825-1.479,3.304-3.304,3.304h-1.651c-1.825,0-3.305-1.479-3.305-3.304v-1.652c0-1.825,1.479-3.305,3.305-3.305
	h1.651c1.825,0,3.304,1.479,3.304,3.305V42.387z"/>
<path fill="#42B9A5" d="M244.517,37.518c-4.942,0-8.949,4.006-8.949,8.949c0,4.941,4.007,8.949,8.949,8.949s8.949-4.007,8.949-8.949
	C253.466,41.524,249.459,37.518,244.517,37.518z M248.936,47.385h-4.538c-0.441,0-0.8-0.411-0.8-0.918
	c0-0.175,0.045-0.337,0.119-0.476c-0.073-0.133-0.119-0.282-0.119-0.443v-5.218c0-0.507,0.412-0.919,0.92-0.919
	c0.506,0,0.917,0.412,0.917,0.919v5.218v0h3.501c0.441,0,0.799,0.411,0.799,0.918S249.377,47.385,248.936,47.385z"/>
<path fill="#EEF1F1" d="M248.936,45.549h-3.501v0v-5.218c0-0.507-0.411-0.919-0.917-0.919c-0.508,0-0.92,0.412-0.92,0.919v5.218
	c0,0.162,0.046,0.311,0.119,0.443c-0.074,0.139-0.119,0.301-0.119,0.476c0,0.507,0.358,0.918,0.8,0.918h4.538
	c0.441,0,0.799-0.411,0.799-0.918S249.377,45.549,248.936,45.549z"/>
<path fill="#E73819" d="M260.944,37.431h-1.651c-1.825,0-3.305,1.479-3.305,3.305v1.652c0,1.825,1.479,3.304,3.305,3.304h1.651
	c1.825,0,3.304-1.479,3.304-3.304v-1.652C264.248,38.91,262.77,37.431,260.944,37.431z"/>
<path fill="#1F1A5B" d="M260.944,47.442h-1.651c-1.825,0-3.305,1.479-3.305,3.304v1.652c0,1.825,1.479,3.305,3.305,3.305h1.651
	c1.825,0,3.304-1.479,3.304-3.305v-1.652C264.248,48.921,262.77,47.442,260.944,47.442z"/>
<path fill="#797A6C" d="M244.532,105.269c-1.851,0-3.372,0.645-4.519,1.716c-1.583,1.478-2.45,3.772-2.45,6.357v2.048
	c0,4.459,2.566,8.073,6.969,8.073h10.979c4.402,0,6.969-3.614,6.969-8.073v-2.048c0-2.585-0.867-4.88-2.45-6.357
	c-1.146-1.071-2.668-1.716-4.519-1.716H244.532z M259.727,113.475v1.781c0,3.879-1.102,6.021-4.929,6.021h-9.551
	c-3.828,0-4.93-2.143-4.93-6.021v-1.781c0-3.878,1.102-6.021,4.93-6.021h4.104v-0.013c0-0.864,0.467-1.563,1.041-1.563
	c0.576,0,1.042,0.699,1.042,1.563v0.013h3.364C258.625,107.454,259.727,109.597,259.727,113.475z"/>
<path fill="#797A6C" d="M250.392,115.629c0.576,0,1.042-0.699,1.042-1.563v-6.611v-0.013c0-0.864-0.466-1.563-1.042-1.563
	c-0.574,0-1.041,0.699-1.041,1.563v0.013v6.611C249.351,114.93,249.817,115.629,250.392,115.629z"/>
</svg>
