<?xml version="1.0" encoding="utf-8"?>
<!-- Generator: Adobe Illustrator 15.0.0, SVG Export Plug-In  -->
<!DOCTYPE svg PUBLIC "-//W3C//DTD SVG 1.1//EN" "http://www.w3.org/Graphics/SVG/1.1/DTD/svg11.dtd" [
	<!ENTITY ns_flows "http://ns.adobe.com/Flows/1.0/">
]>
<svg version="1.1"
	 xmlns="http://www.w3.org/2000/svg" xmlns:xlink="http://www.w3.org/1999/xlink" xmlns:a="http://ns.adobe.com/AdobeSVGViewerExtensions/3.0/"
	 x="0px" y="0px" width="750px" height="160px" viewBox="0 0.146 750 160"
	 overflow="visible" enable-background="new 0 0.146 750 160" xml:space="preserve">
<defs>
</defs>
<rect fill-rule="evenodd" clip-rule="evenodd" fill="#E4DDE5" width="750" height="160"/>
<ellipse fill="#9D192D" cx="611.138" cy="48.646" rx="44.446" ry="37.98"/>
<circle fill="#9D192D" cx="559.743" cy="75.941" r="10.684"/>
<circle fill="#9D192D" cx="543.142" cy="86.626" r="6.822"/>
<path fill="#D9C4AB" d="M140.207,140.16c-0.244-0.121-0.518-0.301-0.809-0.521c-2.684-1.91-4.302-4.949-4.397-8.158
	c-0.004-0.049-0.011-0.096-0.015-0.145c-0.006-0.092-0.004-0.195,0.002-0.305c0.016-1.021,0.189-2.057,0.535-3.072l0.289-0.855
	l6.016-20.177c-0.787,0.449-12.148,0.687-17.592,3.906c-5.652,3.337-9.553,22.884-9.553,22.884l0.008,0.078l19.66,12.373"/>
<polygon fill="#9D192D" points="134.352,146.168 114.691,133.795 112.686,132.531 108.984,138.186 132.748,152.848 136.006,147.209 
	"/>
<path fill="#EEF1F1" d="M104.675,71.411c-3.396,0.715-5.567,4.047-4.852,7.442l2.087,9.903c0.716,3.395,4.047,5.567,7.441,4.852
	l1.024-0.216l-4.678-22.197L104.675,71.411z"/>
<path fill="#EEF1F1" d="M218.346,59.05c-1.695-8.047-6.037-13.959-9.785-13.429l6.25,29.665
	C218.456,74.259,220.041,67.097,218.346,59.05z"/>
<path fill="#3A3632" d="M119.027,106.504c0.486,2.307,4.637,3.386,9.271,2.41l1.77-0.373c-0.193,1.959-0.044,4.423,0.508,7.043
	l3.553,16.861c1.217,5.777,3.914,10.102,6.024,9.656l5.732-1.207c2.111-0.445,2.833-5.49,1.616-11.268l-3.553-16.861
	c-0.554-2.628-1.415-4.949-2.387-6.664c4.279-1.083,7.297-3.594,6.835-5.786l-0.314-1.493l-29.37,6.189L119.027,106.504z"/>
<path fill="#45516C" d="M141.932,50.183l-33.584,7.077c-2.953,0.623-4.768,3.879-4.053,7.274l1.403,6.661l4.678,22.197l1.403,6.66
	c0.715,3.395,3.689,5.642,6.643,5.021l0.291-0.061l29.37-6.189L152,97.997l-10.074-47.811L141.932,50.183z"/>
<path fill="#EEF1F1" d="M197.543,43.265c-1.703-8.084-2.729-15.331-2.907-19.829l-52.704,26.747l-0.006,0.003L152,97.997v0.001
	l59.023,3.206c-1.652-4.188-3.639-11.231-5.342-19.315L197.543,43.265z"/>
<path fill="#45516C" d="M214.811,75.286l-6.25-29.665l-0.943-4.479c-2.79-13.24-6.34-23.703-7.931-23.368l-4.317,0.909
	c-0.619,0.131-0.848,1.884-0.733,4.753c0.179,4.498,1.204,11.744,2.907,19.829l8.139,38.624c1.703,8.084,3.689,15.127,5.342,19.315
	c1.053,2.671,1.971,4.183,2.59,4.053l4.315-0.91c1.59-0.335,0.616-11.341-2.174-24.581L214.811,75.286z"/>
<path fill="#D9C4AB" d="M127.83,130.881c0,0,9.854-3.393,13.376-4.492c0.856-0.27-1.634,0.422-1.225,0.365
	c2.104-0.289,8.31-2.311,9.305-5.229c0.343-1.014-0.229-5.221-4.429-5.396c-0.901-0.037-2.002,0.104-3.168,0.342
	c-4.291,0.869-11.982,3.49-11.982,3.49"/>
<path fill="none" d="M458.521,9.876c-0.476,0-1.05,0.472-1.633,1.168h3.264C459.569,10.349,458.997,9.876,458.521,9.876z"/>
<path fill="#AF8B6A" d="M494.433,16.073c0.037,1.922,2.318,108.277,0,107.325s-78.469,2.669-74.902,0
	c3.566-2.668-3.209-105.228,0-107.325c1.23-0.804,12.514-1.273,25.966-1.439v-1.703h-23.26c-3.91,0-7.094,3.184-7.094,7.094
	l2.335,102.009c0,3.909,3.186,7.09,7.094,7.09h64.969c3.908,0,7.094-3.181,7.094-7.09l2.336-102.009c0-3.91-3.185-7.094-7.095-7.094
	h-20.312v1.745C484.331,14.877,494.418,15.352,494.433,16.073z"/>
<path fill="#37281C" d="M491.875,11.045h-23.646h-1.208c0.375,0.526,0.711,1.06,1.02,1.592h3.522v0.293h20.312
	c3.91,0,7.095,3.184,7.095,7.094l-2.336,102.009c0,3.909-3.186,7.09-7.094,7.09h-64.969c-3.908,0-7.094-3.181-7.094-7.09
	l-2.335-102.009c0-3.91,3.184-7.094,7.094-7.094h23.26v-0.293h3.509c0.309-0.533,0.645-1.066,1.02-1.592h-1.209h-26.579
	c-4.953,0-8.981,4.028-8.981,8.979l2.336,102.009c0,4.949,4.027,8.977,8.98,8.977h64.969c4.953,0,8.98-4.027,8.98-8.977
	l2.336-102.009C500.856,15.073,496.829,11.045,491.875,11.045z"/>
<path fill="#37281C" d="M460.152,11.045h-3.264c-0.38,0.454-0.758,1.009-1.121,1.592h5.506
	C460.91,12.054,460.532,11.499,460.152,11.045z"/>
<path fill="#EEF1F1" d="M419.53,123.397c-3.566,2.669,72.584-0.952,74.902,0s0.037-105.402,0-107.325
	c-0.015-0.721-10.102-1.196-22.87-1.397v3.111h-26.066v-3.154c-13.452,0.166-24.735,0.636-25.966,1.439
	C416.321,18.169,423.097,120.729,419.53,123.397z"/>
<path fill="#B6B6B6" d="M445.496,12.637v0.293v1.703v3.154h26.066v-3.111v-1.745v-0.293h-3.522c-0.309-0.533-0.645-1.066-1.02-1.592
	c-2.204-3.094-5.44-5.863-8.499-5.863c-3.057,0-6.293,2.769-8.497,5.863c-0.375,0.526-0.711,1.06-1.02,1.592H445.496z
	 M456.889,11.045c0.583-0.696,1.157-1.168,1.633-1.168s1.048,0.472,1.631,1.168c0.38,0.454,0.758,1.009,1.121,1.592h-5.506
	C456.131,12.054,456.509,11.499,456.889,11.045z"/>
<line fill="#C4C4C2" stroke="#485052" stroke-width="2" stroke-miterlimit="10" x1="424.531" y1="37.073" x2="487.004" y2="37.073"/>
<line fill="#C4C4C2" stroke="#485052" stroke-width="2" stroke-miterlimit="10" x1="484.116" y1="44.289" x2="424.531" y2="44.289"/>
<line fill="#C4C4C2" stroke="#485052" stroke-width="2" stroke-miterlimit="10" x1="424.531" y1="52.057" x2="487.004" y2="52.057"/>
<line fill="#C4C4C2" stroke="#485052" stroke-width="2" stroke-miterlimit="10" x1="424.531" y1="29.642" x2="484.116" y2="29.642"/>
<line fill="#C4C4C2" stroke="#485052" stroke-width="2" stroke-miterlimit="10" x1="424.531" y1="59.267" x2="487.004" y2="59.267"/>
<line fill="#C4C4C2" stroke="#485052" stroke-width="2" stroke-miterlimit="10" x1="484.116" y1="66.483" x2="424.531" y2="66.483"/>
<line fill="#C4C4C2" stroke="#485052" stroke-width="2" stroke-miterlimit="10" x1="424.531" y1="74.251" x2="487.004" y2="74.251"/>
<line fill="#C4C4C2" stroke="#485052" stroke-width="2" stroke-miterlimit="10" x1="424.531" y1="81.829" x2="487.004" y2="81.829"/>
<line fill="#C4C4C2" stroke="#485052" stroke-width="2" stroke-miterlimit="10" x1="424.531" y1="89.837" x2="484.116" y2="89.837"/>
<line fill="#C4C4C2" stroke="#485052" stroke-width="2" stroke-miterlimit="10" x1="424.531" y1="97.416" x2="478.604" y2="97.416"/>
<line fill="#C4C4C2" stroke="#485052" stroke-width="2" stroke-miterlimit="10" x1="424.531" y1="82.83" x2="439.171" y2="82.83"/>
<line fill="#C4C4C2" stroke="#485052" stroke-width="2" stroke-miterlimit="10" x1="424.531" y1="90.838" x2="438.494" y2="90.838"/>
<line fill="#C4C4C2" stroke="#485052" stroke-width="2" stroke-miterlimit="10" x1="424.531" y1="98.417" x2="437.202" y2="98.417"/>
<path fill="#37281C" d="M416.501,69.724h-3.389l0.917,40.089h3.406C417.445,99.458,416.98,84.582,416.501,69.724z"/>
<path fill="none" d="M420.599,109.606h74.786c0.157-10.348,0.081-25.225-0.083-40.09h-75.638
	C420.144,84.374,420.608,99.25,420.599,109.606z"/>
<path fill="none" d="M419.53,123.397c-3.566,2.669,72.584-0.952,74.902,0c0.533,0.219,0.822-5.241,0.952-13.792h-74.786
	C420.591,117.537,420.304,122.818,419.53,123.397z"/>
<path fill="#AF8B6A" d="M418.663,69.516h-3.389l0.917,40.09h3.406C419.607,99.25,419.143,84.374,418.663,69.516z"/>
<path fill="#3A3632" d="M421.696,112.611c-0.504,0.949-0.675,2.074-0.363,3.193l6.855,24.615c0.644,2.312,3.045,3.666,5.354,3.021
	c2.312-0.645,3.665-3.039,3.019-5.352l-6.852-24.617c-0.314-1.119-1.043-1.995-1.963-2.545c-0.949,0.41-1.93,0.787-2.959,1.072
	C423.762,112.285,422.726,112.471,421.696,112.611z"/>
<path fill="#45516C" d="M440.724,83.769c-3.392-12.174-16.057-19.322-28.232-15.932c-12.176,3.391-19.323,16.058-15.931,28.229
	c3.103,11.149,13.979,18.053,25.136,16.545c1.029-0.141,2.065-0.326,3.092-0.612c1.029-0.285,2.01-0.662,2.959-1.072
	C438.08,106.453,443.823,94.915,440.724,83.769z M423.923,108.882c-10.461,2.913-21.334-3.225-24.25-13.684
	c-2.912-10.458,3.227-21.332,13.688-24.242c10.454-2.914,21.331,3.223,24.242,13.68C440.515,95.093,434.376,105.969,423.923,108.882
	z"/>
<path opacity="0.73" fill="#C2E0E0" d="M414.272,74.39c-8.664,2.416-13.73,11.389-11.314,20.052
	c2.412,8.659,11.383,13.727,20.049,11.313c8.656-2.412,13.727-11.389,11.312-20.05C431.907,77.043,422.929,71.979,414.272,74.39z"/>
<path fill="#EEF1F1" d="M413.36,70.957c-10.461,2.91-16.6,13.783-13.688,24.242c2.916,10.459,13.789,16.596,24.25,13.684
	c10.453-2.913,16.592-13.789,13.68-24.245C434.691,74.18,423.814,68.042,413.36,70.957z M422.62,104.206
	c-7.896,2.199-16.069-2.417-18.267-10.307c-2.202-7.894,2.414-16.068,10.309-18.27c7.887-2.197,16.067,2.418,18.265,10.31
	C435.126,93.83,430.507,102.009,422.62,104.206z"/>
<path fill-rule="evenodd" clip-rule="evenodd" fill="#E8B567" d="M312.3,55.633c-15.984,0-30.276,6.171-39.81,15.872
	c-14.439-0.449-37.068-0.584-24.672,3.641c6.172,2.104,11.334,6.011,15.44,10.195c-1.89,4.603-2.929,9.547-2.929,14.702
	c0,24.527,23.267,44.408,51.97,44.408c28.702,0,51.97-19.881,51.97-44.408C364.27,75.515,341.002,55.633,312.3,55.633z"/>
<polygon fill="#719494" points="133.736,152.51 132.973,152.031 132.722,152.434 109.397,137.752 109.647,137.352 108.887,136.875 
	94.24,160.146 128.93,160.146 "/>
<polygon fill="none" points="507.344,144.889 523.733,140.685 521.515,141.253 "/>
<path fill="#D9C4AB" d="M522.686,132.049c2.34-3.274,0.936-12.857,0-18.235c-0.473-2.729-1.615-5.601-2.957-7.817
	c-1.305-2.153-2.798-3.69-4.057-3.871c-2.324-0.336-3.553,0.586-4.908-0.702c-0.865-0.82-5.365-1.925-6.768-1.284
	c-0.943,0.43-1.48,1.165-2.504,1.397c-0.5,0.114-1.107,0.117-1.951-0.113c-2.57-0.701-6.312,2.105-6.312,2.105
	s-3.74-9.119-5.377-15.431c-1.637-6.312-2.338-5.145-3.975-5.846s-4.208,1.637-3.975,5.378c0.234,3.741,7.949,30.159,7.949,30.159
	s-11.924-4.91-14.027-4.91c-2.105,0-3.975,2.806-3.273,5.844c0.526,2.283,6.334,4.832,10.974,7.247
	c1.535,0.799,2.942,1.583,3.988,2.338c1.834,1.324,3.269,3.227,4.575,5.146c1.689,2.482,3.164,4.992,5.01,6.311
	c0.71,0.508,1.34,1.208,1.896,1.984l24.853-6.373C521.861,134.266,520.855,134.611,522.686,132.049z"/>
<polygon fill="#719494" points="521.515,141.253 523.733,140.685 522.338,135.249 521.846,135.375 496.993,141.748 496.043,141.992 
	497.438,147.429 507.344,144.889 "/>
<line fill="none" stroke="#143943" stroke-width="0" stroke-linecap="round" stroke-linejoin="round" x1="507.344" y1="144.889" x2="521.515" y2="141.253"/>
<polygon fill="#E8B567" points="524.593,140.464 523.733,140.685 507.344,144.889 497.438,147.429 496.579,147.649 499.783,160.146 
	529.641,160.146 "/>
</svg>
