<?xml version="1.0" encoding="utf-8"?>
<!-- Generator: Adobe Illustrator 15.0.0, SVG Export Plug-In  -->
<!DOCTYPE svg PUBLIC "-//W3C//DTD SVG 1.1//EN" "http://www.w3.org/Graphics/SVG/1.1/DTD/svg11.dtd" [
	<!ENTITY ns_flows "http://ns.adobe.com/Flows/1.0/">
]>
<svg version="1.1"
	 xmlns="http://www.w3.org/2000/svg" xmlns:xlink="http://www.w3.org/1999/xlink" xmlns:a="http://ns.adobe.com/AdobeSVGViewerExtensions/3.0/"
	 x="0px" y="0px" width="750px" height="160px" viewBox="0 0 750 160" overflow="visible" enable-background="new 0 0 750 160"
	 xml:space="preserve">
<defs>
</defs>
<rect fill-rule="evenodd" clip-rule="evenodd" fill="#D3DB77" width="750" height="160"/>
<path fill="#999999" d="M141.871,94.245c0.014-0.069,0.023-0.139,0.027-0.207l0.118,0.023c0.745,0.155,1.474-0.323,1.627-1.069
	c0.155-0.745-0.323-1.474-1.068-1.628l-1.853-0.384c-0.744-0.153-1.473,0.325-1.627,1.07c-0.155,0.745,0.322,1.475,1.069,1.628
	l0.118,0.024c-0.023,0.063-0.044,0.132-0.059,0.201l-0.141,0.678c0.555,0.089,1.105,0.202,1.648,0.33L141.871,94.245z"/>
<path fill="#999999" d="M118.5,101.088c-0.055-0.048-0.109-0.089-0.168-0.126l0.081-0.091c0.505-0.568,0.456-1.438-0.112-1.944
	s-1.439-0.457-1.944,0.111l-1.259,1.411c-0.506,0.568-0.456,1.44,0.112,1.946c0.567,0.506,1.439,0.455,1.944-0.112l0.08-0.09
	c0.045,0.053,0.092,0.104,0.146,0.15l0.53,0.473c0.36-0.428,0.731-0.848,1.124-1.251L118.5,101.088z"/>
<path fill="#A3CEFF" d="M141.732,94.912c-0.543-0.128-1.094-0.241-1.648-0.33c-3.318-0.534-6.791-0.381-10.217,0.57l-0.264-0.801
	c-0.034-0.104-0.086-0.196-0.144-0.283l0.146-0.047c0.992-0.329,1.526-1.396,1.2-2.385c-0.327-0.99-1.395-1.527-2.386-1.2
	l-2.458,0.813c-0.989,0.327-1.526,1.395-1.199,2.385c0.327,0.989,1.396,1.526,2.384,1.199l0.145-0.048
	c0.007,0.104,0.021,0.208,0.056,0.312l0.264,0.8c-3.331,1.285-6.226,3.243-8.575,5.667c-0.393,0.403-0.764,0.823-1.124,1.251
	c-5.206,6.176-7.181,14.824-4.46,23.055c4.168,12.607,17.768,19.448,30.375,15.28c12.607-4.169,19.447-17.769,15.279-30.376
	C156.377,102.528,149.613,96.756,141.732,94.912z M142.656,137.613c-10.68,3.532-22.201-2.265-25.733-12.944
	c-3.531-10.682,2.264-22.202,12.944-25.734c10.68-3.531,22.201,2.265,25.733,12.944
	C159.133,122.561,153.337,134.081,142.656,137.613z"/>
<path fill="#EEF1F1" d="M129.867,98.935c-10.681,3.532-16.476,15.053-12.944,25.734c3.532,10.68,15.054,16.477,25.733,12.944
	c10.681-3.532,16.477-15.053,12.944-25.734C152.068,101.199,140.547,95.403,129.867,98.935z M120.861,123.992l-1.128,0.373
	c-0.368,0.122-0.766-0.078-0.888-0.447c-0.121-0.367,0.078-0.765,0.447-0.886l1.128-0.374c0.367-0.122,0.767,0.08,0.888,0.446
	C121.431,123.473,121.229,123.871,120.861,123.992z M130.354,101.962c-0.121-0.368,0.08-0.766,0.447-0.887
	c0.369-0.122,0.766,0.078,0.887,0.446l0.373,1.128c0.121,0.368-0.076,0.766-0.446,0.888c-0.367,0.122-0.765-0.078-0.887-0.447
	L130.354,101.962z M142.537,135.019c0.123,0.368-0.076,0.765-0.446,0.889c-0.368,0.12-0.765-0.08-0.886-0.447l-0.373-1.129
	c-0.122-0.369,0.077-0.766,0.445-0.888c0.368-0.121,0.766,0.078,0.889,0.447L142.537,135.019z M139.236,117.29
	c0.544,1.643-0.348,3.416-1.99,3.958c-0.423,0.141-0.854,0.184-1.271,0.146l-1.577,3.586l-1.939-0.949l1.833-3.322
	c-0.451-0.364-0.81-0.859-1.006-1.451c-0.542-1.643,0.349-3.415,1.992-3.958c0.673-0.223,1.367-0.2,1.991,0.012l6.755-12.24
	l-5.659,12.883C138.753,116.305,139.06,116.757,139.236,117.29z M153.23,113.516l-1.129,0.374c-0.368,0.121-0.765-0.079-0.887-0.447
	s0.078-0.766,0.446-0.888l1.129-0.373c0.368-0.122,0.766,0.078,0.887,0.446C153.799,112.997,153.6,113.395,153.23,113.516z"/>
<path fill="#A3CEFF" d="M137.27,115.311c-0.624-0.212-1.318-0.234-1.991-0.012c-1.644,0.543-2.534,2.315-1.992,3.958
	c0.196,0.592,0.555,1.087,1.006,1.451l-1.833,3.322l1.939,0.949l1.577-3.586c0.416,0.038,0.848-0.005,1.271-0.146
	c1.643-0.542,2.534-2.315,1.99-3.958c-0.177-0.533-0.483-0.985-0.871-1.337l5.659-12.883L137.27,115.311z M136.894,120.182
	c-1.054,0.349-2.19-0.223-2.54-1.278c-0.349-1.052,0.224-2.189,1.277-2.537c1.054-0.349,2.189,0.223,2.537,1.276
	C138.518,118.697,137.946,119.833,136.894,120.182z"/>
<circle fill="#EEF1F1" cx="136.262" cy="118.274" r="2.009"/>
<path fill="#999999" d="M131.614,103.537c0.37-0.122,0.567-0.52,0.446-0.888l-0.373-1.128c-0.121-0.368-0.518-0.568-0.887-0.446
	c-0.367,0.121-0.568,0.519-0.447,0.887l0.374,1.128C130.85,103.459,131.247,103.659,131.614,103.537z"/>
<path fill="#999999" d="M141.277,133.443c-0.368,0.122-0.567,0.519-0.445,0.888l0.373,1.129c0.121,0.367,0.518,0.567,0.886,0.447
	c0.37-0.124,0.569-0.521,0.446-0.889l-0.371-1.128C142.043,133.521,141.646,133.322,141.277,133.443z"/>
<path fill="#999999" d="M152.79,112.182l-1.129,0.373c-0.368,0.122-0.568,0.52-0.446,0.888s0.519,0.568,0.887,0.447l1.129-0.374
	c0.369-0.121,0.568-0.519,0.446-0.888C153.556,112.26,153.158,112.06,152.79,112.182z"/>
<path fill="#999999" d="M120.421,122.658l-1.128,0.374c-0.369,0.121-0.568,0.519-0.447,0.886c0.122,0.369,0.52,0.569,0.888,0.447
	l1.128-0.373c0.368-0.121,0.569-0.52,0.447-0.888C121.188,122.738,120.788,122.536,120.421,122.658z"/>
<path fill="#F8F7F0" d="M588.712,13.588c-14.689,0-26.597,11.906-26.597,26.595c0,14.688,11.907,26.595,26.597,26.595
	c14.687,0,26.594-11.907,26.594-26.595C615.306,25.494,603.398,13.588,588.712,13.588z M589.118,62.311
	c-12.222,0-22.129-9.907-22.129-22.128s9.907-22.128,22.129-22.128c12.221,0,22.127,9.907,22.127,22.128
	S601.339,62.311,589.118,62.311z"/>
<circle fill="#FFCC33" cx="589.118" cy="40.182" r="22.128"/>
<path fill="none" stroke="#52483F" stroke-width="3" stroke-miterlimit="10" d="M197.79,40.906
	c37.228,32.89,6.485,115.978-2.645,116.091c-10.479,0.13-29.818-28.186-30.4-59.916c-0.58-31.729-37.581-96.08-37.581-96.08
	c0-0.533,0-1.001,0-1.001"/>
<path fill="#85618D" d="M199.076,35.098c2.348,2.794,2.301,5.21,0.362,6.841l0,0c-1.942,1.63-5.05,1.86-7.396-0.934l-15.302-18.218
	c-2.347-2.794-1.187-1.691,0.757-3.321l0,0c1.94-1.632,3.93-5.38,6.277-2.586L199.076,35.098z"/>
<polygon fill="none" points="238.299,97.327 238.287,97.33 238.217,97.846 238.31,97.332 "/>
<path fill="#335780" d="M247.034,94.971l0.183-0.058l7.639,5.588l2.002-38.063c-1.678-1.201-3.298-2.315-4.879-3.342L247.034,94.971
	z"/>
<polygon fill="#5788D7" points="238.217,97.846 238.765,97.667 238.31,97.332 "/>
<polygon fill="#5788D7" points="237.75,97.504 238.217,97.846 238.287,97.33 "/>
<path fill="#335780" d="M231.516,58.384l-9.939,36.808l9-2.935l0.153,0.111l6.463-35.641
	C235.369,57.212,233.484,57.765,231.516,58.384z"/>
<path fill="#CC3333" d="M250.258,57.998c-2.215,2.12-4.461,4.468-6.834,7.116c-1.432-3.254-2.832-6.184-4.277-8.888
	c-0.645,0.157-1.297,0.328-1.954,0.503l-6.463,35.641l-1.43,7.89l8.45-2.755l0.537-0.174l0.012-0.003l0.011,0.005l0.455,0.335
	l7.173,5.247l1.097-7.943l4.944-35.875C251.4,58.721,250.826,58.352,250.258,57.998z"/>
<path fill="#FFE15C" d="M260.765,53.977c3.064,0.101,6.302,0.351,9.839,0.739c-1.109-3.38-2.02-6.497-2.748-9.475
	c2.703-1.445,5.632-2.847,8.889-4.279c-2.65-2.374-4.998-4.616-7.117-6.832c1.619-2.604,3.453-5.281,5.559-8.149
	c-3.482-0.731-6.637-1.501-9.581-2.358c0.102-3.065,0.353-6.302,0.74-9.837c-3.38,1.107-6.497,2.019-9.476,2.748
	c-1.445-2.705-2.848-5.634-4.279-8.889c-2.373,2.648-4.615,4.997-6.83,7.117c-2.604-1.619-5.281-3.455-8.15-5.559
	c-0.731,3.481-1.5,6.635-2.357,9.579c-3.065-0.101-6.301-0.351-9.838-0.739c1.108,3.381,2.018,6.497,2.748,9.475
	c-2.705,1.446-5.633,2.848-8.891,4.279c2.652,2.374,4.998,4.616,7.119,6.831c-1.621,2.603-3.455,5.281-5.56,8.15
	c3.481,0.731,6.636,1.5,9.58,2.357c-0.101,3.066-0.351,6.302-0.737,9.838c0.624-0.205,1.232-0.396,1.842-0.589
	c1.969-0.62,3.854-1.172,5.677-1.656c0.657-0.175,1.31-0.346,1.954-0.503c1.445,2.704,2.846,5.634,4.277,8.888
	c2.373-2.647,4.619-4.996,6.834-7.116c0.568,0.354,1.143,0.723,1.721,1.098c1.581,1.027,3.201,2.141,4.879,3.342
	c0.514,0.367,1.025,0.733,1.549,1.118C259.138,60.075,259.907,56.922,260.765,53.977z"/>
<path fill="#A18857" d="M565.354,83.904l-4.248,18.912c2.148,1.059,4.014,3.574,3.477,5.96c0,0.004,0.799-0.294,0.799-0.289
	c0.106,0.017,0.324,1.358,0.43,1.383c2.123,0.477,2.045,1.026,1.987,2.826l6.311,1.417l6.039-26.887L565.354,83.904z"/>
<path fill="#85618D" d="M675.061,133.757l1.223-4.58l2.67-4.256l0.277-4.791l0.42-4.758l2.024-4.398l1.079-4.609l0.348-4.039
	l-2.926-2.185l-3.659,3.834l-3.644,0.227l-3.635-1.108l-1.902,0.218L592.06,86.402l-1.032,4.433l-1.893,4.343l-0.475,4.661
	l-0.347,4.691l-2.465,4.217l-1.182,4.505l1.386,5.08l-0.346,0.72l-0.264,0.346l72.424,16.267l0.021,0.293l1.454,0.038l1.054,0.236
	l0.047-0.207l2.475,0.063l2.668,5.347l4.414,1.023l4.49,0.921l2.253-4.392L675.061,133.757z M621.979,120.324
	c-0.962-0.216-1.857-0.564-2.687-1.006l-2.868,2.093l1.496-2.958c-3.291-2.455-5.021-6.69-4.063-10.956
	c1.15-5.121,5.786-8.552,10.849-8.369l0.665-0.969l8.335,1.872l-1.947,2.083c2.615,2.517,3.9,6.288,3.047,10.088
	C633.506,117.987,627.763,121.624,621.979,120.324z"/>
<polygon fill="#6C6B65" points="586.053,118.332 584.667,113.252 585.849,108.747 588.313,104.53 588.66,99.839 589.135,95.178 
	591.027,90.835 592.06,86.402 592.083,86.304 592.113,86.011 591.877,85.958 591.914,84.852 589.217,83.401 586.586,84.096 
	584.46,84.292 583.48,83.77 580.951,83.646 580.147,87.227 574.108,114.113 573.592,116.412 574.19,116.539 576.499,119.081 
	580.545,119.362 584.379,120.798 585.443,119.397 585.707,119.052 "/>
<path fill="#A3CEFF" d="M631.758,102.114l-2.952,3.157l2.298,0.516l-6.939,7.6l2.49,0.56l-7.362,5.372
	c0.829,0.441,1.725,0.79,2.687,1.006c5.784,1.3,11.527-2.337,12.826-8.122C635.658,108.402,634.373,104.631,631.758,102.114z"/>
<path fill="#A3CEFF" d="M618.446,112.405l5.565-7.305l-2.83-0.838l3.523-5.135c-5.062-0.183-9.698,3.248-10.849,8.369
	c-0.958,4.266,0.772,8.501,4.063,10.956l2.848-5.628L618.446,112.405z"/>
<polygon fill="#EEF1F1" points="624.164,113.387 631.104,105.787 628.806,105.271 631.758,102.114 633.705,100.031 625.37,98.159 
	624.705,99.128 621.182,104.263 624.012,105.101 618.446,112.405 620.768,112.825 617.92,118.453 616.424,121.411 619.292,119.318 
	626.654,113.946 "/>
<path fill="#999999" d="M547.352,160V38.474c0,0-11.345-0.553-29.196-0.395c8.704,29.557,20.429,75.857,24.42,121.921H547.352z"/>
<path fill="#999999" d="M427.442,44.894c4.262-0.479,8.301-1.054,12.139-1.707C435.553,43.704,431.501,44.271,427.442,44.894z"/>
<path fill="#EBEBEB" d="M518.155,38.079c-5.753-19.536-10.185-31.762-10.185-31.762s-11.413,27.185-68.39,36.869
	c-3.838,0.653-7.877,1.228-12.139,1.707c-9.449,1.064-19.957,1.673-31.654,1.673c-95.306,0-112.183,0-112.183,0V160h258.97
	C538.584,113.937,526.859,67.636,518.155,38.079z M509.809,95.698v3.39h-113.5v-3.39H509.809z M319.801,62.087h176.5v19.496h-176.5
	V62.087z M396.309,111.696h113.5v3.39h-113.5V111.696z M389.801,154.248h-91.334v-64h91.334V154.248z M499.309,147.668h-103v-3.39
	h103V147.668z M509.809,139.591h-113.5v-3.39h113.5V139.591z M515.309,131.056h-119v-3.39h119V131.056z M515.309,122.979h-119v-3.39
	h119V122.979z M515.309,107.009h-119v-3.39h119V107.009z"/>
<rect x="319.801" y="62.087" fill="#6C6B65" width="176.5" height="19.496"/>
<rect x="396.309" y="103.619" fill="#C4C4C2" width="119" height="3.39"/>
<rect x="396.309" y="111.696" fill="#C4C4C2" width="113.5" height="3.39"/>
<rect x="396.309" y="119.589" fill="#C4C4C2" width="119" height="3.39"/>
<rect x="396.309" y="127.666" fill="#C4C4C2" width="119" height="3.39"/>
<rect x="396.309" y="136.201" fill="#C4C4C2" width="113.5" height="3.39"/>
<rect x="396.309" y="144.278" fill="#C4C4C2" width="103" height="3.39"/>
<rect x="396.309" y="95.698" fill="#C4C4C2" width="113.5" height="3.39"/>
<path fill="#335780" d="M311.076,121.334c-0.72-2.269-1.251-4.76-1.555-7.4c-0.85,0.795-1.266,1.964-1.266,3.267
	C308.256,119.137,309.173,120.78,311.076,121.334z"/>
<path fill="#335780" d="M298.467,154.248h91.334v-64h-91.334V154.248z M309.23,109.334h-2l-0.557-5.577h2.831h17.993
	c-0.012-0.364-0.027-0.728-0.033-1.095h-2.523l-0.704-7.042h3.573h34.609h3.574l-0.704,7.042h-2.525
	c-0.005,0.367-0.021,0.73-0.032,1.095h17.011h2.833l-0.56,5.577h-1.999c-0.014,1.029-0.061,2.044-0.14,3.039
	c2.089,0.934,3.509,2.746,3.509,4.827c0,2.73-2.447,5-5.652,5.424c-1.549,4.27-3.795,7.636-6.449,9.58v2.447h-2.348l0.143,6.362
	h4.02l0.418,4.927h-15.1l0.557-4.927h4.02l0.143-6.362h-2.35v-2.447c-1.722-1.263-3.27-3.134-4.57-5.454
	c-1.342,1.966-2.846,3.591-4.474,4.783v3.089h-2.966l0.181,8.034h5.073l0.529,6.219h-19.062l0.701-6.219h5.075l0.179-8.034h-2.966
	v-3.089c-1.848-1.355-3.532-3.276-5.008-5.618c-1.386,2.711-3.093,4.878-5.018,6.289v2.447h-2.349l0.143,6.362h4.02l0.418,4.927
	h-15.1l0.556-4.927h4.021l0.143-6.362h-2.351v-2.447c-2.649-1.944-4.896-5.311-6.448-9.58c-3.203-0.421-5.65-2.693-5.65-5.424
	c0-2.081,1.419-3.894,3.507-4.827C309.292,111.378,309.246,110.363,309.23,109.334z"/>
<path fill="#335780" d="M380.855,117.2c0-1.275-0.357-2.423-1.133-3.215c-0.305,2.619-0.833,5.092-1.549,7.345
	C380.03,120.769,380.855,119.133,380.855,117.2z"/>
<path fill="#D6855C" d="M367.02,112.593c0,3.448-3.091,6.312-7.137,6.846c-1.005,2.771-2.245,5.232-3.666,7.312
	c1.301,2.32,2.849,4.191,4.57,5.454v2.447h2.35l-0.143,6.362h-4.02l-0.557,4.927h15.1l-0.418-4.927h-4.02l-0.143-6.362h2.348v-2.447
	c2.654-1.944,4.9-5.311,6.449-9.58c3.205-0.424,5.652-2.693,5.652-5.424c0-2.081-1.42-3.894-3.509-4.827
	c0.079-0.995,0.126-2.01,0.14-3.039h1.999l0.56-5.577h-2.833h-17.011c-0.028,0.923-0.071,1.84-0.143,2.741
	C365.227,107.676,367.02,109.964,367.02,112.593z M379.723,113.985c0.775,0.792,1.133,1.939,1.133,3.215
	c0,1.933-0.825,3.568-2.682,4.13C378.89,119.077,379.418,116.604,379.723,113.985z"/>
<path fill="#D6855C" d="M363.822,112.593c0-1.611-0.449-3.06-1.429-4.06c-0.384,3.309-1.052,6.428-1.956,9.273
	C362.782,117.098,363.822,115.032,363.822,112.593z"/>
<path fill="#C1C1C7" d="M305.863,117.2c0,2.73,2.447,5.003,5.65,5.424c1.552,4.27,3.799,7.636,6.448,9.58v2.447h2.351l-0.143,6.362
	h-4.021l-0.556,4.927h15.1l-0.418-4.927h-4.02l-0.143-6.362h2.349v-2.447c1.925-1.411,3.632-3.578,5.018-6.289
	c-1.196-1.896-2.256-4.064-3.132-6.477c-4.045-0.531-7.135-3.397-7.135-6.846c0-2.629,1.791-4.917,4.428-6.095
	c-0.07-0.901-0.113-1.818-0.143-2.741h-17.993h-2.831l0.557,5.577h2c0.016,1.029,0.062,2.044,0.14,3.039
	C307.282,113.307,305.863,115.119,305.863,117.2z M309.521,113.934c0.304,2.641,0.835,5.132,1.555,7.4
	c-1.903-0.554-2.82-2.197-2.82-4.134C308.256,115.897,308.672,114.729,309.521,113.934z"/>
<path fill="#C1C1C7" d="M329.796,117.812c-0.909-2.864-1.581-6.01-1.964-9.344c-1.073,1.004-1.598,2.479-1.598,4.125
	C326.234,115.037,327.393,117.111,329.796,117.812z"/>
<path fill="#FFE15C" d="M323.213,112.593c0,3.448,3.09,6.314,7.135,6.846c0.876,2.412,1.936,4.58,3.132,6.477
	c1.476,2.342,3.16,4.263,5.008,5.618v3.089h2.966l-0.179,8.034h-5.075l-0.701,6.219h19.062l-0.529-6.219h-5.073l-0.181-8.034h2.966
	v-3.089c1.628-1.192,3.132-2.817,4.474-4.783c1.421-2.079,2.661-4.541,3.666-7.312c4.046-0.534,7.137-3.397,7.137-6.846
	c0-2.629-1.793-4.917-4.43-6.095c0.071-0.901,0.114-1.818,0.143-2.741c0.012-0.364,0.027-0.728,0.032-1.095h2.525l0.704-7.042
	h-3.574h-34.609h-3.573l0.704,7.042h2.523c0.006,0.367,0.021,0.73,0.033,1.095c0.029,0.923,0.072,1.84,0.143,2.741
	C325.004,107.676,323.213,109.964,323.213,112.593z M362.394,108.533c0.979,1,1.429,2.448,1.429,4.06
	c0,2.439-1.04,4.505-3.385,5.214C361.342,114.961,362.01,111.842,362.394,108.533z M327.832,108.468
	c0.383,3.334,1.055,6.479,1.964,9.344c-2.403-0.7-3.562-2.774-3.562-5.219C326.234,110.947,326.759,109.472,327.832,108.468z"/>
</svg>
