<?xml version="1.0" encoding="utf-8"?>
<!-- Generator: Adobe Illustrator 15.0.0, SVG Export Plug-In  -->
<!DOCTYPE svg PUBLIC "-//W3C//DTD SVG 1.1//EN" "http://www.w3.org/Graphics/SVG/1.1/DTD/svg11.dtd" [
	<!ENTITY ns_flows "http://ns.adobe.com/Flows/1.0/">
]>
<svg version="1.1"
	 xmlns="http://www.w3.org/2000/svg" xmlns:xlink="http://www.w3.org/1999/xlink" xmlns:a="http://ns.adobe.com/AdobeSVGViewerExtensions/3.0/"
	 x="0px" y="0px" width="750px" height="160px" viewBox="0 0.428 750 160"
	 overflow="visible" enable-background="new 0 0.428 750 160" xml:space="preserve">
<defs>
</defs>
<rect y="0.281" fill-rule="evenodd" clip-rule="evenodd" fill="#B6B2B2" width="750" height="160"/>
<path fill="#C9807E" d="M107.002,49.761c-3.865,0-7,3.134-7,7c0,3.495,2.564,6.383,5.911,6.907l0.157-2.126
	c-2.246-0.436-3.943-2.408-3.943-4.781c0-2.692,2.183-4.875,4.875-4.875c2.633,0,4.764,2.091,4.857,4.701L114,56.803
	c0-0.014,0.002-0.028,0.002-0.042C114.002,52.895,110.867,49.761,107.002,49.761z"/>
<path fill="#C9807E" d="M107.738,61.562l-0.16,2.171c3.021-0.247,5.494-2.411,6.209-5.276l-2.162-0.219
	C111.068,59.975,109.582,61.28,107.738,61.562z"/>
<path fill="#C9807E" d="M107.578,63.732c-0.191,0.015-0.382,0.029-0.576,0.029c-0.371,0-0.733-0.038-1.089-0.093l-6.001,80.924
	L0,84.302v1.946l99.773,60.207l-1.036,13.973h1.67l0.965-13.008l21.557,13.008h3.228l-24.646-14.872L107.578,63.732z"/>
<path fill="#C9807E" d="M107.002,51.886c-2.692,0-4.875,2.183-4.875,4.875c0,2.374,1.697,4.346,3.943,4.781l-0.157,2.126
	c0.355,0.056,0.718,0.093,1.089,0.093c0.194,0,0.385-0.014,0.576-0.029l0.16-2.171c1.844-0.282,3.33-1.587,3.887-3.324l2.162,0.219
	c0.131-0.53,0.209-1.083,0.213-1.653l-2.141-0.216C111.766,53.977,109.635,51.886,107.002,51.886z"/>
<polygon fill="#C9807E" points="626.604,0.428 750,84.38 750,82.364 629.565,0.428 "/>
<path fill="#C9807E" d="M323.5,110.761c3.866,0,7-3.134,7-7c0-0.919-0.182-1.795-0.504-2.6l-1.801,1.357
	c0.105,0.399,0.18,0.81,0.18,1.242c0,2.692-2.183,4.875-4.875,4.875s-4.875-2.183-4.875-4.875c0-0.67,0.136-1.309,0.381-1.89
	l-1.541-1.645c-0.609,1.038-0.965,2.244-0.965,3.535C316.5,107.627,319.635,110.761,323.5,110.761z"/>
<path fill="#C9807E" d="M323.5,98.886c1.65,0,3.104,0.825,3.985,2.081l1.698-1.28c-1.27-1.769-3.34-2.925-5.684-2.925
	c-1.967,0-3.74,0.814-5.013,2.12l1.46,1.56C320.838,99.489,322.095,98.886,323.5,98.886z"/>
<path fill="#C9807E" d="M318.625,103.761c0,2.692,2.183,4.875,4.875,4.875s4.875-2.183,4.875-4.875c0-0.432-0.074-0.843-0.18-1.242
	l1.801-1.357c-0.211-0.527-0.485-1.021-0.812-1.475l-1.698,1.28c-0.882-1.255-2.335-2.081-3.985-2.081
	c-1.405,0-2.662,0.603-3.553,1.555l-1.46-1.56c-0.394,0.404-0.735,0.856-1.022,1.346l1.541,1.645
	C318.761,102.452,318.625,103.09,318.625,103.761z"/>
<path fill="#C9807E" d="M575.998,39.132l-2.15-0.311c0,0.011-0.002,0.021-0.002,0.033c0,3.273,2.25,6.013,5.283,6.78l0.289-2.142
	C577.514,42.906,576.117,41.2,575.998,39.132z"/>
<path fill="#C9807E" d="M580.846,33.979c2.692,0,4.875,2.183,4.875,4.875c0,2.615-2.064,4.732-4.65,4.853l-0.289,2.145
	c0.021,0,0.043,0.003,0.064,0.003c3.866,0,7-3.134,7-7c0-3.866-3.134-7-7-7c-3.283,0-6.031,2.265-6.787,5.315l2.134,0.308
	C576.789,35.46,578.635,33.979,580.846,33.979z"/>
<path fill="#C9807E" d="M580.781,45.852c-0.57-0.005-1.122-0.083-1.652-0.217l-7.746,57.402L356.341,81.3l82.243-62.003
	l135.264,19.525c0.002-0.57,0.08-1.122,0.211-1.652l-133.6-19.286l23.153-17.456h-2.768l-22.71,17.121L319.531,0.428h-11.658
	l128.389,18.533l-82.363,62.092l-57.555-5.818L226.285,0.428h-2.283l69.82,74.552L114,56.803c-0.004,0.57-0.082,1.123-0.213,1.653
	L295.554,76.83l21.911,23.396c0.287-0.489,0.629-0.942,1.022-1.346l-20.412-21.796l53.866,5.445l-22.758,17.157
	c0.327,0.455,0.602,0.948,0.812,1.475l24.387-18.385l216.777,21.912l-7.521,55.739h1.681l7.498-55.571L750,122.767v-1.675
	l-176.957-17.887L580.781,45.852z"/>
<path fill="#C9807E" d="M575.998,39.132c0.119,2.067,1.516,3.773,3.42,4.36l-0.289,2.142c0.53,0.134,1.082,0.212,1.652,0.217
	l0.289-2.145c2.586-0.12,4.65-2.237,4.65-4.853c0-2.692-2.183-4.875-4.875-4.875c-2.211,0-4.057,1.481-4.653,3.498l-2.134-0.308
	c-0.131,0.53-0.209,1.082-0.211,1.652L575.998,39.132z"/>
<path fill="#D44044" d="M253.17,38.241c0,13.07,10.597,23.667,23.669,23.667c13.071,0,23.667-10.597,23.667-23.667V3.999H253.17
	V38.241z"/>
<rect x="249.336" y="0.428" fill="#20210A" width="55.006" height="7.14"/>
<path fill="#EEF1F1" d="M273.057,43.44c0-2.245,1.568-3.853,3.809-3.853c2.244,0,3.725,1.608,3.767,3.853
	c0,2.2-1.479,3.849-3.767,3.849C274.582,47.29,273.057,45.64,273.057,43.44z M274.454,37.468l-0.976-19.173h6.734l-0.935,19.173
	H274.454z"/>
<g>
	<path fill="#20210A" d="M153.069,101.73c0,2.209,1.791,4,4,4h45.625c2.209,0,4-1.791,4-4V37.819c0-2.209-1.791-4-4-4h-45.625
		c-2.209,0-4,1.791-4,4V101.73z"/>
</g>
<rect x="156.603" y="37.5" fill="#EEF1F1" width="46.559" height="63.875"/>
<path fill="#57B4AB" d="M171.906,52.389c0,1.625-1.317,2.941-2.941,2.941h-4.041c-1.626,0-2.942-1.317-2.942-2.941v-4.042
	c0-1.624,1.316-2.942,2.942-2.942h4.041c1.624,0,2.941,1.318,2.941,2.942V52.389z"/>
<path fill="#57B4AB" d="M171.906,65.47c0,1.625-1.317,2.942-2.941,2.942h-4.041c-1.626,0-2.942-1.317-2.942-2.942v-4.041
	c0-1.625,1.316-2.942,2.942-2.942h4.041c1.624,0,2.941,1.318,2.941,2.942V65.47z"/>
<path fill="#57B4AB" d="M184.663,52.389c0,1.625-1.317,2.941-2.943,2.941h-4.039c-1.626,0-2.943-1.317-2.943-2.941v-4.042
	c0-1.624,1.317-2.942,2.943-2.942h4.039c1.626,0,2.943,1.318,2.943,2.942V52.389z"/>
<path fill="#57B4AB" d="M197.42,52.389c0,1.625-1.317,2.941-2.944,2.941h-4.039c-1.625,0-2.942-1.317-2.942-2.941v-4.042
	c0-1.624,1.317-2.942,2.942-2.942h4.039c1.627,0,2.944,1.318,2.944,2.942V52.389z"/>
<path fill="#57B4AB" d="M197.42,65.47c0,1.625-1.317,2.942-2.944,2.942h-4.039c-1.625,0-2.942-1.317-2.942-2.942v-4.041
	c0-1.625,1.317-2.942,2.942-2.942h4.039c1.627,0,2.944,1.318,2.944,2.942V65.47z"/>
<path fill="#57B4AB" d="M184.663,65.47c0,1.625-1.318,2.942-2.943,2.942h-4.039c-1.626,0-2.943-1.317-2.943-2.942v-4.041
	c0-1.625,1.317-2.942,2.943-2.942h4.039c1.625,0,2.943,1.318,2.943,2.942V65.47z"/>
<path fill="#57B4AB" d="M171.906,78.227c0,1.625-1.317,2.942-2.941,2.942h-4.041c-1.626,0-2.942-1.317-2.942-2.942v-4.041
	c0-1.625,1.316-2.942,2.942-2.942h4.041c1.624,0,2.941,1.317,2.941,2.942V78.227z"/>
<path fill="#57B4AB" d="M197.42,78.227c0,1.625-1.317,2.942-2.944,2.942h-4.039c-1.625,0-2.942-1.317-2.942-2.942v-4.041
	c0-1.625,1.317-2.942,2.942-2.942h4.039c1.627,0,2.944,1.317,2.944,2.942V78.227z"/>
<path fill="#57B4AB" d="M184.663,78.227c0,1.625-1.318,2.942-2.943,2.942h-4.039c-1.626,0-2.943-1.317-2.943-2.942v-4.041
	c0-1.625,1.317-2.942,2.943-2.942h4.039c1.625,0,2.943,1.317,2.943,2.942V78.227z"/>
<path fill="#FFC732" d="M194.835,93.098c0,1.928-4.018,3.491-8.975,3.491h-12.32c-4.957,0-8.975-1.563-8.975-3.491v-4.794
	c0-1.928,4.018-3.491,8.975-3.491h12.32c4.957,0,8.975,1.563,8.975,3.491V93.098z"/>
<path fill="#E7D1B6" d="M156.841,160.428c3.13-4.85,6.485-9.661,8.071-10.664c3.397-2.15,5.839-8.104,10.21-10.902
	c4.371-2.797,14.604-5.738,15.476-8.732c0.868-2.994-0.841-5.9-2.942-6.018c-2.101-0.118-14.28,4.117-14.28,4.117
	s9.179-25.945,9.622-29.667s-1.993-6.2-3.665-5.592c-1.675,0.608-2.31-0.597-4.296,5.614c-1.988,6.21-6.232,15.105-6.232,15.105
	s-3.579-3.012-6.185-2.455c-2.607,0.558-3.012-0.814-4.376-1.531c-1.364-0.718-5.92,0.133-6.829,0.904
	c-1.426,1.21-2.6,0.221-4.94,0.426c-2.572,0.225-6.423,5.961-7.656,11.278l-0.114,22.942c-0.004,1.052-2.32,8.796-4.283,15.174
	H156.841z"/>
<path fill="none" d="M359.63,120.431c0.019,0.045,0.04,0.086,0.06,0.13c-0.053-0.138-0.11-0.272-0.156-0.414
	C359.564,120.25,359.596,120.348,359.63,120.431z"/>
<path fill="none" d="M470.502,141.188l-1.395-5.437l0.95-0.244c-0.557-0.776-1.186-1.477-1.896-1.984
	c-1.846-1.318-3.32-3.828-5.01-6.311h-93.74c-0.709,0-1.397-0.07-2.065-0.202c1.059,0.142,0.352,1.94-0.45,3.459l1.875,0.445
	l-1.296,5.46l0.864,0.205l-5.67,23.849h111.85l-4.876-19.02L470.502,141.188z"/>
<path fill="none" d="M367.302,127.001c-0.312-0.063-0.619-0.142-0.921-0.231C366.723,126.885,367.035,126.964,367.302,127.001z"/>
<path fill="#20210A" d="M458.577,122.066c-1.046-0.755-2.453-1.539-3.988-2.338h-87.583v-9.881
	c-2.936,2.144-7.949,6.376-7.949,6.376s0.106,2.652,0.477,3.923c0.046,0.142,0.104,0.276,0.156,0.414
	c1.456,3.413,4.636,5.517,6.691,6.209c0.302,0.09,0.608,0.168,0.921,0.231c0.012,0.002,0.027,0.005,0.039,0.007l0.006,0.002
	c0.668,0.132,1.356,0.202,2.065,0.202h93.74C461.846,125.293,460.411,123.391,458.577,122.066z"/>
<path fill="#20210A" d="M359.094,104.534c0,0,4.188-3.749,7.912-5.923V36.035h107.551v59.26c1.023-0.232,1.561-0.968,2.504-1.398
	c1.402-0.64,5.902,0.464,6.768,1.285c1.355,1.288,2.584,0.366,4.908,0.702c1.259,0.181,2.752,1.718,4.056,3.871V38.653
	c0-5.578-4.636-10.1-10.353-10.1H369.412c-5.719,0-10.355,4.522-10.355,10.1v38.102c0.022-0.025,0.037-0.042,0.037-0.042V104.534z
	 M483.209,72.505c2.97,0,5.377,2.408,5.377,5.378c0,2.97-2.407,5.376-5.377,5.376c-2.971,0-5.379-2.407-5.379-5.376
	C477.83,74.913,480.238,72.505,483.209,72.505z"/>
<path fill="#EEF1F1" d="M454.589,119.729c-4.64-2.415-10.447-4.964-10.974-7.247c-0.701-3.038,1.169-5.844,3.273-5.844
	c2.104,0,14.027,4.91,14.027,4.91s-7.715-26.418-7.949-30.159c-0.233-3.741,2.338-6.08,3.975-5.378
	c1.637,0.701,2.338-0.467,3.975,5.845c1.637,6.312,5.377,15.431,5.377,15.431s3.742-2.807,6.312-2.105
	c0.844,0.23,1.451,0.227,1.951,0.113v-59.26H367.006v62.576c1.013-0.592,1.992-1.074,2.843-1.324
	c3.974-1.17,5.845,2.571,5.845,3.623c0,3.039-5.143,6.896-7.014,7.832c-0.366,0.183-0.961,0.584-1.674,1.105v9.881H454.589z
	 M399.783,72.334c0-2.517,2.199-4.557,4.91-4.557h2.419v-2.044c0-5.649,6.886-13.505,15.379-13.505
	c8.491,0,15.378,7.855,15.378,13.505v2.044h2.42c2.711,0,4.91,2.04,4.91,4.557v24.307c0,2.518-2.199,4.557-4.91,4.557h-35.596
	c-2.711,0-4.91-2.039-4.91-4.557V72.334z"/>
<circle fill="#EEF1F1" cx="483.209" cy="77.882" r="5.377"/>
<path fill="#D9C4AB" d="M482.439,127.212h-19.287c1.689,2.482,3.164,4.992,5.01,6.311c0.71,0.508,1.339,1.208,1.896,1.984
	l24.853-6.373c0.016-1.109-0.99-0.764,0.84-3.326c2.34-3.274,0.936-12.857,0-18.235c-0.473-2.729-1.615-5.6-2.958-7.818v17.357
	C492.792,122.689,488.156,127.212,482.439,127.212z"/>
<path fill="#D9C4AB" d="M488.736,95.883c-2.324-0.336-3.553,0.586-4.908-0.702c-0.865-0.82-5.365-1.925-6.768-1.285
	c-0.943,0.43-1.48,1.166-2.504,1.398v24.434h-19.968c1.535,0.799,2.942,1.583,3.988,2.338c1.834,1.324,3.269,3.227,4.575,5.146
	h19.287c5.717,0,10.353-4.522,10.353-10.101V99.754C491.488,97.602,489.995,96.064,488.736,95.883z"/>
<path fill="#D9C4AB" d="M472.605,95.182c-2.57-0.701-6.312,2.105-6.312,2.105s-3.74-9.119-5.377-15.431
	c-1.637-6.312-2.338-5.144-3.975-5.845c-1.637-0.702-4.208,1.637-3.975,5.378c0.234,3.741,7.949,30.159,7.949,30.159
	s-11.924-4.91-14.027-4.91c-2.104,0-3.975,2.806-3.273,5.844c0.526,2.283,6.334,4.832,10.974,7.247h19.968V95.295
	C474.057,95.409,473.449,95.412,472.605,95.182z"/>
<path fill="#57B4AB" d="M494.579,135.012l2.219-0.568l-1.396-5.436l-0.492,0.126c-0.004,0.309-0.083,0.723-0.328,1.351
	C494.158,131.57,494.369,133.648,494.579,135.012z"/>
<path fill="#57B4AB" d="M470.058,135.507l-0.95,0.244l1.395,5.437l2.096-0.537C472.117,139.268,471.268,137.196,470.058,135.507z"/>
<path fill="#57B4AB" d="M472.598,140.65l21.981-5.639c-0.21-1.363-0.421-3.441,0.003-4.527c0.245-0.628,0.324-1.042,0.328-1.351
	l-24.853,6.373C471.268,137.196,472.117,139.268,472.598,140.65z"/>
<path fill="#143943" d="M497.657,134.223l-0.859,0.221l0.116,0.452l-2.259,0.579c0.088,0.515,0.16,0.854,0.16,0.854l-21.742,5.845
	c0,0-0.11-0.421-0.326-1.08l-2.13,0.546l-0.115-0.451l-0.858,0.221l4.876,19.02h29.858L497.657,134.223z"/>
<path fill="#143943" d="M473.073,142.173l21.742-5.845c0,0-0.072-0.339-0.16-0.854l-21.908,5.618
	C472.963,141.752,473.073,142.173,473.073,142.173z"/>
<path fill="#143943" d="M494.655,135.475l2.259-0.579l-0.116-0.452l-2.219,0.568C494.605,135.18,494.63,135.332,494.655,135.475z"/>
<path fill="#143943" d="M470.502,141.188l0.115,0.451l2.13-0.546c-0.046-0.139-0.095-0.284-0.149-0.442L470.502,141.188z"/>
<path fill="#143943" d="M472.598,140.65c0.055,0.158,0.104,0.304,0.149,0.442l21.908-5.618c-0.025-0.143-0.05-0.295-0.076-0.463
	L472.598,140.65z"/>
<path fill="#D9C4AB" d="M367.347,127.01c-0.016-0.003-0.028-0.006-0.045-0.009c-0.267-0.037-0.579-0.116-0.921-0.231
	c-3.108-0.927-5.585-3.246-6.691-6.209c-0.02-0.044-0.041-0.085-0.06-0.13c-0.034-0.083-0.065-0.181-0.097-0.284
	c-0.308-0.958-0.477-1.978-0.477-3.035v-0.888V76.755c-0.591,0.671-8.764,9.956-12.818,14.687
	c-4.209,4.91-1.637,33.666-1.637,33.666l0.035,0.07l22.26,5.291C367.698,128.95,368.405,127.151,367.347,127.01z"/>
<path fill="#D9C4AB" d="M359.057,117.111c0,1.058,0.169,2.077,0.477,3.035c-0.37-1.271-0.477-3.923-0.477-3.923V117.111z"/>
<path fill="#D9C4AB" d="M367.302,127.001c0.017,0.003,0.029,0.006,0.045,0.009l-0.006-0.002
	C367.329,127.006,367.313,127.003,367.302,127.001z"/>
<path fill="#D9C4AB" d="M367.006,109.847V98.611c-3.724,2.175-7.912,5.923-7.912,5.923V76.713c0,0-0.015,0.017-0.037,0.042v39.468
	C359.057,116.224,364.07,111.991,367.006,109.847z"/>
<path fill="#D9C4AB" d="M359.689,120.561c1.106,2.963,3.583,5.282,6.691,6.209C364.325,126.077,361.146,123.974,359.689,120.561z"/>
<path fill="#D9C4AB" d="M375.693,100.91c0-1.052-1.871-4.793-5.845-3.623c-0.851,0.25-1.83,0.732-2.843,1.324v11.236
	c0.713-0.521,1.308-0.922,1.674-1.105C370.551,107.807,375.693,103.949,375.693,100.91z"/>
<path fill="#57B4AB" d="M368.771,130.914l-1.875-0.445c-0.602,1.139-1.256,2.12-1.256,2.12l-19.637-4.676l-1.367-2.735l-2.275-0.541
	l-1.297,5.461l26.411,6.276L368.771,130.914z"/>
<path fill="#57B4AB" d="M365.641,132.589c0,0,0.654-0.981,1.256-2.12l-22.26-5.291l1.367,2.735L365.641,132.589z"/>
<polygon fill="#143943" points="367.476,136.374 367.368,136.828 340.957,130.55 341.064,130.098 340.201,129.893 332.943,160.428 
	362.67,160.428 368.34,136.579 "/>
<rect x="353.983" y="119.89" transform="matrix(-0.2302 0.9731 -0.9731 -0.2302 565.6372 -180.516)" fill="#143943" width="0.467" height="27.147"/>
<path fill="#EEF1F1" d="M432.886,66.549c0-5.65-4.655-10.229-10.395-10.229s-10.396,4.578-10.396,10.229v1.229h20.79V66.549z"/>
<path fill="#CCD4C9" d="M412.096,66.549v-1.639c0-5.649,4.656-10.229,10.396-10.229s10.395,4.579,10.395,10.229v1.639v1.229h4.983
	v-2.044c0-5.649-6.887-13.505-15.378-13.505c-8.493,0-15.379,7.855-15.379,13.505v2.044h4.983V66.549z"/>
<path fill="#CCD4C9" d="M422.491,56.321c5.739,0,10.395,4.578,10.395,10.229v-1.639c0-5.649-4.655-10.229-10.395-10.229
	s-10.396,4.579-10.396,10.229v1.639C412.096,60.899,416.752,56.321,422.491,56.321z"/>
<path fill="#FFC732" d="M404.693,101.198h35.596c2.711,0,4.91-2.039,4.91-4.557V72.334c0-2.517-2.199-4.557-4.91-4.557h-2.42v7.358
	h-4.983h-20.79h-4.983v-7.358h-2.419c-2.711,0-4.91,2.04-4.91,4.557v24.307C399.783,99.159,401.982,101.198,404.693,101.198z
	 M422.489,78.01c2.219,0,4.015,1.797,4.015,4.014c0,1.326-0.648,2.491-1.64,3.222l1.011,5.722h-6.768l1.01-5.72
	c-0.99-0.732-1.641-1.897-1.641-3.224C418.477,79.807,420.274,78.01,422.489,78.01z"/>
<rect x="412.096" y="67.778" fill="#FFC732" width="20.79" height="7.358"/>
<rect x="432.886" y="67.778" fill="#FFC732" width="4.983" height="7.358"/>
<rect x="407.112" y="67.778" fill="#FFC732" width="4.983" height="7.358"/>
<path fill="#143943" d="M420.117,85.248l-1.01,5.72h6.768l-1.011-5.722c0.991-0.73,1.64-1.896,1.64-3.222
	c0-2.217-1.796-4.014-4.015-4.014c-2.215,0-4.013,1.797-4.013,4.014C418.477,83.35,419.127,84.515,420.117,85.248z"/>
<path fill="#20210A" d="M597.13,47.576c0,2.036,1.651,3.688,3.688,3.688l0,0c2.038,0,3.688-1.651,3.688-3.688V9.119
	c0-2.037-1.65-3.688-3.688-3.688l0,0c-2.037,0-3.688,1.65-3.688,3.688V47.576z"/>
<rect x="590.796" fill="#20210A" width="20.045" height="11.461"/>
<path fill="#143943" d="M545.355,94.983c0.434,1.948,2.857,3.065,5.413,2.495l17.602-6.392c2.555-0.569,4.276-2.61,3.842-4.558
	l-2.882-12.93c-0.434-1.948-2.858-3.064-5.413-2.495l-18.65,1.686c-2.556,0.569-4.276,2.61-3.842,4.558L545.355,94.983z"/>
<path fill="#CCD4C9" d="M560.228,100.591c0.48,2.156,2.619,3.515,4.775,3.034l72.021-16.05c2.156-0.48,3.514-2.618,3.033-4.774
	l-8.658-38.855c-0.48-2.156-2.618-3.515-4.774-3.034l-72.022,16.049c-2.154,0.481-3.514,2.619-3.033,4.774L560.228,100.591z"/>
<circle fill="#D44044" cx="565.234" cy="65.909" r="4.523"/>
</svg>
