<?xml version="1.0" encoding="utf-8"?>
<!-- Generator: Adobe Illustrator 18.1.1, SVG Export Plug-In . SVG Version: 6.00 Build 0)  -->
<svg version="1.1" xmlns="http://www.w3.org/2000/svg" xmlns:xlink="http://www.w3.org/1999/xlink" x="0px" y="0px"
	 viewBox="0 0 750 200" enable-background="new 0 0 750 200" xml:space="preserve">
<g id="Background" display="none">
</g>
<g id="Layer_1">
	<g>
		<path fill="#4E69B1" d="M-31.3-44.2v198.4l787.6-1V-45.2L-31.3-44.2z M103.5,129.6c-0.1,0-0.1-0.1,0-0.1S103.6,129.6,103.5,129.6z
			 M167.7,119.2c-0.1,0-0.1-0.1,0-0.1S167.8,119.2,167.7,119.2z"/>
		<linearGradient id="SVGID_2_" gradientUnits="userSpaceOnUse" x1="362.5222" y1="-45.2334" x2="362.5222" y2="154.1752">
			<stop  offset="0" style="stop-color:#2E3191;stop-opacity:0.2"/>
			<stop  offset="0.1681" style="stop-color:#2C4FA5;stop-opacity:0.2841"/>
			<stop  offset="0.4182" style="stop-color:#2976BE;stop-opacity:0.4091"/>
			<stop  offset="0.6486" style="stop-color:#2892D1;stop-opacity:0.5243"/>
			<stop  offset="0.8499" style="stop-color:#26A3DC;stop-opacity:0.625"/>
			<stop  offset="1" style="stop-color:#26A9E0;stop-opacity:0.7"/>
		</linearGradient>
		<path fill="url(#SVGID_2_)" d="M-31.3-44.2v198.4l787.6-1V-45.2L-31.3-44.2z M103.5,129.6c-0.1,0-0.1-0.1,0-0.1
			S103.6,129.6,103.5,129.6z M167.7,119.2c-0.1,0-0.1-0.1,0-0.1S167.8,119.2,167.7,119.2z"/>
	</g>
	<path opacity="0.2" fill="#FDF4F8" d="M475,6.8c0-0.2,0-0.4,0-0.7v0c0-9.5-7.7-17.2-17.2-17.2h-36c-9.5,0-17.2,7.7-17.2,17.2v0
		c0,0.2,0,0.4,0,0.6h-16.1c-8.2,0-14.8,6.6-14.8,14.8l0,0c0,8.2,6.6,14.8,14.8,14.8h85.5c8.2,0,14.8-6.6,14.8-14.8l0,0
		C489,13.7,482.8,7.2,475,6.8z"/>
	<path opacity="0.2" fill="#FDF4F8" d="M347.4,47.1h-7.3c0-0.1,0-0.2,0-0.4l0,0c0-9.5-7.7-17.2-17.2-17.2h-36
		c-9.5,0-17.2,7.7-17.2,17.2l0,0c0,0.1,0,0.2,0,0.4h-7.9c-8.2,0-14.8,6.6-14.8,14.8l0,0c0,8.2,6.6,14.8,14.8,14.8h85.5
		c8.2,0,14.8-6.6,14.8-14.8l0,0C362.2,53.7,355.5,47.1,347.4,47.1z"/>
	<polygon fill="#DAB380" points="765,200.2 -35.8,201.2 -35.8,152 765,151 	"/>
	<polygon fill="#00616E" points="331.6,153.1 283.4,153.1 283.4,49.2 289.8,49.2 307.5,42.2 326,49.2 331.6,49.2 	"/>
	<polygon fill="#00616E" points="493.8,153.1 411.2,153.1 411.2,21.4 427.7,21.4 428.5,14.2 477.2,14.2 478.1,21.4 493.8,21.4 	"/>
	<polygon fill="#00616E" points="674.4,152.9 553.2,152.9 553.2,111.5 613.8,101.9 613.8,97.9 674.4,111.5 	"/>
	<rect x="502" y="-0.9" fill="#02877A" width="29.7" height="154.1"/>
	<rect x="531.7" y="-0.9" fill="#004D40" width="29.7" height="154.1"/>
	<path fill="#D1C1A9" d="M243.4,99c-8.9,0-9.2,6.6-9.2,6.6h-26.3l-10.2,6.2v0.1h45.7V99z"/>
	<rect x="197.7" y="111.9" fill="#59BDC5" width="45.7" height="51.9"/>
	<path fill="#938879" d="M289.1,111.9L289.1,111.9l-8.8-6.3h-28c0,0-0.3-6.6-8.9-6.6v12.9H289.1z"/>
	<rect x="243.4" y="111.9" fill="#3DB7C3" width="45.7" height="51.9"/>
	<polygon fill="#02877A" points="313.6,96.5 313.8,163.5 373.3,163.5 373.3,96.5 	"/>
	<polygon fill="#004D40" points="373.3,163.5 432.2,163.5 432.3,96.5 373.3,96.5 	"/>
	<polygon fill="#938879" points="373.3,88.4 373.3,96.5 432.3,96.5 434.9,96.5 434.9,88.4 	"/>
	<polygon fill="#D1C1A9" points="370.9,88.4 356.6,88.4 324.7,88.4 319.6,88.4 311.6,88.4 311.6,96.5 313.6,96.5 373.3,96.5 
		373.3,88.4 	"/>
	<rect x="324.7" y="83.2" fill="#F4EDE8" width="31.9" height="5.2"/>
	<rect x="373.3" y="136" opacity="0.32" fill="#DDD8D4" width="16.3" height="27.6"/>
	<rect x="357.2" y="136" opacity="0.32" fill="#F4EDE8" width="16.1" height="27.6"/>
	<rect x="373.3" y="131.7" fill="#938879" width="19.6" height="5.2"/>
	<rect x="353.9" y="131.7" fill="#D1C1A9" width="19.4" height="5.2"/>
	<path opacity="0.32" fill="#F4EDE8" d="M235.6,135.3c-0.1,0-0.2,0-0.3,0c-4.5,0-8.1,2.9-8.1,6.5v0h0v22h16.3V147v-17
		C239.8,130,236.8,132.2,235.6,135.3z"/>
	<path opacity="0.32" fill="#DDD8D4" d="M251.5,135.3c-0.1,0-0.1,0-0.2,0c-1.3-3.1-4.3-5.3-7.9-5.3c0,0-0.1,0-0.1,0v17c0,0,0,0,0,0
		v16.8h16.3v-22v0C259.7,138.2,256,135.3,251.5,135.3z"/>
	<path opacity="0.32" fill="#DDD8D4" d="M243.4,105.8v11.2c3.2,0,5.9-2.5,5.9-5.6S246.6,105.8,243.4,105.8z"/>
	<path opacity="0.32" fill="#F4EDE8" d="M237.5,111.3c0,3.1,2.6,5.6,5.9,5.6v-11.2C240.1,105.8,237.5,108.3,237.5,111.3z"/>
	<polygon fill="#59BDC5" points="454.5,105.9 454.5,182.5 485.2,182.5 485.2,97.4 	"/>
	<polygon fill="#3DB7C3" points="516,88.9 485.2,97.4 485.2,182.5 516,182.5 	"/>
	<path opacity="0.32" fill="#A5C1C8" d="M311.6,92.9"/>
	<g opacity="0.32">
		<rect x="320.2" y="104.7" fill="#F4EDE8" width="15.2" height="15.2"/>
	</g>
	<g opacity="0.32">
		<rect x="320.2" y="136.1" fill="#F4EDE8" width="15.2" height="15.2"/>
	</g>
	<g opacity="0.32">
		<rect x="349.1" y="104.7" fill="#F4EDE8" width="15.2" height="15.2"/>
	</g>
	<g opacity="0.32">
		<rect x="382.1" y="104.7" fill="#DDD8D4" width="15.2" height="15.2"/>
	</g>
	<g opacity="0.32">
		<rect x="411" y="104.6" fill="#DDD8D4" width="15.2" height="15.2"/>
	</g>
	<g opacity="0.32">
		<rect x="411" y="136" fill="#DDD8D4" width="15.2" height="15.2"/>
	</g>
	<rect x="220.5" y="119.1" opacity="0.32" fill="#F4EDE8" width="10.9" height="7.7"/>
	<rect x="205.6" y="132.8" opacity="0.32" fill="#F4EDE8" width="13.2" height="9.3"/>
	<rect x="205.6" y="147.1" opacity="0.32" fill="#F4EDE8" width="13.2" height="9.3"/>
	<rect x="255.3" y="119.1" opacity="0.32" fill="#DDD8D4" width="10.9" height="7.7"/>
	<rect x="267.6" y="132.8" opacity="0.32" fill="#DDD8D4" width="13.2" height="9.3"/>
	<rect x="267.6" y="147.1" opacity="0.32" fill="#DDD8D4" width="13.2" height="9.3"/>
	<rect x="269.8" y="119.1" opacity="0.32" fill="#DDD8D4" width="10.9" height="7.7"/>
	<rect x="205.6" y="119.1" opacity="0.32" fill="#F4EDE8" width="10.9" height="7.7"/>
	<g opacity="0.32">
		<g>
			<rect x="460.5" y="116.7" fill="#F4EDE8" width="5.5" height="8.2"/>
		</g>
		<g>
			<rect x="460.5" y="130.1" fill="#F4EDE8" width="5.5" height="8.2"/>
		</g>
		<g>
			<rect x="460.5" y="142.6" fill="#F4EDE8" width="5.5" height="8.2"/>
		</g>
		<g>
			<rect x="460.5" y="156" fill="#F4EDE8" width="5.5" height="8.2"/>
		</g>
		<g>
			<rect x="460.5" y="168.9" fill="#F4EDE8" width="5.5" height="8.2"/>
		</g>
		<g>
			<rect x="482.5" y="116.7" fill="#F4EDE8" width="2.8" height="8.2"/>
		</g>
		<g>
			<rect x="482.5" y="103.6" fill="#F4EDE8" width="2.8" height="8.2"/>
		</g>
		<g>
			<rect x="482.5" y="130.1" fill="#F4EDE8" width="2.8" height="8.2"/>
		</g>
		<g>
			<rect x="482.5" y="142.7" fill="#F4EDE8" width="2.8" height="8.2"/>
		</g>
		<g>
			<rect x="482.5" y="156" fill="#F4EDE8" width="2.8" height="8.2"/>
		</g>
		<g>
			<rect x="480.9" y="168.9" fill="#F4EDE8" width="4.3" height="13.6"/>
		</g>
	</g>
	<g opacity="0.32">
		<g>
			<rect x="504.5" y="116.7" fill="#DDD8D4" width="5.5" height="8.2"/>
		</g>
		<g>
			<rect x="504.5" y="103.6" fill="#DDD8D4" width="5.5" height="8.2"/>
		</g>
		<g>
			<rect x="504.5" y="130.1" fill="#DDD8D4" width="5.5" height="8.2"/>
		</g>
		<g>
			<rect x="504.5" y="142.7" fill="#DDD8D4" width="5.5" height="8.2"/>
		</g>
		<g>
			<rect x="504.5" y="156" fill="#DDD8D4" width="5.5" height="8.2"/>
		</g>
		<g>
			<rect x="504.5" y="168.9" fill="#DDD8D4" width="5.5" height="8.2"/>
		</g>
		<g>
			<rect x="485.2" y="116.7" fill="#DDD8D4" width="2.8" height="8.2"/>
		</g>
		<g>
			<rect x="485.2" y="103.6" fill="#DDD8D4" width="2.8" height="8.2"/>
		</g>
		<g>
			<rect x="485.2" y="130.1" fill="#DDD8D4" width="2.8" height="8.2"/>
		</g>
		<g>
			<rect x="485.2" y="142.7" fill="#DDD8D4" width="2.8" height="8.2"/>
		</g>
		<g>
			<rect x="485.2" y="156" fill="#DDD8D4" width="2.8" height="8.2"/>
		</g>
		<g>
			<rect x="485.2" y="168.9" fill="#DDD8D4" width="4.3" height="13.6"/>
		</g>
	</g>
	<g opacity="0.32">
		<g>
			<rect x="549.3" y="133.1" fill="#DDD8D4" width="9.6" height="8.6"/>
		</g>
		<g>
			<rect x="534.3" y="133.1" fill="#DDD8D4" width="9.6" height="8.6"/>
		</g>
		<g>
			<rect x="549.2" y="117.6" fill="#DDD8D4" width="9.6" height="8.6"/>
		</g>
		<g>
			<rect x="534.2" y="117.6" fill="#DDD8D4" width="9.6" height="8.6"/>
		</g>
		<g>
			<rect x="549.3" y="102" fill="#DDD8D4" width="9.6" height="8.6"/>
		</g>
		<g>
			<rect x="534.3" y="102" fill="#DDD8D4" width="9.6" height="8.6"/>
		</g>
		<g>
			<rect x="549.2" y="86.5" fill="#DDD8D4" width="9.6" height="8.6"/>
		</g>
		<g>
			<rect x="534.2" y="86.5" fill="#DDD8D4" width="9.6" height="8.6"/>
		</g>
		<g>
			<rect x="549.3" y="71.6" fill="#DDD8D4" width="9.6" height="8.6"/>
		</g>
		<g>
			<rect x="534.3" y="71.6" fill="#DDD8D4" width="9.6" height="8.6"/>
		</g>
		<g>
			<rect x="549.2" y="57.5" fill="#DDD8D4" width="9.6" height="8.6"/>
		</g>
		<g>
			<rect x="534.2" y="57.5" fill="#DDD8D4" width="9.6" height="8.6"/>
		</g>
		<g>
			<rect x="549.3" y="42.6" fill="#DDD8D4" width="9.6" height="8.6"/>
		</g>
		<g>
			<rect x="534.3" y="42.6" fill="#DDD8D4" width="9.6" height="8.6"/>
		</g>
		<g>
			<rect x="549.5" y="28.3" fill="#DDD8D4" width="9.6" height="8.6"/>
		</g>
		<g>
			<rect x="534.5" y="28.3" fill="#DDD8D4" width="9.6" height="8.6"/>
		</g>
		<g>
			<rect x="549.6" y="13.4" fill="#DDD8D4" width="9.6" height="8.6"/>
		</g>
		<g>
			<rect x="534.6" y="13.4" fill="#DDD8D4" width="9.6" height="8.6"/>
		</g>
	</g>
	<g>
		<path fill="#5FBF8D" d="M632.6,166.6c-65.6,3.6-140.9,8.2-243,4.8c-65.2-2.2-205.5-30.3-275.2-27.2
			c-124.8,5.4-150.1,30.6-150.1,30.6v93.1h13.4l289.9-1h196.9h272.7h27.7v-84.7C764.7,182.2,724.8,161.5,632.6,166.6z"/>
		<linearGradient id="SVGID_4_" gradientUnits="userSpaceOnUse" x1="344.367" y1="334.8911" x2="383.893" y2="110.7282">
			<stop  offset="4.065690e-03" style="stop-color:#29B473"/>
			<stop  offset="0.3593" style="stop-color:#31B35D;stop-opacity:0.6425"/>
			<stop  offset="0.7" style="stop-color:#35B34F;stop-opacity:0.2995"/>
			<stop  offset="0.9976" style="stop-color:#37B34A;stop-opacity:0"/>
		</linearGradient>
		<path fill="url(#SVGID_4_)" d="M632.6,166.6c-65.6,3.6-140.9,8.2-243,4.8c-65.2-2.2-205.5-30.3-275.2-27.2
			c-124.8,5.4-150.1,30.6-150.1,30.6v93.1h13.4l289.9-1h196.9h272.7h27.7v-84.7C764.7,182.2,724.8,161.5,632.6,166.6z"/>
	</g>
	<g>
		<ellipse opacity="0.9" fill="#25AC6E" cx="149.8" cy="114.5" rx="18.7" ry="20.2"/>
		<g>
			<path fill="#5E7F6F" d="M149.8,158.8c-0.5,0-1-0.4-1-1v-39.3c0-0.5,0.4-1,1-1c0.5,0,1,0.4,1,1v39.3
				C150.7,158.4,150.3,158.8,149.8,158.8z"/>
		</g>
	</g>
	<g>
		<ellipse opacity="0.9" fill="#25AC6E" cx="580.2" cy="139.2" rx="14.1" ry="15.2"/>
		<g>
			<path fill="#5E7F6F" d="M580.3,172.9c-0.5,0-1-0.4-1-1v-29.7c0-0.5,0.4-1,1-1c0.5,0,1,0.4,1,1v29.7
				C581.2,172.4,580.8,172.9,580.3,172.9z"/>
		</g>
	</g>
	<g>
		<ellipse opacity="0.9" fill="#25AC6E" cx="548.3" cy="146.8" rx="14.1" ry="15.2"/>
		<g>
			<path fill="#5E7F6F" d="M548.3,180.5c-0.5,0-1-0.4-1-1v-29.7c0-0.5,0.4-1,1-1s1,0.4,1,1v29.7
				C549.3,180.1,548.8,180.5,548.3,180.5z"/>
		</g>
	</g>
	<g>
		<ellipse opacity="0.9" fill="#25AC6E" cx="418.7" cy="145.9" rx="13.6" ry="14.6"/>
		<g>
			<path fill="#5E7F6F" d="M418.7,175c-0.5,0-1-0.4-1-1v-25.2c0-0.5,0.4-1,1-1c0.5,0,1,0.4,1,1V174C419.7,174.6,419.3,175,418.7,175
				z"/>
		</g>
	</g>
	<g>
		<ellipse opacity="0.85" fill="#25AC6E" cx="120.9" cy="127.4" rx="22.9" ry="24.6"/>
		<g>
			<path fill="#5E7F6F" d="M120.9,181.3c-0.5,0-1-0.4-1-1v-48c0-0.5,0.4-1,1-1s1,0.4,1,1v48C121.8,180.9,121.4,181.3,120.9,181.3z"
				/>
		</g>
	</g>
</g>
</svg>
