<?xml version="1.0" encoding="utf-8"?>
<!-- Generator: Adobe Illustrator 18.1.1, SVG Export Plug-In . SVG Version: 6.00 Build 0)  -->
<svg version="1.1" xmlns="http://www.w3.org/2000/svg" xmlns:xlink="http://www.w3.org/1999/xlink" x="0px" y="0px"
	 viewBox="0 0 750 750" enable-background="new 0 0 750 750" xml:space="preserve">
<g id="Background" display="none">
	<g display="inline">
		<defs>
			<rect id="SVGID_1_" x="-0.9" y="-174" width="750" height="1334"/>
		</defs>
		<clipPath id="SVGID_2_">
			<use xlink:href="#SVGID_1_"  overflow="visible"/>
		</clipPath>
		<g clip-path="url(#SVGID_2_)">
			<defs>
				<rect id="SVGID_3_" x="-0.9" y="-174" width="750" height="1332"/>
			</defs>
			<clipPath id="SVGID_4_">
				<use xlink:href="#SVGID_3_"  overflow="visible"/>
			</clipPath>
			<rect x="-5.9" y="-179" clip-path="url(#SVGID_4_)" fill="#69D9F7" width="760" height="1342"/>
		</g>
	</g>
</g>
<g id="Layer_1">
	<g>
		<path fill-rule="evenodd" clip-rule="evenodd" fill="#3EAAED" d="M634.2,467.7H100.9c-16.2,0-29.3-14.2-29.3-31.8V162.3
			c0-17.6,13.1-31.8,29.3-31.8h533.3c16.2,0,29.3,14.2,29.3,31.8v273.6C663.5,453.5,650.4,467.7,634.2,467.7z"/>
		<path opacity="0.3" fill-rule="evenodd" clip-rule="evenodd" fill="#BAB9B9" d="M72.9,160.7c0-16.7,12.5-30.2,27.8-30.2h536.2
			c15.4,0,27.8,13.5,27.8,30.2v276.8c0,16.7-12.5,30.2-27.8,30.2"/>
	</g>
	<g>
		<polygon fill-rule="evenodd" clip-rule="evenodd" fill="#ADADAD" points="243.4,548.4 228.3,548.4 203.8,653.9 218.9,653.9 		"/>
		<polygon fill-rule="evenodd" clip-rule="evenodd" fill="#BAB9B9" points="218.9,653.9 203.8,653.9 179.3,548.4 194.4,548.4 		"/>
	</g>
	<g>
		<polygon fill-rule="evenodd" clip-rule="evenodd" fill="#ADADAD" points="481.5,549.4 496.6,549.4 521.2,655 506,655 		"/>
		<polygon fill-rule="evenodd" clip-rule="evenodd" fill="#BAB9B9" points="506,655 521.2,655 545.7,549.4 530.6,549.4 		"/>
	</g>
	<path fill-rule="evenodd" clip-rule="evenodd" fill="#CCCCCC" d="M574.5,558.6H127.4c-5.2,0-9.4-5.3-9.4-11.9l0,0
		c0-6.6,4.2-11.9,9.4-11.9h447.1c5.2,0,9.4,5.3,9.4,11.9l0,0C583.9,553.3,579.7,558.6,574.5,558.6z"/>
	<g>
		<path fill="#ADADAD" d="M218,74.5c0-2.2-1.4-4-3.2-4l0,0c-1.8,0-3.2,1.8-3.2,4v32.7c0,2.2,1.4,4.1,3.2,4.1l0,0
			c1.8,0,3.2-1.8,3.2-4.1V74.5z"/>
		<path fill="#ADADAD" d="M417.8,71.4c0-2.2-1.4-4-3.2-4l0,0c-1.8,0-3.2,1.8-3.2,4v32.7c0,2.2,1.4,4.1,3.2,4.1l0,0
			c1.8,0,3.2-1.8,3.2-4.1V71.4z"/>
		<path fill="#D6313C" d="M214.3,108.2c-4,0-39.6,52.4-37.4,54.2c2.2,1.8,73.1,1.4,74.9,0C253.4,161,218.3,108.2,214.3,108.2z
			 M243.3,158.9c-1.3,1.2-56.3,1.5-58,0c-1.7-1.5,25.9-44.5,29-44.5C217.4,114.4,244.6,157.7,243.3,158.9z"/>
		<path fill="#D6313C" d="M414,105.1c-4,0-39.6,52.4-37.4,54.2c2.2,1.8,73.1,1.4,74.9,0C453.1,157.9,418,105.1,414,105.1z
			 M443,155.8c-1.3,1.2-56.3,1.5-58,0c-1.7-1.5,25.9-44.5,29-44.5C417.1,111.3,444.3,154.7,443,155.8z"/>
	</g>
	<g>
		<path fill-rule="evenodd" clip-rule="evenodd" fill="#635447" d="M177.8,498.4c-3.8-2-7.8-4.2-10.4-7.7c-2.9-4.1-3.4-9.4-3.8-14.5
			c-0.2-2.4-0.3-4.9-0.2-7.4c0.1-1.8,0.3-3.5,1.1-5.1c1.4-2.7,4.2-4.4,7.2-5.3c2-0.6,4.3-0.9,5.9,0.3"/>
		<g>
			<g>
				<path fill-rule="evenodd" clip-rule="evenodd" fill="#716151" d="M223,487.5c0.2-0.1,0.3-0.2,0.4-0.4c0.2-0.2,0.4-0.3,0.5-0.3
					l23.5-23.5v185.4h12.4l12.8-206.6h-46C226.5,442.1,221.8,488.5,223,487.5z"/>
				<path fill-rule="evenodd" clip-rule="evenodd" fill="#635447" d="M231.6,588.7v-97.8c0-1.3-0.5-2.4-1.6-3.4
					c-0.9-0.9-2-1.4-3.2-1.4h-0.5c-0.9,0-1.7,0.2-2.4,0.7l23.5-23.5v185.4h-15.7V588.7z"/>
				<path fill-rule="evenodd" clip-rule="evenodd" fill="#FF9731" d="M259.8,648.7l-0.6,14.3c-0.4-3-1.7-5.6-3.8-7.8
					c-1.7-1.6-3.7-2.6-5.8-3.2c-0.8-0.2-1.5-0.4-2.2-0.5c-0.7-0.1-1.3-0.1-2-0.1c-0.1,0-0.2,0-0.3,0c-3.6,0-6.7,1.3-9.4,3.8
					c-1.3,1.3-2.2,2.7-2.8,4.2c-0.7,1.4-1.1,3-1.3,4.7v-15.4h15.7H259.8z"/>
				<path fill-rule="evenodd" clip-rule="evenodd" fill="#424240" d="M259.3,664.1h-27.7V664c0.2-1.7,0.6-3.3,1.3-4.7
					c0.6-1.5,1.5-2.9,2.8-4.2c2.6-2.5,5.8-3.8,9.4-3.8c0.1,0,0.2,0,0.3,0c0.7,0,1.3,0,2,0.1c0.7,0.2,1.4,0.3,2.2,0.5
					c2.1,0.6,4.1,1.6,5.8,3.2c2.1,2.2,3.4,4.8,3.8,7.8C259.3,663.3,259.3,663.7,259.3,664.1z"/>
			</g>
		</g>
		<polygon fill-rule="evenodd" clip-rule="evenodd" fill="#716151" points="283.7,534.5 181.6,534.8 177.1,499.1 288.3,499.1 		"/>
		<rect x="177.2" y="435.5" fill-rule="evenodd" clip-rule="evenodd" fill="#F46831" width="93.6" height="55.2"/>
		<polygon fill-rule="evenodd" clip-rule="evenodd" fill="#716151" points="216,534.8 181.6,534.8 173.1,474.2 224.5,474.2 		"/>
		<g>
			<g>
				<polygon fill-rule="evenodd" clip-rule="evenodd" fill-opacity="0.251" points="215,393.9 197.5,393.9 197.5,372.3 267.6,372.3 
					267.6,393.9 250.2,393.9 262,403.7 232.6,425.9 203.2,403.7 				"/>
				<g>
					<path fill-rule="evenodd" clip-rule="evenodd" fill="#C1AB93" d="M291.7,293.7c3.3,0,6.2,1.2,8.4,3.6c2.4,2.3,3.7,5.1,3.7,8.4
						c0,3.2-1.2,6.1-3.7,8.5c-2.3,2.3-5.1,3.5-8.4,3.5c-0.2,0-0.4,0-0.7,0v-11c0-0.4,0-0.8,0-1.2c0-0.3,0-0.6,0-1
						c-0.1-3.8-0.5-7.3-1.2-10.7C290.5,293.8,291.1,293.7,291.7,293.7z M169,293.7c0.1,0,0.2,0,0.2,0v24H169c-3.3,0-6.2-1.2-8.5-3.5
						c-2.3-2.4-3.5-5.3-3.5-8.5c0-3.3,1.2-6.2,3.5-8.4C162.8,294.9,165.6,293.7,169,293.7z"/>
				</g>
				<g>
					<g>
						<path fill-rule="evenodd" clip-rule="evenodd" fill="#C65509" d="M231.6,509.2V366.7c0.1,0,0.3,0,0.5,0
							c12.8,0,23.7,0.9,32.9,2.7c6.9,1.4,11.2,3.1,12.9,4.9v142c-1.6,1.8-5.9,3.3-12.9,4.7c-2.7,0.6-5.5,1.1-8.3,1.5
							c-3.3,0.4-6.9,0.7-10.6,1L231.6,509.2z"/>
						<path fill-rule="evenodd" clip-rule="evenodd" fill="#F46831" d="M231.6,366.7v142.5l-14.2,14.2c-3.8-0.2-7.4-0.5-10.6-1
							c-2.7-0.4-5.3-0.8-7.8-1.4c-0.3-0.1-0.6-0.1-1-0.2l-12.5-3.3V375.5c0.7-2.3,5.2-4.3,13.5-6
							C208.1,367.6,218.9,366.7,231.6,366.7z"/>
					</g>
				</g>
				<g>
					<g>
						<path fill-rule="evenodd" clip-rule="evenodd" fill="#B9D1E5" d="M236.7,507.7h-10.3v8.7h10.3V507.7z"/>
					</g>
				</g>
				<g>
					<g>
						<path fill-rule="evenodd" clip-rule="evenodd" fill="#C65509" d="M298.4,433.7h-20.9c-2-15.3-6.5-29.7-13.3-43.3
							c-0.2-0.3-0.2-0.6-0.2-0.9c-0.7-1-1.3-1.8-1.7-2.5l1.1-14.1l14.6,1.1c1,1.2,2.2,3,3.7,5.3c0.3,0.7,0.7,1.3,1.1,1.8
							c3.7,7.4,6.8,15.1,9.4,23C295,413.6,297.1,423.5,298.4,433.7z"/>
						<path fill-rule="evenodd" clip-rule="evenodd" fill="#F47621" d="M299.5,447.2h-20.8c-0.2-4.6-0.6-9.1-1.2-13.5h20.9
							C298.9,438.1,299.3,442.6,299.5,447.2z"/>
						<path fill-rule="evenodd" clip-rule="evenodd" fill="#C1AB93" d="M284.5,527h-22.9c0.2-0.4,0.3-0.7,0.5-1
							c9.3-17.6,14.7-37.3,16.4-58.9c0.6-6.8,0.7-13.4,0.3-19.9h20.8c0.2,7,0,14.2-0.6,21.5C297.3,489.8,292.5,509.2,284.5,527z"/>
						<polygon fill-rule="evenodd" clip-rule="evenodd" fill="#424240" points="282.4,534.5 269.1,534.5 261.6,527 284.5,527 
							286.8,527 286.8,534.5 						"/>
						<polygon fill-rule="evenodd" clip-rule="evenodd" fill="#716151" points="269.1,534.5 282.4,534.5 275.7,541.2 						"/>
					</g>
					<g>
						<path fill-rule="evenodd" clip-rule="evenodd" fill="#F1EEE5" d="M295.4,441c-0.1,0.8-0.4,1.4-1.1,1.8c-0.6,0.6-1.3,0.8-2,0.6
							c-0.7-0.1-1.2-0.4-1.7-1.1c-0.6-0.4-0.7-1.1-0.5-2c0.1-0.8,0.4-1.4,0.9-1.8c0.8-0.4,1.5-0.6,2.1-0.5c0.7,0.2,1.3,0.6,1.7,1.2
							C295.5,439.7,295.7,440.3,295.4,441z"/>
					</g>
				</g>
				<g>
					<polygon fill-rule="evenodd" clip-rule="evenodd" fill-opacity="0.251" points="215.1,393.7 197.6,393.7 197.6,372.2 
						267.7,372.2 267.7,393.7 250.3,393.7 262.1,403.6 232.7,425.8 203.3,403.6 					"/>
				</g>
				<g>
					<g>
						<polygon fill-rule="evenodd" clip-rule="evenodd" fill="#C1AB93" points="232.4,425.9 213.8,365.4 220.3,365.4 225.4,360.4 
							239.5,360.4 244.3,365.2 250.9,365.2 						"/>
						<polygon fill-rule="evenodd" clip-rule="evenodd" fill="#F47621" points="213.8,365.4 232.4,425.9 203,398.7 214.8,386.9 
							197.3,386.9 197.3,360.6 212.4,360.6 213.8,365.2 						"/>
						<polygon fill-rule="evenodd" clip-rule="evenodd" fill="#ED6E18" points="232.4,425.9 250.9,365.2 252.3,360.6 267.4,360.6 
							267.4,386.9 250,386.9 261.8,398.7 						"/>
					</g>
				</g>
				<g>
					<rect x="197.2" y="361.5" fill-rule="evenodd" clip-rule="evenodd" fill-opacity="0.251" width="70.1" height="11.4"/>
				</g>
				<g>
					<g>
						<g>
							<g>
								<path fill-rule="evenodd" clip-rule="evenodd" fill="#B7A492" d="M230.4,366.8v-150c18,0,33.4,6.4,46.2,19.1
									c5.2,5.2,9.3,10.9,12.5,17c3.4,6.9,5.6,14.4,6.4,22.4h0.2V344c0,2.5-1.1,5-3.2,7.3c-1.3,1.4-3,2.7-5,3.9
									c-0.7,0.4-1.5,0.8-2.3,1.3c-1.5,0.8-3.2,1.6-5,2.3c-0.5,0.1-1,0.3-1.4,0.7c-0.3,0-0.6,0.1-0.9,0.2c-0.5,0.1-0.8,0.2-1.1,0.4
									c-1.3,0.5-2.6,0.9-3.9,1.4c-0.7,0.1-1.4,0.3-2.2,0.6c-1.6,0.5-3.2,0.8-5,1.1c-0.8,0.2-1.5,0.4-2.2,0.6c-1.6,0.4-3.3,0.7-5,1
									c-0.7,0.1-1.4,0.1-2.1,0.2c-0.1,0-0.1,0.1-0.2,0.2c-1.7,0.3-3.3,0.5-4.9,0.7c-0.8,0-1.6,0.2-2.4,0.3
									c-1.7,0.1-3.3,0.2-4.9,0.5c-0.7,0-1.5,0-2.4,0.1c-1.6,0.1-3.2,0.2-4.9,0.2c-0.4,0-0.7,0-1.1,0H230.4z M165.1,316.9
									l49.2,49.2c-0.6-0.1-1.2-0.1-1.7-0.1c-1.8-0.2-3.4-0.4-5-0.5c-0.8-0.2-1.6-0.4-2.3-0.5c-0.4-0.1-0.7-0.2-1-0.2
									c-1.3-0.2-2.7-0.3-4-0.5c-0.8-0.2-1.5-0.4-2.3-0.6c-1.5-0.3-3-0.6-4.5-1c-0.2,0-0.4-0.1-0.5-0.1c-0.8-0.2-1.5-0.4-2.2-0.6
									c-1.7-0.4-3.3-0.9-4.9-1.5c-0.5-0.1-1.1-0.3-1.7-0.5c-0.3-0.1-0.5-0.2-0.6-0.2c-1.8-0.7-3.4-1.4-4.9-2.1
									c-0.9-0.3-1.6-0.7-2.4-1.1c-1.9-0.9-3.5-1.9-4.9-2.8c-0.9-0.8-1.7-1.4-2.4-2c-2.6-2.4-3.9-5.1-4-8V316.9z"/>
								<path fill-rule="evenodd" clip-rule="evenodd" fill="#C1AB93" d="M230.4,216.8v150h-5c-1.1-0.1-2.2-0.1-3.3-0.1
									c-0.8-0.1-1.5-0.2-2.2-0.2c-1.8,0-3.4-0.2-5-0.4c-0.2,0-0.4,0-0.6-0.1l-49.2-49.2v-41.7h0.3c0.8-8.1,2.9-15.5,6.5-22.4
									c3-6.1,7.1-11.7,12.3-17C197,223.1,212.4,216.8,230.4,216.8z"/>
							</g>
						</g>
					</g>
					<g>
						<polygon fill-rule="evenodd" clip-rule="evenodd" fill="#C1AB93" points="221.7,327 229.1,320.3 229.1,302.2 237.2,327 						
							"/>
					</g>
				</g>
				<g>
					<path fill-rule="evenodd" clip-rule="evenodd" fill="#F1EEE5" d="M230.2,356c-5.7,0-10.5-2-14.6-6c-4-4.1-6-8.9-6-14.7h41.5
						c-0.1,4.3-1.2,8.1-3.3,11.4c-0.9,1.1-1.8,2.2-2.8,3.3C240.9,354,236,356,230.2,356z"/>
				</g>
				<g>
					<g>
						<path fill-rule="evenodd" clip-rule="evenodd" fill="#424240" d="M194.6,294.1c-0.9,0.3-1.7,0.2-2.6-0.3
							c-0.7-0.5-1.2-1.1-1.4-2v-0.1c-0.3-0.9-0.1-1.7,0.3-2.4c0.5-0.8,1.1-1.3,2-1.6l11.3-3c0.9-0.3,1.7-0.2,2.4,0.3
							c0.8,0.4,1.3,1.1,1.6,2v0.1c0.3,0.9,0.1,1.7-0.5,2.5c-0.3,0.8-0.9,1.3-1.8,1.5L194.6,294.1z"/>
					</g>
					<g>
						<path fill-rule="evenodd" clip-rule="evenodd" fill="#424240" d="M266,294.1l-11.3-3c-0.8-0.2-1.5-0.7-2.1-1.6
							c-0.4-0.7-0.5-1.4-0.3-2.4l0.2-0.1c0.2-0.9,0.7-1.5,1.4-2.1c0.8-0.4,1.6-0.5,2.4-0.3l11.3,3c0.9,0.3,1.6,0.7,2,1.4
							c0.5,0.9,0.6,1.7,0.4,2.6l-0.1,0.1c-0.2,0.9-0.7,1.5-1.6,1.9C267.7,294.2,266.9,294.4,266,294.1z"/>
					</g>
				</g>
				<g>
					<g>
						<path fill-rule="evenodd" clip-rule="evenodd" fill="#7E5C53" d="M200.8,307.9c0-0.8,0.3-1.5,1-2.2c0.6-0.7,1.3-1,2.2-1
							c0.9,0,1.6,0.3,2.3,1c0.7,0.7,1,1.4,1,2.2c0,0.9-0.3,1.6-1,2.3c-0.7,0.7-1.4,1-2.3,1c-0.9,0-1.6-0.3-2.2-1
							C201.2,309.6,200.8,308.8,200.8,307.9z"/>
					</g>
					<g>
						<path fill-rule="evenodd" clip-rule="evenodd" fill="#7E5C53" d="M255.7,305.1c0.6,0.7,0.9,1.4,0.9,2.3c0,0.9-0.3,1.7-0.9,2.4
							c-0.7,0.6-1.4,0.8-2.4,0.8c-0.9,0-1.6-0.3-2.2-0.8c-0.7-0.7-1-1.4-1-2.4c0-0.9,0.3-1.6,1-2.3c0.6-0.7,1.3-1,2.2-1
							C254.2,304.1,255,304.5,255.7,305.1z"/>
					</g>
				</g>
			</g>
			<g>
				<g>
					<path fill-rule="evenodd" clip-rule="evenodd" fill="#424240" d="M271.1,230.9c-3.7,17.9-15.6,27.2-35.4,28h-34.1v2.3
						c-0.4,4.4-3.2,6.6-8.5,6.9h-0.6c-12.1-0.6-17.9,6.5-17.5,21.3v16.1h-10v-29.9c1-8.2,3.3-15.7,6.9-22.6
						c3-6.1,7.1-11.8,12.4-17.1c12.6-12.5,27.6-18.8,45.3-19.2h43v2.6C272.2,223.5,271.8,227.4,271.1,230.9z"/>
					<path fill-rule="evenodd" clip-rule="evenodd" fill="#333333" d="M235.7,258.9c19.9-0.7,31.7-10,35.4-28l1.2,0.9
						c1.6,1.2,3,2.6,4.4,4c5.1,5.2,9.3,10.9,12.5,17.1c3.5,6.9,5.7,14.4,6.6,22.6v29.9h-10v-15.7c1.3-14-4.3-21.2-16.7-21.7h-0.9
						c-0.2,0-0.3,0-0.4,0h-2c-4.5-0.3-6.8-2.6-7.1-7.1v-2H235.7z"/>
				</g>
			</g>
		</g>
		<g>
			<g>
				<polygon fill-rule="evenodd" clip-rule="evenodd" fill="#716151" points="176,475.4 304.8,536.6 299.5,547.8 176.6,498.4 				
					"/>
				<path fill-rule="evenodd" clip-rule="evenodd" fill="#635447" d="M311.6,522.4l-6.8,14.2l-128.7-61.5l0,0
					c-0.2,1.5,0.7-16.9,0.7-16.9l80.6,38.3L311.6,522.4z"/>
				<path fill-rule="evenodd" clip-rule="evenodd" fill="#FF9731" d="M304.8,536.6l6.8-14.2l13.9,6.6c-1.6-0.6-3.2-0.9-4.8-0.9
					c-1.6-0.1-3.3,0.1-5,0.7c-3.4,1.3-5.9,3.6-7.5,6.8c0,0.1-0.1,0.2-0.1,0.3c-0.3,0.6-0.5,1.2-0.8,1.8c-0.2,0.7-0.3,1.4-0.5,2.2
					c-0.4,2.2-0.3,4.4,0.4,6.6c1.1,2.9,2.9,5.1,5.4,6.8l-13.2-5.6L304.8,536.6z"/>
				<path fill-rule="evenodd" clip-rule="evenodd" fill="#424240" d="M312.6,553.4c-2.5-1.7-4.3-3.9-5.4-6.8
					c-0.7-2.2-0.8-4.4-0.4-6.6c0.1-0.8,0.3-1.5,0.5-2.2c0.2-0.6,0.5-1.2,0.8-1.8c0-0.1,0.1-0.2,0.1-0.3c1.6-3.2,4.1-5.5,7.5-6.8
					c1.7-0.6,3.4-0.8,5-0.7c1.6,0,3.2,0.3,4.8,0.9l0.1,0l-11.9,25C313.2,553.9,312.9,553.7,312.6,553.4z"/>
			</g>
		</g>
		<g>
			
				<rect x="165.8" y="248.1" transform="matrix(0.9975 -7.003391e-02 7.003391e-02 0.9975 -20.0581 16.8991)" fill-rule="evenodd" clip-rule="evenodd" fill="#EFEFEF" width="130.4" height="92.9"/>
			
				<rect x="172.3" y="340.7" transform="matrix(0.9975 -7.003439e-02 7.003439e-02 0.9975 -26.5298 17.5821)" fill-rule="evenodd" clip-rule="evenodd" fill="#E8E8E8" width="130.4" height="92.9"/>
			<path fill-rule="evenodd" clip-rule="evenodd" fill="#E5E5E5" d="M169.4,351.2c-4.7-32.5-26.3-62.5-57.2-79.2
				c9.6-6.4,27.9-16.2,51.4-19.3L169.4,351.2z"/>
			<polygon fill-rule="evenodd" clip-rule="evenodd" fill="#E2E2E2" points="169.2,345.6 273.6,338.3 169.8,356.6 			"/>
		</g>
		<g>
			<g>
				<path fill-rule="evenodd" clip-rule="evenodd" fill="#C1AB93" d="M157.9,347c0.9-1,2-1.6,3.2-1.7l12.9-1.5
					c1.3-0.2,2.5,0.2,3.4,1c1,0.8,1.5,1.9,1.6,3.1c0.2,1.3-0.1,2.5-0.8,3.5c-0.8,1-1.9,1.6-3.2,1.7l-13,1.5c-1.2,0.2-2.4-0.1-3.4-1
					c-1-0.8-1.6-1.9-1.8-3.2C156.8,349.2,157.1,348.1,157.9,347z"/>
			</g>
			<path fill-rule="evenodd" clip-rule="evenodd" fill="#C1AB93" d="M172,376.1l0.1,24.3l-12.2-1.1c-2.8-0.2-5.3-1.4-7.5-3.4
				c-2.1-2-3.3-4.5-3.6-7.4l-2.7-28.6c-0.2-0.7-0.3-1.2-0.4-1.6l0-2l0.1,0.2l-2.1-17.7c-0.5-3.3,0.4-6.2,2.9-8.5
				c1.9-2.6,4.4-4.2,7.6-4.8c3.5-0.2,6.5,0.8,9.1,3c2.4,2,3.8,4.7,4.1,8L172,376.1z"/>
		</g>
	</g>
	<g>
		<g>
			<g>
				<path fill-rule="evenodd" clip-rule="evenodd" fill="#5D6973" d="M347.6,466.7v206.6h-14.3v-60v-97.8c0-1.3-0.5-2.4-1.6-3.4
					c-0.1-0.1-0.3-0.2-0.4-0.4c-0.2-0.2-0.4-0.3-0.5-0.3l-22.5-23.5v185.4h-11.9l-12.2-206.6H347.6z"/>
				<path fill-rule="evenodd" clip-rule="evenodd" fill="#445360" d="M323.5,673.3h-15.1V487.9l22.5,23.5c-0.7-0.5-1.5-0.7-2.3-0.7
					h-0.5c-1.2,0-2.2,0.5-3.1,1.4c-1,1-1.5,2.2-1.5,3.4v97.8V673.3z M347.6,466.7h25l-12.4,206.6h-12.7V466.7z"/>
				<path fill-rule="evenodd" clip-rule="evenodd" fill="#9EA5AB" d="M308.4,673.3h15.1v15.4c-0.1-1.7-0.6-3.3-1.2-4.7
					c-0.6-1.5-1.5-2.9-2.7-4.2c-2.5-2.5-5.5-3.8-8.9-3.8c-0.1,0-0.2,0-0.3,0c-0.6,0-1.3,0-1.9,0.1c-0.7,0.2-1.4,0.3-2.1,0.5
					c-2,0.6-3.9,1.6-5.5,3.2c-2,2.2-3.2,4.8-3.6,7.8l-0.6-14.3H308.4z M333.4,688.2v-14.9h14.3h12.7l-0.6,14.7
					c-0.1-1.5-0.5-2.8-1.2-4c-0.6-1.5-1.6-2.9-2.8-4.2c-1.2-1.2-2.4-2-3.8-2.6c-1.3-0.7-2.8-1-4.4-1.1c-0.2-0.1-0.5-0.1-0.7-0.1
					c0,0-0.1,0-0.3,0c-3.8,0-7,1.3-9.5,3.8c-2,2.2-3.2,4.8-3.6,7.8C333.4,687.8,333.4,688,333.4,688.2z"/>
				<path fill-rule="evenodd" clip-rule="evenodd" fill="#424240" d="M297.2,687.6c0.4-3,1.6-5.6,3.6-7.8c1.6-1.6,3.5-2.6,5.5-3.2
					c0.7-0.2,1.4-0.4,2.1-0.5c0.6-0.1,1.3-0.1,1.9-0.1c0.1,0,0.2,0,0.3,0c3.4,0.1,6.4,1.3,8.9,3.8c1.2,1.3,2.1,2.7,2.7,4.2
					c0.7,1.4,1.1,3,1.2,4.7v0.1H297C297,688.3,297.1,687.9,297.2,687.6z M359.7,688c0,0.3,0,0.5,0,0.7v0.1h-26.3v-0.5
					c0-0.2,0-0.4,0.1-0.6c0.4-3,1.6-5.6,3.6-7.8c2.6-2.5,5.7-3.8,9.5-3.8c0.1,0,0.2,0,0.3,0c0.2,0,0.5,0,0.7,0.1
					c1.6,0.1,3.1,0.5,4.4,1.1c1.4,0.6,2.6,1.4,3.8,2.6c1.2,1.3,2.1,2.7,2.8,4.2C359.2,685.2,359.6,686.5,359.7,688z"/>
			</g>
		</g>
		<g>
			<g>
				<g>
					<path fill-rule="evenodd" clip-rule="evenodd" fill="#008AAA" d="M299.2,333.6c1.6,2.5,2.1,5.3,1.5,8.3l-6,26.6l-28.1,26.1
						l12.7-57.4c0.6-3,2.1-5.2,4.6-6.8c2.6-1.6,5.4-2.1,8.4-1.5C295.3,329.4,297.5,330.9,299.2,333.6z"/>
				</g>
				<g>
					<path fill-rule="evenodd" clip-rule="evenodd" fill="#B4C8D6" d="M360.7,325.2c6.7,1.4,10.8,2.9,12.4,4.7v149
						c-1.6,1.7-5.8,10.1-12.4,11.4c-2.6,0.6-5.3,1-8.1,1.4c-3.2,0.4-6.6,0.7-10.2,1l-13.9-13.9l-13.8,13.8c-3.6-0.2-7-0.5-10.2-1
						c-2.7-0.3-5.2-0.7-7.6-1.3c-0.3-0.1-0.6-0.1-0.8-0.2L283.9,480V330.9c0.7-2.2,5-4.1,13-5.8c8.8-1.8,19.3-2.7,31.6-2.7
						c0.1,0,0.2,0,0.4,0C341.3,322.5,351.9,323.4,360.7,325.2z"/>
				</g>
				<g>
					<g>
						<path fill-rule="evenodd" clip-rule="evenodd" fill-opacity="0.149" d="M339.1,438.3c0.9-3,2.8-5.2,5.7-6.6l28.3-16.4v26.4
							c-0.3,0.2-0.6,0.3-0.8,0.5l-1.7,0.8l0.1-0.1l-14.7,8.7c-2.7,1.7-5.6,1.9-8.8,0.8c-3.1-0.6-5.4-2.3-7.1-5.1
							C338.6,444.4,338.2,441.4,339.1,438.3z"/>
					</g>
				</g>
				<g>
					<polygon fill-rule="evenodd" clip-rule="evenodd" fill-opacity="0.251" points="362.8,346.6 346.1,346.6 357.5,356.6 
						329.1,379 300.7,356.6 312,346.6 295.1,346.6 295.1,324.9 362.8,324.9 					"/>
				</g>
				<g>
					<rect x="295.2" y="314.1" fill-rule="evenodd" clip-rule="evenodd" fill-opacity="0.251" width="67.8" height="11.5"/>
				</g>
				<g>
					<g>
						<path fill-rule="evenodd" clip-rule="evenodd" fill="#E7D1B6" d="M403.3,263.5c0,3.3-1.2,6.1-3.7,8.6
							c-2.3,2.4-5.1,3.5-8.5,3.5c-0.2,0-0.4,0-0.7,0v-11.1c0-0.4,0-0.8,0-1.2c0-0.3,0-0.6,0-1c-0.1-3.8-0.5-7.4-1.2-10.8
							c0.7-0.1,1.3-0.1,1.9-0.1c3.4,0,6.2,1.2,8.5,3.6C402.1,257.3,403.3,260.2,403.3,263.5z M258.6,255c2.3-2.4,5.1-3.6,8.5-3.6
							c0.2,0,0.3,0,0.3,0v24.3h-0.3c-3.4,0-6.2-1.2-8.5-3.5c-2.4-2.5-3.5-5.3-3.5-8.6C255,260.2,256.2,257.3,258.6,255z"/>
					</g>
					<g>
						<g>
							<g>
								<g>
									<path fill-rule="evenodd" clip-rule="evenodd" fill="#D9C4AB" d="M314,324.7c-0.2-0.1-0.3-0.1-0.3-0.1
										c-0.8-0.1-1.5-0.2-2.3-0.2c-1.8-0.2-3.5-0.4-5.1-0.5c-0.8-0.2-1.5-0.4-2.2-0.5c-0.4-0.1-0.7-0.2-1-0.2
										c-1.3-0.2-2.7-0.3-4.1-0.5c-0.8-0.2-1.6-0.4-2.3-0.6c-1.5-0.3-3.1-0.6-4.6-1c-0.2-0.1-0.4-0.1-0.5-0.1
										c-0.8-0.2-1.6-0.4-2.3-0.6c-1.6-0.4-3.3-0.9-5-1.5c-0.5-0.1-1.1-0.3-1.7-0.5c-0.3-0.1-0.4-0.2-0.5-0.2
										c-1.8-0.7-3.5-1.4-5-2.1c-0.9-0.3-1.7-0.7-2.4-1.1c-1.8-0.9-3.5-1.9-5-2.8c-0.9-0.8-1.7-1.4-2.4-2
										c-2.6-2.5-3.9-5.1-3.9-8.1v-28L314,324.7z M329.4,325.2v-74.5c5.1-0.3,9.8-1.5,14.1-3.7c0.2-0.1,0.3-0.2,0.5-0.2
										c1.4-0.7,2.7-1.4,3.9-2.1c0.8-0.6,1.6-1.1,2.4-1.7c1.9-1.5,3.6-3.1,5-4.9c0.8-1.1,1.6-2.3,2.3-3.5c0.7-1.1,1.3-2.3,1.8-3.6
										c1.9-3.7,3.1-7.8,3.4-12.3h2.8c1.3,0.2,2.5,0.3,3.6,0.4c10.5,1.7,16,9.2,16.4,22.5v15h9.7v45.6c0,2.6-1.1,5-3.3,7.4
										c-1.3,1.4-3,2.7-5.1,3.9c-0.7,0.4-1.5,0.8-2.2,1.3c-1.5,0.8-3.2,1.6-5.1,2.3c-0.6,0.1-1,0.3-1.5,0.7
										c-0.3,0-0.6,0.1-0.8,0.2c-0.5,0.1-0.9,0.2-1.2,0.4c-1.2,0.5-2.5,0.9-3.8,1.4c-0.7,0.1-1.5,0.3-2.3,0.6
										c-1.6,0.5-3.3,0.8-5.1,1.2c-0.7,0.2-1.4,0.4-2.2,0.6c-1.7,0.4-3.4,0.7-5.1,1c-0.7,0.1-1.4,0.1-2.1,0.2
										c-0.1,0-0.2,0.1-0.2,0.2c-1.6,0.3-3.3,0.5-5,0.7c-0.8,0.1-1.6,0.2-2.4,0.3c-1.6,0.1-3.3,0.2-4.9,0.5c-0.8,0-1.6,0-2.4,0.1
										c-1.6,0.1-3.3,0.2-5,0.2c-0.4,0-0.8,0-1.2,0H329.4z"/>
									<path fill-rule="evenodd" clip-rule="evenodd" fill="#E7D1B6" d="M329.4,325.2h-5.1c-1.1,0-2.2-0.1-3.2-0.1
										c-0.8-0.1-1.6-0.2-2.3-0.2c-1.7-0.1-3.3-0.2-4.8-0.3l-50.5-50.5v-17.6h9.6l0.4-24.5c0-1.2,0.2-2.3,0.7-3.3
										c0.6-1.2,1.4-2.3,2.3-3.3c2.3-2.2,5.1-3.4,8.4-3.4c0.9,0,1.7,0.1,2.5,0.2c2.2,0.4,4.2,1.5,5.9,3.1c0,0.1,0.1,0.2,0.2,0.2
										c0.6,0.6,1.1,1.3,1.5,1.9c0.3,0.3,0.5,0.7,0.7,1.2c0.1,0.2,0.8,1.6,2.2,4.1l0.9,1.5c1.9,3.1,3.3,5.1,4.1,6
										c2.8,2.8,5.8,5,9.1,6.7c4.3,2.2,9,3.4,14.2,3.7h0.1c0,0,0.1,0,0.2,0c0.5,0,0.9,0,1.2,0c0.6,0,1.2,0,1.7,0V325.2z"/>
									<path fill-rule="evenodd" clip-rule="evenodd" fill="#4C3A2D" d="M362.8,219.8c2.6-9.4,1.9-18.6-2-27.4
										c5.4,2.5,10.4,5.7,15.2,9.8c3.7,3.2,6.9,6.6,9.6,10.1c5.1,6.9,8.2,14.4,9.4,22.7c0.2,1.1,0.3,2.3,0.3,3.5v19.3h-9.7v-15
										c-0.4-13.3-5.8-20.8-16.4-22.5c-1.1-0.1-2.3-0.2-3.6-0.4H362.8z"/>
									<path fill-rule="evenodd" clip-rule="evenodd" fill="#5B4C41" d="M329.4,251.8c-0.5,0-1.1,0-1.7,0c-0.4,0-0.8,0-1.2,0
										c-0.1,0-0.2,0-0.2,0h-0.1c-5.2-0.3-9.9-1.5-14.2-3.7c-3.3-1.7-6.3-3.9-9.1-6.7c-0.9-0.9-2.3-2.9-4.1-6l-0.9-1.5
										c-1.3-2.5-2-3.9-2.2-4.1c-0.2-0.5-0.4-0.8-0.7-1.2c-0.4-0.7-0.9-1.3-1.5-1.9c-0.1-0.1-0.1-0.1-0.2-0.2
										c-1.7-1.7-3.7-2.7-5.9-3.1c-0.8-0.2-1.6-0.2-2.5-0.2c-3.3,0-6.1,1.1-8.4,3.4c-0.9,1-1.7,2.1-2.3,3.3
										c-0.5,1-0.7,2.1-0.7,3.3l-0.4,24.5h-9.6v-17c0-2.5,0.2-5,0.5-7.5c1.9-14.3,8.1-26.8,18.7-37.5c10.8-10.7,23.5-16.9,38-18.7
										c2.8-0.4,5.7-0.5,8.7-0.5c0.9,0,1.7,0,2.6,0.1c9.7,0.8,18.1,4.7,25.3,11.8c1.3,1.3,2.5,2.6,3.5,4c3.9,8.9,4.6,18,2,27.4
										c-0.3,4.5-1.4,8.5-3.4,12.3c-0.5,1.3-1.1,2.5-1.8,3.6c-0.7,1.2-1.5,2.3-2.3,3.5c-1.4,1.8-3.1,3.4-5,4.9
										c-0.8,0.6-1.6,1.1-2.4,1.7c-1.2,0.8-2.5,1.5-3.9,2.1c-0.2,0.1-0.4,0.1-0.5,0.2C339.2,250.3,334.5,251.5,329.4,251.8z"/>
								</g>
							</g>
						</g>
						<g>
							<g>
								<path fill-rule="evenodd" clip-rule="evenodd" fill="#7E5C53" d="M295.8,280.6c-0.9,0-1.6-0.3-2.3-1
									c-0.6-0.7-0.9-1.4-0.9-2.3c0-0.8,0.3-1.6,0.9-2.2c0.7-0.7,1.4-1,2.3-1c0.9,0,1.6,0.3,2.3,1c0.7,0.7,1,1.4,1,2.2
									c0,0.9-0.3,1.6-1,2.3C297.4,280.3,296.7,280.6,295.8,280.6z"/>
							</g>
							<g>
								<path fill-rule="evenodd" clip-rule="evenodd" fill="#7E5C53" d="M354.2,276.8c0-0.9,0.3-1.6,1-2.3c0.7-0.7,1.4-1,2.2-1
									c1,0,1.8,0.3,2.4,1c0.6,0.7,0.9,1.4,0.9,2.3c0,0.9-0.3,1.7-0.9,2.4c-0.6,0.6-1.4,0.8-2.4,0.8c-0.8,0-1.6-0.3-2.2-0.8
									C354.6,278.5,354.2,277.7,354.2,276.8z"/>
							</g>
						</g>
						<g>
							<polygon fill-rule="evenodd" clip-rule="evenodd" fill="#E7D1B6" points="328.1,271.5 336.3,296.5 320.5,296.5 328.1,289.8 
															"/>
						</g>
					</g>
					<g>
						<g>
							<path fill-rule="evenodd" clip-rule="evenodd" fill="#5B4C41" d="M298.6,253.7c0.6,0,1.2,0.2,1.6,0.7
								c0.4,0.4,0.6,0.9,0.6,1.5c0,0.6-0.2,1.2-0.6,1.6c-0.5,0.4-1,0.6-1.6,0.6h-8.1c-0.6,0-1.1-0.2-1.5-0.6c-0.5-0.5-0.7-1-0.7-1.6
								c0-0.6,0.2-1.1,0.7-1.5c0.5-0.5,1-0.7,1.5-0.7H298.6z"/>
						</g>
						<g>
							<path fill-rule="evenodd" clip-rule="evenodd" fill="#4C3A2D" d="M365.6,263c0,0.6-0.2,1.1-0.7,1.6c-0.5,0.4-0.9,0.6-1.5,0.6
								h-8.2c-0.6,0-1.2-0.2-1.6-0.6c-0.4-0.5-0.6-1-0.6-1.6c0-0.5,0.2-1,0.6-1.5c0.5-0.5,1-0.7,1.6-0.7h8.2c0.5,0,1,0.2,1.5,0.7
								C365.4,262,365.6,262.5,365.6,263z"/>
						</g>
					</g>
				</g>
				<g>
					<path fill-rule="evenodd" clip-rule="evenodd" fill="#0C6B8B" d="M333,389.1c1,0,1.9,0.3,2.5,1c0.7,0.8,1.1,1.7,1.1,2.7
						c0,0.9-0.4,1.7-1.1,2.5c-0.7,0.7-1.5,1.1-2.5,1.1c-1,0-1.8-0.4-2.5-1.1c-0.8-0.7-1.2-1.5-1.2-2.5c0-1,0.4-1.9,1.2-2.7
						C331.2,389.4,332.1,389.1,333,389.1z M335.6,404.6c0.7,0.7,1.1,1.6,1.1,2.5c0,1-0.4,1.9-1.1,2.5c-0.7,0.8-1.5,1.2-2.5,1.2
						c-1,0-1.8-0.4-2.5-1.2c-0.8-0.7-1.2-1.5-1.2-2.5c0-1,0.4-1.8,1.2-2.5c0.7-0.7,1.6-1,2.5-1C334.1,403.7,334.9,404,335.6,404.6z
						 M329.4,421.7c0-0.9,0.4-1.7,1.2-2.5c0.7-0.7,1.6-1.1,2.5-1.1c1,0,1.9,0.4,2.5,1.1c0.7,0.7,1.1,1.5,1.1,2.5
						c0,1.1-0.4,1.9-1.1,2.5c-0.7,0.8-1.5,1.2-2.5,1.2c-1,0-1.8-0.4-2.5-1.2C329.7,423.6,329.4,422.8,329.4,421.7z"/>
				</g>
				<g>
					<g>
						<rect x="345.9" y="373.9" fill-rule="evenodd" clip-rule="evenodd" fill="#008AAA" width="18.2" height="9.9"/>
						<rect x="345.9" y="367.8" fill-rule="evenodd" clip-rule="evenodd" fill="#B9D1E5" width="18.2" height="6.1"/>
					</g>
				</g>
				<g>
					<g>
						<path fill-rule="evenodd" clip-rule="evenodd" fill-opacity="0.149" d="M318.4,438.3c-0.9-3-2.8-5.2-5.7-6.6l-28.3-16.4v26.4
							c0.3,0.2,0.6,0.3,0.8,0.5l1.7,0.8l-0.1-0.1l14.7,8.7c2.7,1.7,5.6,1.9,8.8,0.8c3.1-0.6,5.4-2.3,7.1-5.1
							C318.9,444.4,319.3,441.4,318.4,438.3z"/>
					</g>
				</g>
				<g>
					<g>
						<path fill-rule="evenodd" clip-rule="evenodd" fill="#B4C8D6" d="M375.5,431.5l-11.7-19.7l14.3-8.4l-20.4-59.4
							c-1.1-3.1-1-6,0.3-8.7c1.4-3,3.6-5,6.5-6.1c3.1-0.9,6.1-0.6,9.1,0.9c2.8,1.1,4.7,3.2,5.7,6.3l24,68.6c0.9,2.7,0.8,5.3-0.2,8
							c-1,2.6-2.7,4.6-5.1,5.9L375.5,431.5z"/>
						<path fill-rule="evenodd" clip-rule="evenodd" fill="#E7D1B6" d="M353.5,418c0,0.4,0.2,0.9,0.5,1.5l9.8,16.7
							c0.3,0.7,0.6,1.1,0.9,1.3l-8.8,5.1c-2.7,1.7-5.6,2-8.8,0.8c-3.1-0.6-5.4-2.3-7.1-5.1c-1.5-2.9-1.9-6-1-9.1
							c0.9-2.9,2.8-5.1,5.7-6.6L353.5,418z"/>
						<path fill-rule="evenodd" clip-rule="evenodd" fill="#B9D1E5" d="M363.8,411.9l11.7,19.7l-1.8,1c-0.5,0.4-1,0.7-1.4,0.9
							l-1.7,0.8l0.1-0.1l-6,3.5c-0.4-0.2-0.7-0.6-0.9-1.3l-9.8-16.7c-0.3-0.6-0.5-1.1-0.5-1.5L363.8,411.9z"/>
					</g>
					<g>
						<path fill-rule="evenodd" clip-rule="evenodd" fill="#424240" d="M361.1,423.2c-0.7-0.2-1.3-0.6-1.7-1.3
							c-0.3-0.6-0.4-1.3-0.3-2c0.2-0.7,0.6-1.3,1.2-1.6c0.7-0.3,1.4-0.4,2.1-0.2c0.7,0.2,1.2,0.6,1.6,1.2c0.3,0.6,0.4,1.3,0.2,2
							c-0.1,0.7-0.5,1.3-1.1,1.6C362.5,423.3,361.8,423.4,361.1,423.2z"/>
					</g>
				</g>
				<g>
					<g>
						<path fill-rule="evenodd" clip-rule="evenodd" fill="#B4C8D6" d="M280.1,431.8l11.7-19.7l-14.3-8.4l20.4-59.4
							c1.1-3.1,1-6-0.3-8.7c-1.4-3-3.6-5-6.5-6.1c-3.1-0.9-6.1-0.6-9.1,0.9c-2.8,1.1-4.7,3.2-5.7,6.3l-24,68.6
							c-0.9,2.7-0.8,5.3,0.2,8c1,2.6,2.7,4.6,5.1,5.9L280.1,431.8z"/>
						<path fill-rule="evenodd" clip-rule="evenodd" fill="#E7D1B6" d="M302.1,418.3c0,0.4-0.2,0.9-0.5,1.5l-9.8,16.7
							c-0.3,0.7-0.6,1.1-0.9,1.3l8.8,5.1c2.7,1.7,5.6,2,8.8,0.8c3.1-0.6,5.4-2.3,7.1-5.1c1.5-2.9,1.9-6,1-9.1
							c-0.9-2.9-2.8-5.1-5.7-6.6L302.1,418.3z"/>
						<path fill-rule="evenodd" clip-rule="evenodd" fill="#B9D1E5" d="M291.8,412.2l-11.7,19.7l1.8,1c0.5,0.4,1,0.7,1.4,0.9
							l1.7,0.8l-0.1-0.1l6,3.5c0.4-0.2,0.7-0.6,0.9-1.3l9.8-16.7c0.3-0.6,0.5-1.1,0.5-1.5L291.8,412.2z"/>
						<path fill-rule="evenodd" clip-rule="evenodd" fill="#E7D1B6" d="M302.1,418.3c0,0.4-0.2,0.9-0.5,1.5l-9.8,16.7
							c-0.3,0.7-0.6,1.1-0.9,1.3l8.8,5.1c2.7,1.7,5.6,2,8.8,0.8c3.1-0.6,5.4-2.3,7.1-5.1c1.5-2.9,1.9-6,1-9.1
							c-0.9-2.9-2.8-5.1-5.7-6.6L302.1,418.3z"/>
						<path fill-rule="evenodd" clip-rule="evenodd" fill="#B9D1E5" d="M291.8,412.2l-11.7,19.7l1.8,1c0.5,0.4,1,0.7,1.4,0.9
							l1.7,0.8l-0.1-0.1l6,3.5c0.4-0.2,0.7-0.6,0.9-1.3l9.8-16.7c0.3-0.6,0.5-1.1,0.5-1.5L291.8,412.2z"/>
					</g>
					<g>
						<path fill-rule="evenodd" clip-rule="evenodd" fill="#424240" d="M294.5,423.5c0.7-0.2,1.3-0.6,1.7-1.3c0.3-0.6,0.4-1.3,0.3-2
							c-0.2-0.7-0.6-1.3-1.2-1.6c-0.7-0.3-1.4-0.4-2.1-0.2c-0.7,0.2-1.2,0.6-1.6,1.2c-0.3,0.6-0.4,1.3-0.2,2
							c0.1,0.7,0.5,1.3,1.1,1.6C293.2,423.6,293.8,423.7,294.5,423.5z"/>
					</g>
				</g>
				<g>
					<g>
						<path fill-rule="evenodd" clip-rule="evenodd" fill="#FFFFFF" d="M321.4,357.1l-10.1-32.6h6.2l7.4,7.4L321.4,357.1z
							 M347.1,324.5l-10,32.6l-3.8-25.2l7.4-7.4l-0.1-0.1H347.1z"/>
						<polygon fill-rule="evenodd" clip-rule="evenodd" fill="#97AEC0" points="337.1,357.1 347.1,324.5 348.3,320 363.1,320 
							363.1,345.4 346.2,345.4 357.6,356.9 329.2,383 						"/>
						<polygon fill-rule="evenodd" clip-rule="evenodd" fill="#B9D1E5" points="311.3,324.6 321.4,357.1 329.2,383 300.8,356.9 
							312.2,345.4 295.3,345.4 295.3,320 309.9,320 311.3,324.5 						"/>
						<polygon fill-rule="evenodd" clip-rule="evenodd" fill="#424240" points="340.7,329.1 340.8,329.2 333.4,336.6 337.1,361.7 
							329.2,387.6 321.4,361.7 324.9,336.6 317.5,329.2 322.5,324.4 336,324.4 						"/>
					</g>
				</g>
				<path fill-rule="evenodd" clip-rule="evenodd" fill="#26201E" d="M350.3,428.6h-45.1c-3.7,0-6.7-3-6.7-6.7l-4.6-66.1
					c0-3.7,3-6.7,6.7-6.7h54.3c3.7,0,6.7,3,6.7,6.7l-4.6,66.1C357,425.6,354,428.6,350.3,428.6z"/>
				<path fill-rule="evenodd" clip-rule="evenodd" fill="#E7D1B6" d="M302.1,418.3c0,0.4-0.2,0.9-0.5,1.5l-9.8,16.7
					c-0.3,0.7-0.6,1.1-0.9,1.3l8.8,5.1c2.7,1.7,5.6,2,8.8,0.8c3.1-0.6,5.4-2.3,7.1-5.1c1.5-2.9,1.9-6,1-9.1
					c-0.9-2.9-2.8-5.1-5.7-6.6L302.1,418.3z"/>
				<path fill-rule="evenodd" clip-rule="evenodd" fill="#B9D1E5" d="M291.8,412.2l-11.7,19.7l1.8,1c0.5,0.4,1,0.7,1.4,0.9l1.7,0.8
					l-0.1-0.1l6,3.5c0.4-0.2,0.7-0.6,0.9-1.3l9.8-16.7c0.3-0.6,0.5-1.1,0.5-1.5L291.8,412.2z"/>
				<path fill-rule="evenodd" clip-rule="evenodd" fill="#E7D1B6" d="M353.5,418c0,0.4,0.2,0.9,0.5,1.5l9.8,16.7
					c0.3,0.7,0.6,1.1,0.9,1.3l-8.8,5.1c-2.7,1.7-5.6,2-8.8,0.8c-3.1-0.6-5.4-2.3-7.1-5.1c-1.5-2.9-1.9-6-1-9.1
					c0.9-2.9,2.8-5.1,5.7-6.6L353.5,418z"/>
				<path fill-rule="evenodd" clip-rule="evenodd" fill="#B9D1E5" d="M363.8,411.9l11.7,19.7l-1.8,1c-0.5,0.4-1,0.7-1.4,0.9
					l-1.7,0.8l0.1-0.1l-6,3.5c-0.4-0.2-0.7-0.6-0.9-1.3l-9.8-16.7c-0.3-0.6-0.5-1.1-0.5-1.5L363.8,411.9z"/>
				<ellipse fill-rule="evenodd" clip-rule="evenodd" fill="#FFFFFF" cx="329.4" cy="311.7" rx="8.8" ry="5.9"/>
			</g>
		</g>
	</g>
	<g>
		<g>
			<g>
				<g>
					<path fill-rule="evenodd" clip-rule="evenodd" fill="#937664" d="M520.4,464.9v206.6h-15v-60v-97.8c0-1.3-0.6-2.4-1.7-3.4
						c-0.2-0.1-0.3-0.2-0.4-0.4c-0.2-0.2-0.4-0.3-0.5-0.3l-23.7-23.5v185.4h-12.5l-12.9-206.6H520.4z"/>
					<path fill-rule="evenodd" clip-rule="evenodd" fill="#78543D" d="M495,671.5h-15.8V486.1l23.7,23.5c-0.7-0.5-1.5-0.7-2.4-0.7
						h-0.5c-1.2,0-2.3,0.5-3.2,1.4c-1.1,1-1.6,2.2-1.6,3.4v97.8V671.5z M520.4,464.9h26.3l-13,206.6h-13.3V464.9z"/>
					<path fill-rule="evenodd" clip-rule="evenodd" fill="#AE988B" d="M479.1,671.5H495v15.4c-0.2-1.7-0.6-3.3-1.3-4.7
						c-0.6-1.5-1.6-2.9-2.8-4.2c-2.7-2.5-5.8-3.8-9.4-3.8c-0.1,0-0.2,0-0.3,0c-0.7,0-1.3,0-2,0.1c-0.7,0.2-1.5,0.3-2.2,0.5
						c-2.1,0.6-4.1,1.6-5.8,3.2c-2.1,2.2-3.4,4.8-3.8,7.8l-0.6-14.3H479.1z M505.4,686.4v-14.9h15h13.3l-0.6,14.7
						c-0.2-1.5-0.6-2.8-1.2-4c-0.7-1.5-1.6-2.9-2.9-4.2c-1.2-1.2-2.6-2-4-2.6c-1.4-0.7-2.9-1-4.6-1.1c-0.3-0.1-0.5-0.1-0.8-0.1
						c-0.1,0-0.2,0-0.3,0c-4,0-7.3,1.3-10,3.8c-2.1,2.2-3.4,4.8-3.8,7.8C505.4,686,505.4,686.2,505.4,686.4z"/>
					<path fill-rule="evenodd" clip-rule="evenodd" fill="#424240" d="M467.3,685.8c0.4-3,1.7-5.6,3.8-7.8c1.7-1.6,3.7-2.6,5.8-3.2
						c0.8-0.2,1.5-0.4,2.2-0.5c0.7-0.1,1.3-0.1,2-0.1c0.1,0,0.2,0,0.3,0c3.6,0,6.8,1.3,9.4,3.8c1.3,1.3,2.2,2.7,2.8,4.2
						c0.7,1.4,1.2,3,1.3,4.7v0.1h-27.9C467.1,686.5,467.2,686.1,467.3,685.8z M533.1,686.2c0,0.3,0,0.5,0,0.7v0.1h-27.7v-0.5
						c0-0.2,0-0.4,0.1-0.6c0.4-3,1.7-5.6,3.8-7.8c2.7-2.5,6-3.8,10-3.8c0.2,0,0.3,0,0.3,0c0.3,0,0.5,0,0.8,0.1
						c1.7,0.1,3.2,0.5,4.6,1.1c1.4,0.6,2.8,1.4,4,2.6c1.3,1.3,2.2,2.7,2.9,4.2C532.5,683.4,532.9,684.7,533.1,686.2z"/>
				</g>
			</g>
			<g>
				<polygon fill-rule="evenodd" clip-rule="evenodd" fill-opacity="0.251" points="484.1,350.8 466.6,350.8 466.6,329.2 
					536.7,329.2 536.7,350.8 519.3,350.8 531.1,360.6 501.7,382.8 472.3,360.6 				"/>
				<g>
					<path fill-rule="evenodd" clip-rule="evenodd" fill="#E7D1B6" d="M560.8,250.6c3.3,0,6.2,1.2,8.4,3.6c2.4,2.3,3.7,5.1,3.7,8.4
						c0,3.2-1.2,6.1-3.7,8.5c-2.3,2.3-5.1,3.5-8.4,3.5c-0.2,0-0.4,0-0.7,0v-11c0-0.4,0-0.8,0-1.2c0-0.3,0-0.6,0-1
						c-0.1-3.8-0.5-7.3-1.2-10.7C559.6,250.7,560.2,250.6,560.8,250.6z M438.1,250.6c0.1,0,0.2,0,0.2,0v24h-0.2
						c-3.3,0-6.2-1.2-8.5-3.5c-2.3-2.4-3.5-5.3-3.5-8.5c0-3.3,1.2-6.2,3.5-8.4C431.9,251.8,434.7,250.6,438.1,250.6z"/>
				</g>
				<g>
					<g>
						<path fill-rule="evenodd" clip-rule="evenodd" fill="#99CC66" d="M500.7,466.2V323.7c0.1,0,0.3,0,0.5,0
							c12.8,0,23.7,0.9,32.9,2.7c6.9,1.4,11.2,3.1,12.8,4.9v142c-1.6,1.8-3.2-1.6-10.1-0.2c-2.7,0.6-5.2-1-8-0.5
							c-3.3,0.4-10.3,0.7-14,1L500.7,466.2z"/>
						<path fill-rule="evenodd" clip-rule="evenodd" fill="#AAD562" d="M500.7,323.7v142.5l-14.2,6.8c-3.8-0.2-7.1,0.6-10.4,0.1
							c-2.7-0.4-3.7,2.2-6.1,1.6c-0.3-0.1-2-3.5-2.4-3.5l-13.1,3.4V332.4c0.7-2.3,5.2-4.3,13.5-6
							C477.2,324.6,488.1,323.7,500.7,323.7z"/>
					</g>
				</g>
				<g>
					<g>
						<path fill-rule="evenodd" clip-rule="evenodd" fill="#E7D1B6" d="M427.8,398.3l23.4,6.3l-4.3,11.5c-1,2.6-2.7,4.7-5.2,6.3
							c-2.5,1.5-5.2,2-8.1,1.5l-28.3-4.9c-0.7,0-1.3,0-1.7-0.1l-2-0.5l0.2-0.1l-17.6-2.6c-3.3-0.4-5.8-2-7.5-5
							c-2-2.5-2.9-5.3-2.6-8.6c0.7-3.4,2.5-6.1,5.2-8c2.6-1.8,5.5-2.4,8.8-1.8L427.8,398.3z"/>
						<path fill-rule="evenodd" clip-rule="evenodd" fill="#AAD562" d="M455.3,393l-23.3-6.3l17.8-49.6c1.2-3.1,3.2-5.4,5.9-6.7
							c3.1-1.4,6.2-1.6,9.2-0.6c3.1,1.1,5.4,3.2,6.7,6.4c1.7,2.8,2,5.8,0.8,8.9L455.3,393z"/>
						<polygon fill-rule="evenodd" clip-rule="evenodd" fill="#7A8C82" points="451.2,404.6 427.8,398.3 431.9,386.7 455.3,393 
													"/>
					</g>
					<g>
						<path fill-rule="evenodd" clip-rule="evenodd" fill="#F1EEE5" d="M437.8,391.1c0.5,0.5,0.6,1.1,0.4,1.9
							c-0.1,0.7-0.4,1.3-1.1,1.7c-0.6,0.6-1.2,0.9-1.9,0.8c-0.7-0.2-1.3-0.6-1.7-1.2c-0.6-0.5-0.7-1.2-0.5-2.1
							c0.2-0.7,0.5-1.2,1-1.7c0.7-0.4,1.3-0.5,2.1-0.5C436.7,390,437.3,390.4,437.8,391.1z"/>
					</g>
					<g>
						<path fill-rule="evenodd" clip-rule="evenodd" fill="#E7D1B6" d="M396,404.2c-0.8-1.1-1-2.3-0.8-3.6l1.9-12.9
							c0.2-1.3,0.8-2.3,1.9-3c1.1-0.7,2.2-1,3.4-0.8c1.3,0.2,2.4,0.7,3.2,1.7c0.8,1.1,1,2.2,0.8,3.5l-2,12.9c-0.2,1.2-0.8,2.2-1.8,3
							c-1.1,0.8-2.3,1.1-3.6,0.9C397.9,405.9,396.8,405.3,396,404.2z"/>
					</g>
				</g>
				<g>
					<g>
						<path fill-rule="evenodd" clip-rule="evenodd" fill="#424240" d="M510.3,461.9h37.4V476h-37.4V461.9z M491.2,461.9V476h-37.5
							v-14.1H491.2z M505.9,464.6v8.7h-10.3v-8.7H505.9z"/>
						<path fill-rule="evenodd" clip-rule="evenodd" fill="#B9D1E5" d="M491.2,461.9v-1.8h19.2v1.8V476v1.9h-19.2V476V461.9z
							 M505.9,464.6h-10.3v8.7h10.3V464.6z"/>
					</g>
				</g>
				<g>
					<g>
						<path fill-rule="evenodd" clip-rule="evenodd" fill="#99CC66" d="M567.5,390.6h-20.9c-2-15.3-6.5-29.7-13.3-43.3
							c-0.2-0.3-0.2-0.6-0.2-0.9c-0.7-1-1.3-1.8-1.8-2.5l1.1-14.1l14.6,1.1c1,1.2,2.2,3,3.6,5.3c0.3,0.7,0.7,1.3,1.1,1.8
							c3.7,7.4,6.8,15.1,9.4,23C564.1,370.5,566.3,380.4,567.5,390.6z"/>
						<path fill-rule="evenodd" clip-rule="evenodd" fill="#7A8C82" d="M568.6,404.1h-20.8c-0.2-4.6-0.6-9.1-1.2-13.5h20.9
							C568,395,568.4,399.5,568.6,404.1z"/>
						<path fill-rule="evenodd" clip-rule="evenodd" fill="#E7D1B6" d="M553.6,484h-22.9c0.2-0.4,0.3-0.7,0.5-1
							c9.3-17.6,14.7-37.3,16.3-58.9c0.6-6.8,0.7-13.4,0.3-19.9h20.8c0.2,7,0,14.2-0.6,21.5C566.4,446.7,561.6,466.2,553.6,484z"/>
						<polygon fill-rule="evenodd" clip-rule="evenodd" fill="#AE988B" points="551.6,491.4 538.2,491.4 530.7,484 553.6,484 
							555.9,484 555.9,491.4 						"/>
						<polygon fill-rule="evenodd" clip-rule="evenodd" fill="#78543D" points="538.2,491.4 551.6,491.4 544.9,498.1 						"/>
					</g>
					<g>
						<path fill-rule="evenodd" clip-rule="evenodd" fill="#F1EEE5" d="M564.6,397.9c0,0.8-0.4,1.4-1.1,1.8c-0.6,0.6-1.3,0.8-2,0.6
							c-0.7-0.1-1.2-0.4-1.7-1.1c-0.6-0.4-0.7-1.1-0.5-2c0.1-0.8,0.4-1.4,0.9-1.7c0.8-0.4,1.5-0.6,2.1-0.5c0.7,0.2,1.3,0.6,1.7,1.2
							C564.6,396.6,564.8,397.2,564.6,397.9z"/>
					</g>
				</g>
				<g>
					<polygon fill-rule="evenodd" clip-rule="evenodd" fill-opacity="0.251" points="484.2,350.6 466.7,350.6 466.7,329.1 
						536.8,329.1 536.8,350.6 519.4,350.6 531.2,360.5 501.8,382.7 472.4,360.5 					"/>
				</g>
				<g>
					<g>
						<polygon fill-rule="evenodd" clip-rule="evenodd" fill="#E7D1B6" points="501.5,382.8 482.9,322.4 489.4,322.4 494.5,317.3 
							508.6,317.3 513.4,322.1 520,322.1 						"/>
						<polygon fill-rule="evenodd" clip-rule="evenodd" fill="#7A8C82" points="482.9,322.4 501.5,382.8 472.1,355.7 483.9,343.8 
							466.4,343.8 466.4,317.5 481.5,317.5 482.9,322.1 						"/>
						<polygon fill-rule="evenodd" clip-rule="evenodd" fill="#404E47" points="501.5,382.8 520,322.1 521.4,317.5 536.5,317.5 
							536.5,343.8 519.1,343.8 530.9,355.7 						"/>
					</g>
				</g>
				<g>
					<rect x="466.3" y="318.4" fill-rule="evenodd" clip-rule="evenodd" fill-opacity="0.251" width="70.1" height="11.4"/>
				</g>
				<g>
					<g>
						<g>
							<g>
								<path fill-rule="evenodd" clip-rule="evenodd" fill="#D9C4AB" d="M499.5,323.7v-150c18,0,33.4,6.4,46.2,19.1
									c5.2,5.2,9.3,10.9,12.5,17c3.4,6.9,5.6,14.4,6.4,22.4h0.2v68.7c0,2.5-1.1,5-3.2,7.3c-1.3,1.4-3,2.7-5,3.9
									c-0.7,0.4-1.5,0.8-2.3,1.3c-1.5,0.8-3.2,1.6-5,2.3c-0.5,0.1-1,0.3-1.4,0.7c-0.3,0-0.6,0.1-0.9,0.2c-0.5,0.1-0.8,0.2-1.1,0.4
									c-1.3,0.5-2.6,0.9-3.9,1.4c-0.7,0.1-1.4,0.3-2.2,0.6c-1.6,0.5-3.2,0.8-5,1.1c-0.8,0.2-1.5,0.4-2.2,0.6c-1.6,0.4-3.3,0.7-5,1
									c-0.7,0.1-1.4,0.1-2.1,0.2c-0.1,0-0.1,0.1-0.2,0.2c-1.7,0.3-3.3,0.5-4.9,0.7c-0.8,0.1-1.6,0.2-2.4,0.3
									c-1.7,0.1-3.3,0.2-4.9,0.5c-0.7,0-1.5,0-2.4,0.1c-1.6,0.1-3.2,0.2-4.9,0.2c-0.4,0-0.7,0-1.1,0H499.5z M434.2,273.8
									l49.2,49.2c-0.6-0.1-1.2-0.1-1.7-0.1c-1.8-0.2-3.4-0.4-5-0.5c-0.8-0.2-1.6-0.4-2.3-0.5c-0.4-0.1-0.7-0.2-1-0.2
									c-1.3-0.2-2.7-0.3-4-0.5c-0.8-0.2-1.5-0.4-2.3-0.6c-1.5-0.3-3-0.6-4.5-1c-0.2-0.1-0.4-0.1-0.5-0.1c-0.8-0.2-1.5-0.4-2.2-0.6
									c-1.7-0.4-3.3-0.9-4.9-1.5c-0.5-0.1-1.1-0.3-1.7-0.5c-0.3-0.1-0.5-0.2-0.6-0.2c-1.8-0.7-3.4-1.4-4.9-2.1
									c-0.9-0.3-1.6-0.7-2.4-1.1c-1.9-0.9-3.5-1.8-4.9-2.8c-0.9-0.8-1.7-1.4-2.4-2c-2.6-2.4-3.9-5.1-4-8V273.8z"/>
								<path fill-rule="evenodd" clip-rule="evenodd" fill="#E7D1B6" d="M499.5,173.7v150h-5c-1.1-0.1-2.2-0.1-3.3-0.1
									c-0.8-0.1-1.5-0.2-2.2-0.2c-1.8-0.1-3.4-0.2-5-0.4c-0.2,0-0.4,0-0.6-0.1l-49.2-49.2v-41.7h0.3c0.8-8.1,2.9-15.5,6.5-22.4
									c3-6.1,7.1-11.7,12.3-17C466.1,180,481.5,173.7,499.5,173.7z"/>
							</g>
							<g>
								<path fill-rule="evenodd" clip-rule="evenodd" fill="#424240" d="M564.7,232.2V263h-0.8c-12-0.4-18.2-6.8-18.6-19.5v-36.4
									l-17.4-15.1v12.9h-43.1c-8.4-0.3-12.9-4.4-13.5-12.2v-0.7l-17.4,15.1v38.4c-0.3,11.1-5.4,16.9-15.6,17.5h-4v-30.9
									c1-8.1,3.2-15.5,6.8-22.4c3-6.1,7.1-11.7,12.3-17c0.2-0.1,0.3-0.3,0.5-0.5c12.7-12.4,28-18.6,45.8-18.6
									c18,0,33.4,6.4,46.2,19.1c5.2,5.2,9.3,10.9,12.5,17c3.4,6.9,5.6,14.4,6.4,22.4H564.7z"/>
							</g>
						</g>
					</g>
					<g>
						<polygon fill-rule="evenodd" clip-rule="evenodd" fill="#E7D1B6" points="490.8,283.9 498.2,277.3 498.2,259.1 506.3,283.9 
													"/>
					</g>
				</g>
				<g>
					<path fill-rule="evenodd" clip-rule="evenodd" fill-opacity="0.251" d="M564.7,270.4v30.5c0,2.5-1.1,5-3.2,7.3
						c-1.3,1.4-3,2.7-5,3.9c-0.7,0.4-1.5,0.8-2.3,1.3c-1.5,0.8-3.2,1.6-5,2.3c-0.5,0.1-1,0.3-1.4,0.7c-0.3,0-0.6,0.1-0.9,0.2
						c-0.5,0.1-0.8,0.2-1.1,0.4c-1.3,0.5-2.6,0.9-3.9,1.4c-0.7,0.1-1.4,0.3-2.2,0.6c-1.6,0.5-3.2,0.8-5,1.1
						c-0.8,0.2-1.5,0.4-2.2,0.6c-1.4,0.3-2.9,0.6-4.4,0.9c-0.2,0.1-0.4,0.1-0.6,0.1c-0.7,0.1-1.4,0.1-2.1,0.2
						c-0.1,0-0.1,0.1-0.2,0.2c-1.7,0.3-3.3,0.5-4.9,0.7c-0.8,0.1-1.6,0.2-2.4,0.3c-1.7,0.1-3.3,0.2-4.9,0.5c-0.7,0-1.5,0-2.4,0.1
						c-1.6,0.1-3.2,0.2-4.9,0.2c-0.4,0-0.7,0-1.1,0h-10c-1.1-0.1-2.2-0.1-3.3-0.1c-0.8-0.1-1.5-0.2-2.2-0.2c-1.8-0.1-3.4-0.2-5-0.4
						c-0.8-0.1-1.6-0.2-2.3-0.2c-1.8-0.2-3.4-0.4-5-0.5c-0.8-0.2-1.6-0.4-2.3-0.5c-0.4-0.1-0.7-0.2-1-0.2c-0.1,0-0.3,0-0.5,0
						c-0.3-0.1-0.5-0.1-0.8-0.1c-0.7-0.1-1.4-0.2-2.1-0.4c-0.2-0.1-0.4-0.1-0.6-0.1c-0.8-0.2-1.5-0.4-2.3-0.6c-1.5-0.3-3-0.6-4.5-1
						c-0.2-0.1-0.4-0.1-0.5-0.1c-0.8-0.2-1.5-0.4-2.2-0.6c-1.7-0.4-3.3-0.9-4.9-1.5c-0.5-0.1-1.1-0.3-1.7-0.5
						c-0.3-0.1-0.5-0.2-0.6-0.2c-1.8-0.7-3.4-1.4-4.9-2.1c-0.9-0.3-1.6-0.7-2.4-1.1c-1.9-0.9-3.5-1.8-4.9-2.8
						c-0.9-0.8-1.7-1.4-2.4-2c-2.6-2.4-3.9-5.1-4-8v-30.5h7.2l21.4,21.4h7.4c0.9-5.1,4.3-7.7,10.3-7.7h37c6,0,9.5,2.6,10.3,7.7h7.4
						l21.4-21.4H564.7z"/>
				</g>
				<g>
					<path fill-rule="evenodd" clip-rule="evenodd" fill="#F1EEE5" d="M499.3,312.9c-5.7,0-10.5-2-14.6-6c-4-4.1-6-8.9-6-14.7h41.5
						c-0.1,4.3-1.2,8.1-3.3,11.4c-0.9,1.1-1.8,2.2-2.8,3.3C510,310.9,505.1,312.9,499.3,312.9z"/>
				</g>
				<g>
					<g>
						<path fill-rule="evenodd" clip-rule="evenodd" fill="#424240" d="M463.7,251c-0.9,0.3-1.7,0.2-2.6-0.3c-0.7-0.5-1.2-1.1-1.4-2
							v-0.1c-0.3-0.9-0.2-1.7,0.3-2.4c0.5-0.8,1.1-1.3,2-1.6l11.3-3c0.9-0.3,1.7-0.2,2.4,0.3c0.8,0.4,1.3,1.1,1.6,2v0.1
							c0.3,0.9,0.1,1.7-0.5,2.5c-0.3,0.8-0.9,1.3-1.8,1.5L463.7,251z"/>
					</g>
					<g>
						<path fill-rule="evenodd" clip-rule="evenodd" fill="#424240" d="M535.1,251l-11.3-3c-0.8-0.2-1.5-0.7-2.1-1.6
							c-0.4-0.7-0.5-1.4-0.3-2.4l0.2-0.1c0.2-0.9,0.7-1.5,1.4-2.1c0.8-0.4,1.6-0.5,2.4-0.3l11.3,3c0.9,0.3,1.6,0.7,2,1.4
							c0.5,0.9,0.6,1.7,0.4,2.6l-0.1,0.1c-0.2,0.9-0.7,1.5-1.6,1.9C536.8,251.2,536,251.3,535.1,251z"/>
					</g>
				</g>
				<g>
					<g>
						<polyline fill-rule="evenodd" clip-rule="evenodd" fill="#AE988B" points="470.9,484 463.4,491.4 450,491.4 445.7,491.4 
							445.7,484 						"/>
						<polyline fill-rule="evenodd" clip-rule="evenodd" fill="#78543D" points="463.4,491.4 456.7,498.1 450,491.4 						"/>
					</g>
				</g>
				<g>
					<path fill-rule="evenodd" clip-rule="evenodd" fill="#424240" d="M498.5,337.1L498.5,337.1c0.5,0.5,0.8,1.1,0.8,1.8
						c0,0.8-0.3,1.5-0.8,2c-0.6,0.5-1.2,0.7-1.9,0.7c-0.8,0-1.4-0.2-1.8-0.7h-0.2c-0.5-0.5-0.7-1.1-0.7-1.8c0-0.2,0.1-0.4,0.2-0.5
						c0.1-0.1,0.3-0.2,0.5-0.2c0.2,0,0.3,0,0.4,0.2c0.2,0.2,0.2,0.3,0.2,0.5c0,0.3,0.1,0.6,0.4,0.8v0.2c0.3,0.2,0.6,0.3,1,0.3
						c0.4,0,0.7-0.2,0.9-0.5c0.3-0.3,0.4-0.6,0.4-1c0-0.3-0.1-0.6-0.3-0.8h-0.1c-0.2-0.3-0.5-0.4-0.8-0.4c-0.2,0-0.3-0.1-0.5-0.2
						c-0.2-0.2-0.2-0.3-0.2-0.5c0-0.2,0.1-0.4,0.2-0.5c0.2-0.1,0.3-0.2,0.5-0.2C497.3,336.4,497.9,336.6,498.5,337.1z M512.8,331
						c0-0.2,0.1-0.4,0.2-0.5c0.1-0.1,0.3-0.2,0.5-0.2c0.2,0,0.3,0.1,0.5,0.3c0.5,0.5,0.7,1.1,0.6,1.7c0.1,0.7-0.2,1.3-0.7,1.8v0.2
						c-0.6,0.5-1.2,0.7-1.9,0.7h-0.1c-0.7,0-1.3-0.3-1.9-0.9c-0.5-0.5-0.8-1.1-0.8-1.9c0-0.6,0.3-1.2,0.8-1.8
						c0.2-0.2,0.3-0.2,0.5-0.2c0.2,0,0.4,0.1,0.5,0.2c0.2,0.2,0.2,0.4,0.2,0.5c0,0.2-0.1,0.4-0.2,0.5c-0.3,0.3-0.4,0.5-0.4,0.8
						c0,0.4,0.1,0.7,0.4,1v0.2c0.3,0.2,0.6,0.3,0.9,0.3h0.1c0.4,0,0.7-0.1,0.9-0.3h0.1c0.2-0.3,0.3-0.6,0.3-1v-0.2
						c0-0.3-0.1-0.6-0.3-0.8C512.9,331.4,512.8,331.2,512.8,331z M501.8,329.8c0.1,0.2,0.2,0.3,0.2,0.5c0,0.2,0,0.4-0.2,0.5
						c-0.2,0.2-0.3,0.2-0.5,0.2c-0.3,0-0.6,0.1-0.8,0.3l-0.2,0.1c-0.2,0.3-0.3,0.5-0.3,0.8c0,0.5,0.1,0.8,0.3,1
						c0.4,0.3,0.7,0.5,1.1,0.5c0.3,0,0.6-0.1,0.8-0.3c0-0.1,0-0.2,0.1-0.2c0.2-0.2,0.3-0.4,0.3-0.8c0-0.2,0.1-0.4,0.2-0.5
						c0.1-0.1,0.3-0.2,0.5-0.2c0.2,0,0.4,0.1,0.5,0.2c0.1,0.2,0.2,0.3,0.2,0.5c0,0.7-0.3,1.3-0.8,1.8v0.1c-0.5,0.6-1.1,0.8-1.8,0.8
						c-0.8,0-1.5-0.3-2-0.9c-0.5-0.5-0.7-1.1-0.7-1.9c0-0.7,0.2-1.3,0.7-1.8h0.1c0.5-0.5,1-0.8,1.7-0.8
						C501.5,329.7,501.7,329.7,501.8,329.8z M489.5,330.5L489.5,330.5c0.5-0.6,1.1-0.8,1.9-0.8c0.7,0,1.3,0.3,1.8,0.8
						c0.2,0.1,0.2,0.2,0.2,0.5c0,0.2-0.1,0.3-0.2,0.5c-0.1,0.1-0.3,0.2-0.5,0.2c-0.2,0-0.4,0-0.5-0.1c-0.4-0.3-0.7-0.4-1-0.4
						c-0.4,0-0.7,0.1-0.9,0.4c-0.3,0.3-0.4,0.6-0.4,0.8c0,0.5,0.1,0.9,0.4,1.1c0.3,0.3,0.5,0.4,0.8,0.3c0.1,0,0.2,0,0.2,0
						c0.3,0,0.6-0.1,0.9-0.3c0.1-0.2,0.2-0.2,0.4-0.2c0.2,0,0.4,0.1,0.5,0.2c0.2,0.1,0.2,0.2,0.2,0.4c0,0.2-0.1,0.4-0.2,0.5
						c-0.5,0.6-1.1,0.8-1.8,0.8c-0.1,0-0.1,0-0.2,0c-0.7,0-1.2-0.3-1.8-0.8c-0.5-0.5-0.8-1.2-0.8-2
						C488.7,331.7,489,331.1,489.5,330.5z"/>
				</g>
				<g>
					<g>
						<path fill-rule="evenodd" clip-rule="evenodd" fill="#7E5C53" d="M470,264.9c0-0.8,0.3-1.5,1-2.2c0.6-0.7,1.3-1,2.2-1
							c0.9,0,1.6,0.3,2.3,1c0.7,0.7,1,1.4,1,2.2c0,0.9-0.3,1.6-1,2.3c-0.7,0.7-1.4,1-2.3,1c-0.9,0-1.6-0.3-2.2-1
							C470.3,266.5,470,265.7,470,264.9z"/>
					</g>
					<g>
						<path fill-rule="evenodd" clip-rule="evenodd" fill="#7E5C53" d="M524.8,262.1c0.6,0.7,0.9,1.4,0.9,2.3c0,0.9-0.3,1.7-0.9,2.4
							c-0.7,0.6-1.4,0.8-2.4,0.8c-0.9,0-1.6-0.3-2.2-0.8c-0.7-0.7-1-1.4-1-2.4c0-0.9,0.3-1.6,1-2.3c0.6-0.7,1.3-1,2.2-1
							C523.3,261.1,524.1,261.4,524.8,262.1z"/>
					</g>
				</g>
			</g>
		</g>
		<g>
			<path fill-rule="evenodd" clip-rule="evenodd" fill="#26201E" d="M399,395.2l-22.3,2.1c-1.8,0.2-3.5-1.5-3.7-3.8l-3.9-40.5
				c-0.2-2.3,1.1-4.2,2.9-4.4l22.3-2.1c1.8-0.2,3.5,1.5,3.7,3.8l3.9,40.5C402.2,393,400.9,395,399,395.2z"/>
			<path fill-rule="evenodd" clip-rule="evenodd" fill="#4C5760" d="M397.8,392l-20.5,2c-1.7,0.2-3.2-1.3-3.4-3.2l-3.3-34.8
				c-0.2-1.9,1-3.7,2.7-3.8l20.5-2c1.7-0.2,3.2,1.3,3.4,3.2l3.3,34.8C400.7,390.2,399.5,391.9,397.8,392z"/>
		</g>
		<g>
			<path fill-rule="evenodd" clip-rule="evenodd" fill="#E7D1B6" d="M396,404c-0.8-1.1-1-2.3-0.8-3.6l1.9-12.9
				c0.2-1.3,0.8-2.3,1.9-3c1.1-0.7,2.2-1,3.4-0.8c1.3,0.2,2.4,0.7,3.2,1.7c0.8,1.1,1,2.2,0.8,3.5l-2,12.9c-0.2,1.2-0.8,2.2-1.8,3
				c-1.1,0.8-2.3,1.1-3.6,0.9C397.9,405.7,396.8,405.1,396,404z"/>
		</g>
	</g>
	<path fill="#ADADAD" d="M620.1,684h-6.2c-2.1,0-3.9-1.7-3.9-3.9V95.9c0-2.1,1.7-3.9,3.9-3.9h6.2c2.1,0,3.9,1.7,3.9,3.9v584.2
		C624,682.3,622.3,684,620.1,684z"/>
</g>
</svg>
